<svg width="573" height="704" viewBox="0 0 573 704" fill="none" xmlns="http://www.w3.org/2000/svg">
<g filter="url(#filter0_d_8290_61755)">
<path d="M10.5 16C10.5 11.5817 14.0817 8 18.5 8H554.5C558.918 8 562.5 11.5817 562.5 16V684C562.5 688.418 558.918 692 554.5 692H18.5C14.0817 692 10.5 688.418 10.5 684V16Z" fill="white" shape-rendering="crispEdges"/>
<path d="M51.2617 56V39.6758H45.5605V36.2715H61.1055V39.6758H55.3906V56H51.2617ZM63.1426 56V36.2715H67.1348V43.873H67.2168C67.9688 42.0547 69.5137 41.043 71.7148 41.043C74.8867 41.043 76.8555 43.2578 76.8555 46.7988V56H72.8633V47.6191C72.8633 45.5684 71.8516 44.3516 70.0332 44.3516C68.2695 44.3516 67.1348 45.6914 67.1348 47.6055V56H63.1426ZM86.0977 56.3008C81.6133 56.3008 78.8926 53.3887 78.8926 48.6992V48.6855C78.8926 44.0234 81.6406 41.043 85.9336 41.043C90.2266 41.043 92.9199 43.9551 92.9199 48.3848V49.6152H82.8301C82.8711 51.9531 84.1426 53.3203 86.1797 53.3203C87.8203 53.3203 88.8184 52.418 89.1055 51.5977L89.1328 51.5156H92.7969L92.7559 51.666C92.3047 53.8262 90.2812 56.3008 86.0977 56.3008ZM86.002 44.0234C84.3613 44.0234 83.1309 45.1172 82.8711 47.0996H89.0918C88.8457 45.0762 87.6562 44.0234 86.002 44.0234ZM100.535 60.7852V41.3438H104.527V43.9004H104.623C105.416 42.123 107.016 41.043 109.094 41.043C112.812 41.043 115.082 43.8867 115.082 48.6582V48.6719C115.082 53.4297 112.812 56.3008 109.148 56.3008C107.057 56.3008 105.402 55.2344 104.609 53.498H104.527V60.7852H100.535ZM107.781 52.9922C109.764 52.9922 111.021 51.3379 111.021 48.6719V48.6582C111.021 45.9785 109.764 44.3516 107.781 44.3516C105.84 44.3516 104.514 46.0195 104.514 48.6719V48.6855C104.514 51.3242 105.84 52.9922 107.781 52.9922ZM121.521 56.2324C118.582 56.2324 116.6 54.3867 116.6 51.8027V51.7754C116.6 49.1094 118.664 47.5508 122.301 47.3184L125.924 47.0996V46.1973C125.924 44.8984 125.076 44.0918 123.518 44.0918C122.027 44.0918 121.125 44.7891 120.934 45.7324L120.906 45.8555H117.256L117.27 45.6914C117.488 42.9844 119.812 41.043 123.682 41.043C127.469 41.043 129.916 42.998 129.916 45.9512V56H125.924V53.8125H125.842C125.008 55.3164 123.449 56.2324 121.521 56.2324ZM120.551 51.5977C120.551 52.6777 121.439 53.3203 122.82 53.3203C124.611 53.3203 125.924 52.1719 125.924 50.6406V49.5879L122.902 49.7793C121.357 49.875 120.551 50.5312 120.551 51.5703V51.5977ZM138.529 56.3008C134.469 56.3008 132.213 54.4277 131.898 51.6523L131.885 51.5293H135.781L135.809 51.6523C136.068 52.8008 136.93 53.4707 138.529 53.4707C140.033 53.4707 140.949 52.8828 140.949 51.9395V51.9258C140.949 51.1465 140.457 50.6953 139.021 50.3809L136.533 49.8613C133.689 49.2598 132.254 47.8379 132.254 45.6504V45.6367C132.254 42.8477 134.66 41.043 138.393 41.043C142.289 41.043 144.463 43.1074 144.559 45.6777V45.8145H140.881L140.867 45.7051C140.73 44.6523 139.869 43.8594 138.393 43.8594C137.012 43.8594 136.15 44.4746 136.15 45.418V45.4316C136.15 46.1836 136.656 46.6758 138.133 46.9902L140.621 47.5234C143.684 48.166 144.941 49.3691 144.941 51.5293V51.543C144.941 54.4141 142.303 56.3008 138.529 56.3008ZM152.939 56.3008C148.879 56.3008 146.623 54.4277 146.309 51.6523L146.295 51.5293H150.191L150.219 51.6523C150.479 52.8008 151.34 53.4707 152.939 53.4707C154.443 53.4707 155.359 52.8828 155.359 51.9395V51.9258C155.359 51.1465 154.867 50.6953 153.432 50.3809L150.943 49.8613C148.1 49.2598 146.664 47.8379 146.664 45.6504V45.6367C146.664 42.8477 149.07 41.043 152.803 41.043C156.699 41.043 158.873 43.1074 158.969 45.6777V45.8145H155.291L155.277 45.7051C155.141 44.6523 154.279 43.8594 152.803 43.8594C151.422 43.8594 150.561 44.4746 150.561 45.418V45.4316C150.561 46.1836 151.066 46.6758 152.543 46.9902L155.031 47.5234C158.094 48.166 159.352 49.3691 159.352 51.5293V51.543C159.352 54.4141 156.713 56.3008 152.939 56.3008ZM164.096 56L160.199 41.3438H164.219L166.434 52.2129H166.516L169.113 41.3438H172.941L175.553 52.2129H175.635L177.863 41.3438H181.801L177.918 56H173.666L171.014 45.6367H170.932L168.293 56H164.096ZM189.867 56.3008C185.41 56.3008 182.607 53.4434 182.607 48.6719V48.6445C182.607 43.9277 185.479 41.043 189.854 41.043C194.242 41.043 197.127 43.9004 197.127 48.6445V48.6719C197.127 53.457 194.297 56.3008 189.867 56.3008ZM189.881 53.1699C191.822 53.1699 193.066 51.5293 193.066 48.6719V48.6445C193.066 45.8145 191.795 44.1738 189.854 44.1738C187.926 44.1738 186.668 45.8145 186.668 48.6445V48.6719C186.668 51.543 187.912 53.1699 189.881 53.1699ZM199.191 56V41.3438H203.184V43.9004H203.266C203.703 42.0957 204.893 41.043 206.602 41.043C207.039 41.043 207.449 41.1113 207.75 41.1934V44.707C207.422 44.5703 206.875 44.4883 206.301 44.4883C204.332 44.4883 203.184 45.6641 203.184 47.7969V56H199.191ZM214.326 56.3008C210.635 56.3008 208.365 53.4297 208.365 48.6719V48.6582C208.365 43.8867 210.635 41.043 214.326 41.043C216.404 41.043 218.045 42.1094 218.838 43.8867H218.92V36.2715H222.912V56H218.92V53.498H218.838C218.059 55.2344 216.445 56.3008 214.326 56.3008ZM215.666 52.9922C217.607 52.9922 218.934 51.3242 218.934 48.6719V48.6582C218.934 46.0195 217.594 44.3516 215.666 44.3516C213.684 44.3516 212.426 45.9785 212.426 48.6582V48.6719C212.426 51.3379 213.67 52.9922 215.666 52.9922ZM231.129 56V41.3438H235.121V43.9004H235.203C235.641 42.0957 236.83 41.043 238.539 41.043C238.977 41.043 239.387 41.1113 239.688 41.1934V44.707C239.359 44.5703 238.812 44.4883 238.238 44.4883C236.27 44.4883 235.121 45.6641 235.121 47.7969V56H231.129ZM247.508 56.3008C243.023 56.3008 240.303 53.3887 240.303 48.6992V48.6855C240.303 44.0234 243.051 41.043 247.344 41.043C251.637 41.043 254.33 43.9551 254.33 48.3848V49.6152H244.24C244.281 51.9531 245.553 53.3203 247.59 53.3203C249.23 53.3203 250.229 52.418 250.516 51.5977L250.543 51.5156H254.207L254.166 51.666C253.715 53.8262 251.691 56.3008 247.508 56.3008ZM247.412 44.0234C245.771 44.0234 244.541 45.1172 244.281 47.0996H250.502C250.256 45.0762 249.066 44.0234 247.412 44.0234ZM262.424 56.3008C258.363 56.3008 256.107 54.4277 255.793 51.6523L255.779 51.5293H259.676L259.703 51.6523C259.963 52.8008 260.824 53.4707 262.424 53.4707C263.928 53.4707 264.844 52.8828 264.844 51.9395V51.9258C264.844 51.1465 264.352 50.6953 262.916 50.3809L260.428 49.8613C257.584 49.2598 256.148 47.8379 256.148 45.6504V45.6367C256.148 42.8477 258.555 41.043 262.287 41.043C266.184 41.043 268.357 43.1074 268.453 45.6777V45.8145H264.775L264.762 45.7051C264.625 44.6523 263.764 43.8594 262.287 43.8594C260.906 43.8594 260.045 44.4746 260.045 45.418V45.4316C260.045 46.1836 260.551 46.6758 262.027 46.9902L264.516 47.5234C267.578 48.166 268.836 49.3691 268.836 51.5293V51.543C268.836 54.4141 266.197 56.3008 262.424 56.3008ZM277.477 56.3008C272.992 56.3008 270.271 53.3887 270.271 48.6992V48.6855C270.271 44.0234 273.02 41.043 277.312 41.043C281.605 41.043 284.299 43.9551 284.299 48.3848V49.6152H274.209C274.25 51.9531 275.521 53.3203 277.559 53.3203C279.199 53.3203 280.197 52.418 280.484 51.5977L280.512 51.5156H284.176L284.135 51.666C283.684 53.8262 281.66 56.3008 277.477 56.3008ZM277.381 44.0234C275.74 44.0234 274.51 45.1172 274.25 47.0996H280.471C280.225 45.0762 279.035 44.0234 277.381 44.0234ZM292.188 56.3008C288.934 56.3008 287.402 55.043 287.402 51.8984V44.3516H285.365V41.3438H287.402V37.7617H291.436V41.3438H294.115V44.3516H291.436V51.4609C291.436 52.8281 292.051 53.293 293.254 53.293C293.609 53.293 293.869 53.252 294.115 53.2246V56.1504C293.664 56.2188 293.021 56.3008 292.188 56.3008ZM301.963 56V36.2715H305.955V56H301.963ZM310.727 39.457C309.523 39.457 308.594 38.5137 308.594 37.3789C308.594 36.2441 309.523 35.3008 310.727 35.3008C311.93 35.3008 312.859 36.2441 312.859 37.3789C312.859 38.5137 311.93 39.457 310.727 39.457ZM308.73 56V41.3438H312.723V56H308.73ZM315.402 56V41.3438H319.395V43.75H319.477C320.229 42.0684 321.732 41.043 323.947 41.043C327.174 41.043 329.006 43.1074 329.006 46.5391V56H325.014V47.3594C325.014 45.4453 324.111 44.3516 322.32 44.3516C320.529 44.3516 319.395 45.6641 319.395 47.5781V56H315.402ZM331.672 56V36.2715H335.664V47.209H335.746L340.695 41.3438H345.221L339.684 47.6465L345.494 56H340.887L336.689 50.0117L335.664 51.1465V56H331.672ZM352.248 56V36.2715H356.24V43.873H356.322C357.074 42.0547 358.619 41.043 360.82 41.043C363.992 41.043 365.961 43.2578 365.961 46.7988V56H361.969V47.6191C361.969 45.5684 360.957 44.3516 359.139 44.3516C357.375 44.3516 356.24 45.6914 356.24 47.6055V56H352.248ZM372.893 56.2324C369.953 56.2324 367.971 54.3867 367.971 51.8027V51.7754C367.971 49.1094 370.035 47.5508 373.672 47.3184L377.295 47.0996V46.1973C377.295 44.8984 376.447 44.0918 374.889 44.0918C373.398 44.0918 372.496 44.7891 372.305 45.7324L372.277 45.8555H368.627L368.641 45.6914C368.859 42.9844 371.184 41.043 375.053 41.043C378.84 41.043 381.287 42.998 381.287 45.9512V56H377.295V53.8125H377.213C376.379 55.3164 374.82 56.2324 372.893 56.2324ZM371.922 51.5977C371.922 52.6777 372.811 53.3203 374.191 53.3203C375.982 53.3203 377.295 52.1719 377.295 50.6406V49.5879L374.273 49.7793C372.729 49.875 371.922 50.5312 371.922 51.5703V51.5977ZM389.9 56.3008C385.84 56.3008 383.584 54.4277 383.27 51.6523L383.256 51.5293H387.152L387.18 51.6523C387.439 52.8008 388.301 53.4707 389.9 53.4707C391.404 53.4707 392.32 52.8828 392.32 51.9395V51.9258C392.32 51.1465 391.828 50.6953 390.393 50.3809L387.904 49.8613C385.061 49.2598 383.625 47.8379 383.625 45.6504V45.6367C383.625 42.8477 386.031 41.043 389.764 41.043C393.66 41.043 395.834 43.1074 395.93 45.6777V45.8145H392.252L392.238 45.7051C392.102 44.6523 391.24 43.8594 389.764 43.8594C388.383 43.8594 387.521 44.4746 387.521 45.418V45.4316C387.521 46.1836 388.027 46.6758 389.504 46.9902L391.992 47.5234C395.055 48.166 396.312 49.3691 396.312 51.5293V51.543C396.312 54.4141 393.674 56.3008 389.9 56.3008ZM412.514 56.3008C410.408 56.3008 408.795 55.2344 408.002 53.498H407.92V56H403.928V36.2715H407.92V43.8867H408.002C408.809 42.1094 410.436 41.043 412.527 41.043C416.205 41.043 418.488 43.8867 418.488 48.6582V48.6719C418.488 53.4297 416.205 56.3008 412.514 56.3008ZM411.188 52.9922C413.17 52.9922 414.428 51.3379 414.428 48.6719V48.6582C414.428 45.9785 413.17 44.3516 411.188 44.3516C409.26 44.3516 407.92 46.0195 407.92 48.6582V48.6719C407.92 51.3242 409.246 52.9922 411.188 52.9922ZM427.211 56.3008C422.727 56.3008 420.006 53.3887 420.006 48.6992V48.6855C420.006 44.0234 422.754 41.043 427.047 41.043C431.34 41.043 434.033 43.9551 434.033 48.3848V49.6152H423.943C423.984 51.9531 425.256 53.3203 427.293 53.3203C428.934 53.3203 429.932 52.418 430.219 51.5977L430.246 51.5156H433.91L433.869 51.666C433.418 53.8262 431.395 56.3008 427.211 56.3008ZM427.115 44.0234C425.475 44.0234 424.244 45.1172 423.984 47.0996H430.205C429.959 45.0762 428.77 44.0234 427.115 44.0234ZM442.77 56.3008C438.285 56.3008 435.564 53.3887 435.564 48.6992V48.6855C435.564 44.0234 438.312 41.043 442.605 41.043C446.898 41.043 449.592 43.9551 449.592 48.3848V49.6152H439.502C439.543 51.9531 440.814 53.3203 442.852 53.3203C444.492 53.3203 445.49 52.418 445.777 51.5977L445.805 51.5156H449.469L449.428 51.666C448.977 53.8262 446.953 56.3008 442.77 56.3008ZM442.674 44.0234C441.033 44.0234 439.803 45.1172 439.543 47.0996H445.764C445.518 45.0762 444.328 44.0234 442.674 44.0234ZM451.656 56V41.3438H455.648V43.75H455.73C456.482 42.0684 457.986 41.043 460.201 41.043C463.428 41.043 465.26 43.1074 465.26 46.5391V56H461.268V47.3594C461.268 45.4453 460.365 44.3516 458.574 44.3516C456.783 44.3516 455.648 45.6641 455.648 47.5781V56H451.656ZM479.369 56.3008C475.309 56.3008 473.053 54.4277 472.738 51.6523L472.725 51.5293H476.621L476.648 51.6523C476.908 52.8008 477.77 53.4707 479.369 53.4707C480.873 53.4707 481.789 52.8828 481.789 51.9395V51.9258C481.789 51.1465 481.297 50.6953 479.861 50.3809L477.373 49.8613C474.529 49.2598 473.094 47.8379 473.094 45.6504V45.6367C473.094 42.8477 475.5 41.043 479.232 41.043C483.129 41.043 485.303 43.1074 485.398 45.6777V45.8145H481.721L481.707 45.7051C481.57 44.6523 480.709 43.8594 479.232 43.8594C477.852 43.8594 476.99 44.4746 476.99 45.418V45.4316C476.99 46.1836 477.496 46.6758 478.973 46.9902L481.461 47.5234C484.523 48.166 485.781 49.3691 485.781 51.5293V51.543C485.781 54.4141 483.143 56.3008 479.369 56.3008ZM494.422 56.3008C489.938 56.3008 487.217 53.3887 487.217 48.6992V48.6855C487.217 44.0234 489.965 41.043 494.258 41.043C498.551 41.043 501.244 43.9551 501.244 48.3848V49.6152H491.154C491.195 51.9531 492.467 53.3203 494.504 53.3203C496.145 53.3203 497.143 52.418 497.43 51.5977L497.457 51.5156H501.121L501.08 51.666C500.629 53.8262 498.605 56.3008 494.422 56.3008ZM494.326 44.0234C492.686 44.0234 491.455 45.1172 491.195 47.0996H497.416C497.17 45.0762 495.98 44.0234 494.326 44.0234ZM503.309 56V41.3438H507.301V43.75H507.383C508.135 42.0684 509.639 41.043 511.854 41.043C515.08 41.043 516.912 43.1074 516.912 46.5391V56H512.92V47.3594C512.92 45.4453 512.018 44.3516 510.227 44.3516C508.436 44.3516 507.301 45.6641 507.301 47.5781V56H503.309ZM525.266 56.3008C522.012 56.3008 520.48 55.043 520.48 51.8984V44.3516H518.443V41.3438H520.48V37.7617H524.514V41.3438H527.193V44.3516H524.514V51.4609C524.514 52.8281 525.129 53.293 526.332 53.293C526.688 53.293 526.947 53.252 527.193 53.2246V56.1504C526.742 56.2188 526.1 56.3008 525.266 56.3008ZM209.021 92.3008C205.768 92.3008 204.236 91.043 204.236 87.8984V80.3516H202.199V77.3438H204.236V73.7617H208.27V77.3438H210.949V80.3516H208.27V87.4609C208.27 88.8281 208.885 89.293 210.088 89.293C210.443 89.293 210.703 89.252 210.949 89.2246V92.1504C210.498 92.2188 209.855 92.3008 209.021 92.3008ZM219.658 92.3008C215.201 92.3008 212.398 89.4434 212.398 84.6719V84.6445C212.398 79.9277 215.27 77.043 219.645 77.043C224.033 77.043 226.918 79.9004 226.918 84.6445V84.6719C226.918 89.457 224.088 92.3008 219.658 92.3008ZM219.672 89.1699C221.613 89.1699 222.857 87.5293 222.857 84.6719V84.6445C222.857 81.8145 221.586 80.1738 219.645 80.1738C217.717 80.1738 216.459 81.8145 216.459 84.6445V84.6719C216.459 87.543 217.703 89.1699 219.672 89.1699ZM236.83 96.8262C236.051 96.8262 235.258 96.7305 234.793 96.6484V93.6816C235.08 93.7363 235.545 93.8184 236.133 93.8184C237.322 93.8184 237.979 93.4766 238.334 92.4785L238.512 92L233.33 77.3438H237.719L240.809 88.8008H240.918L244.021 77.3438H248.232L243.201 92.2598C242.053 95.7188 240.084 96.8262 236.83 96.8262ZM255.834 92.3008C251.377 92.3008 248.574 89.4434 248.574 84.6719V84.6445C248.574 79.9277 251.445 77.043 255.82 77.043C260.209 77.043 263.094 79.9004 263.094 84.6445V84.6719C263.094 89.457 260.264 92.3008 255.834 92.3008ZM255.848 89.1699C257.789 89.1699 259.033 87.5293 259.033 84.6719V84.6445C259.033 81.8145 257.762 80.1738 255.82 80.1738C253.893 80.1738 252.635 81.8145 252.635 84.6445V84.6719C252.635 87.543 253.879 89.1699 255.848 89.1699ZM270.148 92.3008C266.922 92.3008 265.09 90.2363 265.09 86.8047V77.3438H269.082V85.9707C269.082 87.8848 269.984 88.9922 271.775 88.9922C273.566 88.9922 274.701 87.6797 274.701 85.7656V77.3438H278.693V92H274.701V89.5801H274.619C273.867 91.2617 272.363 92.3008 270.148 92.3008ZM281.291 92V77.3438H285.283V79.9004H285.365C285.803 78.0957 286.992 77.043 288.701 77.043C289.139 77.043 289.549 77.1113 289.85 77.1934V80.707C289.521 80.5703 288.975 80.4883 288.4 80.4883C286.432 80.4883 285.283 81.6641 285.283 83.7969V92H281.291ZM303.713 92.3008C299.229 92.3008 296.508 89.3887 296.508 84.6992V84.6855C296.508 80.0234 299.256 77.043 303.549 77.043C307.842 77.043 310.535 79.9551 310.535 84.3848V85.6152H300.445C300.486 87.9531 301.758 89.3203 303.795 89.3203C305.436 89.3203 306.434 88.418 306.721 87.5977L306.748 87.5156H310.412L310.371 87.666C309.92 89.8262 307.896 92.3008 303.713 92.3008ZM303.617 80.0234C301.977 80.0234 300.746 81.1172 300.486 83.0996H306.707C306.461 81.0762 305.271 80.0234 303.617 80.0234ZM312.6 92V77.3438H316.592V79.8047H316.674C317.275 78.1367 318.807 77.043 320.775 77.043C322.826 77.043 324.316 78.1367 324.809 80.0645H324.891C325.547 78.2188 327.297 77.043 329.443 77.043C332.314 77.043 334.242 79.0254 334.242 81.9785V92H330.25V82.9766C330.25 81.2812 329.402 80.3516 327.857 80.3516C326.34 80.3516 325.342 81.459 325.342 83.0859V92H321.5V82.8535C321.5 81.2812 320.611 80.3516 319.135 80.3516C317.617 80.3516 316.592 81.5 316.592 83.1543V92H312.6ZM341.133 92.2324C338.193 92.2324 336.211 90.3867 336.211 87.8027V87.7754C336.211 85.1094 338.275 83.5508 341.912 83.3184L345.535 83.0996V82.1973C345.535 80.8984 344.688 80.0918 343.129 80.0918C341.639 80.0918 340.736 80.7891 340.545 81.7324L340.518 81.8555H336.867L336.881 81.6914C337.1 78.9844 339.424 77.043 343.293 77.043C347.08 77.043 349.527 78.998 349.527 81.9512V92H345.535V89.8125H345.453C344.619 91.3164 343.061 92.2324 341.133 92.2324ZM340.162 87.5977C340.162 88.6777 341.051 89.3203 342.432 89.3203C344.223 89.3203 345.535 88.1719 345.535 86.6406V85.5879L342.514 85.7793C340.969 85.875 340.162 86.5312 340.162 87.5703V87.5977ZM354.189 75.457C352.986 75.457 352.057 74.5137 352.057 73.3789C352.057 72.2441 352.986 71.3008 354.189 71.3008C355.393 71.3008 356.322 72.2441 356.322 73.3789C356.322 74.5137 355.393 75.457 354.189 75.457ZM352.193 92V77.3438H356.186V92H352.193ZM358.961 92V72.2715H362.953V92H358.961ZM367.725 92.2324C366.48 92.2324 365.51 91.248 365.51 90.0176C365.51 88.7734 366.48 87.8027 367.725 87.8027C368.955 87.8027 369.939 88.7734 369.939 90.0176C369.939 91.248 368.955 92.2324 367.725 92.2324Z" fill="#262D34"/>
<path d="M60.4697 123.164C57.7285 123.164 55.9648 121.168 55.9648 118.064V118.058C55.9648 114.954 57.7217 112.972 60.4697 112.972C62.5205 112.972 64.1133 114.216 64.4893 116.082L64.5029 116.15H63.2588L63.2109 116C62.8281 114.804 61.8574 114.106 60.4697 114.106C58.501 114.106 57.2295 115.658 57.2295 118.058V118.064C57.2295 120.464 58.5078 122.029 60.4697 122.029C61.8506 122.029 62.8076 121.346 63.2383 120.047L63.2588 119.985H64.5029L64.4893 120.054C64.1133 121.94 62.5342 123.164 60.4697 123.164ZM65.8359 123V113.136H67.0254V117.025H67.0527C67.4355 116.226 68.208 115.754 69.2676 115.754C70.7783 115.754 71.8105 116.923 71.8105 118.646V123H70.6211V118.851C70.6211 117.565 69.9648 116.807 68.8574 116.807C67.7568 116.807 67.0254 117.641 67.0254 118.851V123H65.8359ZM76.2471 123.137C74.2031 123.137 72.9727 121.708 72.9727 119.473V119.466C72.9727 117.265 74.2305 115.754 76.1719 115.754C78.1133 115.754 79.2959 117.196 79.2959 119.329V119.767H74.1758C74.2031 121.229 75.0098 122.084 76.2744 122.084C77.1768 122.084 77.8125 121.633 78.0176 121.024L78.0381 120.963H79.207L79.1934 121.031C78.9609 122.207 77.7988 123.137 76.2471 123.137ZM76.165 116.807C75.1328 116.807 74.3262 117.511 74.1963 118.837H78.0859C77.9697 117.456 77.2041 116.807 76.165 116.807ZM83.4453 123.137C81.4287 123.137 80.1504 121.701 80.1504 119.438V119.432C80.1504 117.189 81.4561 115.754 83.4316 115.754C85.2021 115.754 86.248 116.93 86.3984 118.146L86.4053 118.201H85.2432L85.2295 118.146C85.0518 117.436 84.4775 116.807 83.4316 116.807C82.1943 116.807 81.3672 117.832 81.3672 119.445V119.452C81.3672 121.106 82.2148 122.084 83.4453 122.084C84.416 122.084 85.0381 121.537 85.2363 120.744L85.25 120.689H86.4189L86.4121 120.737C86.2207 122.091 85.0518 123.137 83.4453 123.137ZM87.6084 123V113.136H88.7979V119.028H88.8252L91.9424 115.891H93.3848L90.3018 118.96L93.4805 123H92.0996L89.4609 119.685L88.7979 120.32V123H87.6084ZM97.8623 125.393C97.6299 125.393 97.377 125.365 97.2266 125.338V124.367C97.3291 124.388 97.4658 124.408 97.6094 124.408C98.3613 124.408 98.7783 124.217 99.0654 123.41L99.209 123.007L96.5703 115.891H97.8418L99.8037 121.811H99.8311L101.8 115.891H103.051L100.275 123.444C99.7695 124.805 99.1475 125.393 97.8623 125.393ZM106.66 123.137C104.685 123.137 103.365 121.708 103.365 119.445V119.432C103.365 117.169 104.691 115.754 106.653 115.754C108.615 115.754 109.948 117.162 109.948 119.432V119.445C109.948 121.715 108.622 123.137 106.66 123.137ZM106.667 122.084C107.918 122.084 108.731 121.113 108.731 119.445V119.432C108.731 117.764 107.911 116.807 106.653 116.807C105.416 116.807 104.582 117.771 104.582 119.432V119.445C104.582 121.12 105.409 122.084 106.667 122.084ZM113.578 123.137C112.02 123.137 111.117 122.125 111.117 120.505V115.891H112.307V120.293C112.307 121.448 112.847 122.084 113.94 122.084C115.062 122.084 115.793 121.284 115.793 120.074V115.891H116.982V123H115.793V121.988H115.766C115.383 122.651 114.658 123.137 113.578 123.137ZM118.534 123V115.891H119.724V117.094H119.751C119.99 116.273 120.605 115.754 121.405 115.754C121.61 115.754 121.788 115.788 121.884 115.802V116.957C121.788 116.923 121.535 116.889 121.248 116.889C120.325 116.889 119.724 117.531 119.724 118.611V123H118.534ZM125.726 123V115.891H126.915V116.93H126.942C127.264 116.226 127.975 115.754 128.891 115.754C129.861 115.754 130.579 116.253 130.887 117.121H130.914C131.311 116.267 132.145 115.754 133.143 115.754C134.551 115.754 135.46 116.677 135.46 118.092V123H134.271V118.365C134.271 117.388 133.73 116.807 132.794 116.807C131.851 116.807 131.188 117.511 131.188 118.481V123H129.998V118.235C129.998 117.374 129.424 116.807 128.542 116.807C127.599 116.807 126.915 117.552 126.915 118.543V123H125.726ZM139.056 123.137C137.641 123.137 136.69 122.282 136.69 120.99V120.977C136.69 119.767 137.634 119.008 139.268 118.912L141.305 118.796V118.201C141.305 117.333 140.737 116.807 139.746 116.807C138.83 116.807 138.256 117.244 138.119 117.88L138.105 117.941H136.957L136.964 117.866C137.066 116.697 138.085 115.754 139.76 115.754C141.441 115.754 142.494 116.663 142.494 118.085V123H141.305V121.845H141.277C140.86 122.624 140.006 123.137 139.056 123.137ZM137.907 120.99C137.907 121.674 138.468 122.104 139.322 122.104C140.443 122.104 141.305 121.332 141.305 120.3V119.719L139.404 119.835C138.454 119.89 137.907 120.313 137.907 120.977V120.99ZM144.675 114.688C144.265 114.688 143.93 114.353 143.93 113.942C143.93 113.525 144.265 113.197 144.675 113.197C145.092 113.197 145.42 113.525 145.42 113.942C145.42 114.353 145.092 114.688 144.675 114.688ZM144.08 123V115.891H145.27V123H144.08ZM146.951 123V113.136H148.141V123H146.951ZM153.281 123.137C152.263 123.137 151.47 122.624 151.025 121.797H150.998V123H149.809V113.136H150.998V117.08H151.025C151.47 116.26 152.297 115.754 153.302 115.754C155.086 115.754 156.303 117.196 156.303 119.438V119.445C156.303 121.688 155.1 123.137 153.281 123.137ZM153.049 122.084C154.307 122.084 155.086 121.079 155.086 119.445V119.438C155.086 117.818 154.307 116.807 153.049 116.807C151.853 116.807 150.991 117.853 150.991 119.438V119.445C150.991 121.038 151.846 122.084 153.049 122.084ZM160.445 123.137C158.47 123.137 157.15 121.708 157.15 119.445V119.432C157.15 117.169 158.477 115.754 160.438 115.754C162.4 115.754 163.733 117.162 163.733 119.432V119.445C163.733 121.715 162.407 123.137 160.445 123.137ZM160.452 122.084C161.703 122.084 162.517 121.113 162.517 119.445V119.432C162.517 117.764 161.696 116.807 160.438 116.807C159.201 116.807 158.367 117.771 158.367 119.432V119.445C158.367 121.12 159.194 122.084 160.452 122.084ZM163.904 123L166.324 119.445L163.945 115.891H165.271L166.98 118.557H167.008L168.696 115.891H170.022L167.623 119.397L169.988 123H168.669L166.967 120.293H166.939L165.224 123H163.904ZM175.97 123.137C174.555 123.137 173.604 122.282 173.604 120.99V120.977C173.604 119.767 174.548 119.008 176.182 118.912L178.219 118.796V118.201C178.219 117.333 177.651 116.807 176.66 116.807C175.744 116.807 175.17 117.244 175.033 117.88L175.02 117.941H173.871L173.878 117.866C173.98 116.697 174.999 115.754 176.674 115.754C178.355 115.754 179.408 116.663 179.408 118.085V123H178.219V121.845H178.191C177.774 122.624 176.92 123.137 175.97 123.137ZM174.821 120.99C174.821 121.674 175.382 122.104 176.236 122.104C177.357 122.104 178.219 121.332 178.219 120.3V119.719L176.318 119.835C175.368 119.89 174.821 120.313 174.821 120.977V120.99ZM180.919 123V115.891H182.108V116.902H182.136C182.519 116.239 183.243 115.754 184.323 115.754C185.882 115.754 186.784 116.766 186.784 118.386V123H185.595V118.598C185.595 117.442 185.055 116.807 183.961 116.807C182.84 116.807 182.108 117.606 182.108 118.816V123H180.919ZM190.975 123.137C189.156 123.137 187.953 121.688 187.953 119.445V119.438C187.953 117.196 189.17 115.754 190.954 115.754C191.959 115.754 192.786 116.26 193.23 117.08H193.258V113.136H194.447V123H193.258V121.797H193.23C192.786 122.624 191.993 123.137 190.975 123.137ZM191.207 122.084C192.41 122.084 193.265 121.038 193.265 119.445V119.438C193.265 117.853 192.403 116.807 191.207 116.807C189.949 116.807 189.17 117.818 189.17 119.438V119.445C189.17 121.079 189.949 122.084 191.207 122.084ZM198.925 123V115.891H200.114V116.93H200.142C200.463 116.226 201.174 115.754 202.09 115.754C203.061 115.754 203.778 116.253 204.086 117.121H204.113C204.51 116.267 205.344 115.754 206.342 115.754C207.75 115.754 208.659 116.677 208.659 118.092V123H207.47V118.365C207.47 117.388 206.93 116.807 205.993 116.807C205.05 116.807 204.387 117.511 204.387 118.481V123H203.197V118.235C203.197 117.374 202.623 116.807 201.741 116.807C200.798 116.807 200.114 117.552 200.114 118.543V123H198.925ZM212.255 123.137C210.84 123.137 209.89 122.282 209.89 120.99V120.977C209.89 119.767 210.833 119.008 212.467 118.912L214.504 118.796V118.201C214.504 117.333 213.937 116.807 212.945 116.807C212.029 116.807 211.455 117.244 211.318 117.88L211.305 117.941H210.156L210.163 117.866C210.266 116.697 211.284 115.754 212.959 115.754C214.641 115.754 215.693 116.663 215.693 118.085V123H214.504V121.845H214.477C214.06 122.624 213.205 123.137 212.255 123.137ZM211.106 120.99C211.106 121.674 211.667 122.104 212.521 122.104C213.643 122.104 214.504 121.332 214.504 120.3V119.719L212.604 119.835C211.653 119.89 211.106 120.313 211.106 120.977V120.99ZM217.3 123V113.136H218.489V119.028H218.517L221.634 115.891H223.076L219.993 118.96L223.172 123H221.791L219.152 119.685L218.489 120.32V123H217.3ZM226.583 123.137C224.539 123.137 223.309 121.708 223.309 119.473V119.466C223.309 117.265 224.566 115.754 226.508 115.754C228.449 115.754 229.632 117.196 229.632 119.329V119.767H224.512C224.539 121.229 225.346 122.084 226.61 122.084C227.513 122.084 228.148 121.633 228.354 121.024L228.374 120.963H229.543L229.529 121.031C229.297 122.207 228.135 123.137 226.583 123.137ZM226.501 116.807C225.469 116.807 224.662 117.511 224.532 118.837H228.422C228.306 117.456 227.54 116.807 226.501 116.807ZM236.229 123.137C234.554 123.137 233.542 122.282 233.398 121.011L233.392 120.949H234.581L234.595 121.018C234.738 121.729 235.265 122.146 236.235 122.146C237.199 122.146 237.773 121.742 237.773 121.1V121.093C237.773 120.58 237.507 120.293 236.7 120.095L235.572 119.821C234.232 119.5 233.583 118.878 233.583 117.853V117.846C233.583 116.622 234.656 115.754 236.194 115.754C237.753 115.754 238.744 116.663 238.833 117.853L238.84 117.941H237.705L237.698 117.894C237.603 117.203 237.076 116.745 236.194 116.745C235.333 116.745 234.8 117.162 234.8 117.791V117.798C234.8 118.283 235.121 118.618 235.907 118.81L237.035 119.083C238.471 119.432 238.99 119.999 238.99 121.011V121.018C238.99 122.262 237.814 123.137 236.229 123.137ZM242.654 123.137C241.096 123.137 240.193 122.125 240.193 120.505V115.891H241.383V120.293C241.383 121.448 241.923 122.084 243.017 122.084C244.138 122.084 244.869 121.284 244.869 120.074V115.891H246.059V123H244.869V121.988H244.842C244.459 122.651 243.734 123.137 242.654 123.137ZM247.61 123V115.891H248.8V117.094H248.827C249.066 116.273 249.682 115.754 250.481 115.754C250.687 115.754 250.864 115.788 250.96 115.802V116.957C250.864 116.923 250.611 116.889 250.324 116.889C249.401 116.889 248.8 117.531 248.8 118.611V123H247.61ZM254.515 123.137C252.471 123.137 251.24 121.708 251.24 119.473V119.466C251.24 117.265 252.498 115.754 254.439 115.754C256.381 115.754 257.563 117.196 257.563 119.329V119.767H252.443C252.471 121.229 253.277 122.084 254.542 122.084C255.444 122.084 256.08 121.633 256.285 121.024L256.306 120.963H257.475L257.461 121.031C257.229 122.207 256.066 123.137 254.515 123.137ZM254.433 116.807C253.4 116.807 252.594 117.511 252.464 118.837H256.354C256.237 117.456 255.472 116.807 254.433 116.807ZM263.948 123.137C262.643 123.137 262 122.549 262 121.188V116.875H260.961V115.891H262V113.97H263.23V115.891H264.584V116.875H263.23V121.182C263.23 121.94 263.565 122.152 264.201 122.152C264.345 122.152 264.481 122.132 264.584 122.125V123.089C264.434 123.109 264.181 123.137 263.948 123.137ZM265.924 123V113.136H267.113V117.025H267.141C267.523 116.226 268.296 115.754 269.355 115.754C270.866 115.754 271.898 116.923 271.898 118.646V123H270.709V118.851C270.709 117.565 270.053 116.807 268.945 116.807C267.845 116.807 267.113 117.641 267.113 118.851V123H265.924ZM275.487 123.137C274.072 123.137 273.122 122.282 273.122 120.99V120.977C273.122 119.767 274.065 119.008 275.699 118.912L277.736 118.796V118.201C277.736 117.333 277.169 116.807 276.178 116.807C275.262 116.807 274.688 117.244 274.551 117.88L274.537 117.941H273.389L273.396 117.866C273.498 116.697 274.517 115.754 276.191 115.754C277.873 115.754 278.926 116.663 278.926 118.085V123H277.736V121.845H277.709C277.292 122.624 276.438 123.137 275.487 123.137ZM274.339 120.99C274.339 121.674 274.899 122.104 275.754 122.104C276.875 122.104 277.736 121.332 277.736 120.3V119.719L275.836 119.835C274.886 119.89 274.339 120.313 274.339 120.977V120.99ZM282.747 123.137C281.441 123.137 280.799 122.549 280.799 121.188V116.875H279.76V115.891H280.799V113.97H282.029V115.891H283.383V116.875H282.029V121.182C282.029 121.94 282.364 122.152 283 122.152C283.144 122.152 283.28 122.132 283.383 122.125V123.089C283.232 123.109 282.979 123.137 282.747 123.137ZM288.202 114.688C287.792 114.688 287.457 114.353 287.457 113.942C287.457 113.525 287.792 113.197 288.202 113.197C288.619 113.197 288.947 113.525 288.947 113.942C288.947 114.353 288.619 114.688 288.202 114.688ZM287.607 123V115.891H288.797V123H287.607ZM292.728 123.137C291.422 123.137 290.779 122.549 290.779 121.188V116.875H289.74V115.891H290.779V113.97H292.01V115.891H293.363V116.875H292.01V121.182C292.01 121.94 292.345 122.152 292.98 122.152C293.124 122.152 293.261 122.132 293.363 122.125V123.089C293.213 123.109 292.96 123.137 292.728 123.137ZM298.183 114.688C297.772 114.688 297.438 114.353 297.438 113.942C297.438 113.525 297.772 113.197 298.183 113.197C298.6 113.197 298.928 113.525 298.928 113.942C298.928 114.353 298.6 114.688 298.183 114.688ZM297.588 123V115.891H298.777V123H297.588ZM302.92 123.137C301.245 123.137 300.233 122.282 300.09 121.011L300.083 120.949H301.272L301.286 121.018C301.43 121.729 301.956 122.146 302.927 122.146C303.891 122.146 304.465 121.742 304.465 121.1V121.093C304.465 120.58 304.198 120.293 303.392 120.095L302.264 119.821C300.924 119.5 300.274 118.878 300.274 117.853V117.846C300.274 116.622 301.348 115.754 302.886 115.754C304.444 115.754 305.436 116.663 305.524 117.853L305.531 117.941H304.396L304.39 117.894C304.294 117.203 303.768 116.745 302.886 116.745C302.024 116.745 301.491 117.162 301.491 117.791V117.798C301.491 118.283 301.812 118.618 302.599 118.81L303.727 119.083C305.162 119.432 305.682 119.999 305.682 121.011V121.018C305.682 122.262 304.506 123.137 302.92 123.137ZM310.474 125.393C310.241 125.393 309.988 125.365 309.838 125.338V124.367C309.94 124.388 310.077 124.408 310.221 124.408C310.973 124.408 311.39 124.217 311.677 123.41L311.82 123.007L309.182 115.891H310.453L312.415 121.811H312.442L314.411 115.891H315.662L312.887 123.444C312.381 124.805 311.759 125.393 310.474 125.393ZM319.271 123.137C317.296 123.137 315.977 121.708 315.977 119.445V119.432C315.977 117.169 317.303 115.754 319.265 115.754C321.227 115.754 322.56 117.162 322.56 119.432V119.445C322.56 121.715 321.233 123.137 319.271 123.137ZM319.278 122.084C320.529 122.084 321.343 121.113 321.343 119.445V119.432C321.343 117.764 320.522 116.807 319.265 116.807C318.027 116.807 317.193 117.771 317.193 119.432V119.445C317.193 121.12 318.021 122.084 319.278 122.084ZM326.189 123.137C324.631 123.137 323.729 122.125 323.729 120.505V115.891H324.918V120.293C324.918 121.448 325.458 122.084 326.552 122.084C327.673 122.084 328.404 121.284 328.404 120.074V115.891H329.594V123H328.404V121.988H328.377C327.994 122.651 327.27 123.137 326.189 123.137ZM336.963 123.137C334.987 123.137 333.668 121.708 333.668 119.445V119.432C333.668 117.169 334.994 115.754 336.956 115.754C338.918 115.754 340.251 117.162 340.251 119.432V119.445C340.251 121.715 338.925 123.137 336.963 123.137ZM336.97 122.084C338.221 122.084 339.034 121.113 339.034 119.445V119.432C339.034 117.764 338.214 116.807 336.956 116.807C335.719 116.807 334.885 117.771 334.885 119.432V119.445C334.885 121.12 335.712 122.084 336.97 122.084ZM341.454 123V115.891H342.644V117.094H342.671C342.91 116.273 343.525 115.754 344.325 115.754C344.53 115.754 344.708 115.788 344.804 115.802V116.957C344.708 116.923 344.455 116.889 344.168 116.889C343.245 116.889 342.644 117.531 342.644 118.611V123H341.454ZM348.646 123V115.891H349.835V116.902H349.862C350.245 116.239 350.97 115.754 352.05 115.754C353.608 115.754 354.511 116.766 354.511 118.386V123H353.321V118.598C353.321 117.442 352.781 116.807 351.688 116.807C350.566 116.807 349.835 117.606 349.835 118.816V123H348.646ZM358.975 123.137C356.999 123.137 355.68 121.708 355.68 119.445V119.432C355.68 117.169 357.006 115.754 358.968 115.754C360.93 115.754 362.263 117.162 362.263 119.432V119.445C362.263 121.715 360.937 123.137 358.975 123.137ZM358.981 122.084C360.232 122.084 361.046 121.113 361.046 119.445V119.432C361.046 117.764 360.226 116.807 358.968 116.807C357.73 116.807 356.896 117.771 356.896 119.432V119.445C356.896 121.12 357.724 122.084 358.981 122.084ZM365.776 123.137C364.471 123.137 363.828 122.549 363.828 121.188V116.875H362.789V115.891H363.828V113.97H365.059V115.891H366.412V116.875H365.059V121.182C365.059 121.94 365.394 122.152 366.029 122.152C366.173 122.152 366.31 122.132 366.412 122.125V123.089C366.262 123.109 366.009 123.137 365.776 123.137ZM367.212 124.935L367.813 121.592H369.058L368.06 124.935H367.212ZM374.964 123.137C373.549 123.137 372.599 122.282 372.599 120.99V120.977C372.599 119.767 373.542 119.008 375.176 118.912L377.213 118.796V118.201C377.213 117.333 376.646 116.807 375.654 116.807C374.738 116.807 374.164 117.244 374.027 117.88L374.014 117.941H372.865L372.872 117.866C372.975 116.697 373.993 115.754 375.668 115.754C377.35 115.754 378.402 116.663 378.402 118.085V123H377.213V121.845H377.186C376.769 122.624 375.914 123.137 374.964 123.137ZM373.815 120.99C373.815 121.674 374.376 122.104 375.23 122.104C376.352 122.104 377.213 121.332 377.213 120.3V119.719L375.312 119.835C374.362 119.89 373.815 120.313 373.815 120.977V120.99ZM379.913 123V115.891H381.103V116.902H381.13C381.513 116.239 382.237 115.754 383.317 115.754C384.876 115.754 385.778 116.766 385.778 118.386V123H384.589V118.598C384.589 117.442 384.049 116.807 382.955 116.807C381.834 116.807 381.103 117.606 381.103 118.816V123H379.913ZM389.969 123.137C388.15 123.137 386.947 121.688 386.947 119.445V119.438C386.947 117.196 388.164 115.754 389.948 115.754C390.953 115.754 391.78 116.26 392.225 117.08H392.252V113.136H393.441V123H392.252V121.797H392.225C391.78 122.624 390.987 123.137 389.969 123.137ZM390.201 122.084C391.404 122.084 392.259 121.038 392.259 119.445V119.438C392.259 117.853 391.397 116.807 390.201 116.807C388.943 116.807 388.164 117.818 388.164 119.438V119.445C388.164 121.079 388.943 122.084 390.201 122.084ZM397.919 123V115.891H399.108V117.094H399.136C399.375 116.273 399.99 115.754 400.79 115.754C400.995 115.754 401.173 115.788 401.269 115.802V116.957C401.173 116.923 400.92 116.889 400.633 116.889C399.71 116.889 399.108 117.531 399.108 118.611V123H397.919ZM404.823 123.137C402.779 123.137 401.549 121.708 401.549 119.473V119.466C401.549 117.265 402.807 115.754 404.748 115.754C406.689 115.754 407.872 117.196 407.872 119.329V119.767H402.752C402.779 121.229 403.586 122.084 404.851 122.084C405.753 122.084 406.389 121.633 406.594 121.024L406.614 120.963H407.783L407.77 121.031C407.537 122.207 406.375 123.137 404.823 123.137ZM404.741 116.807C403.709 116.807 402.902 117.511 402.772 118.837H406.662C406.546 117.456 405.78 116.807 404.741 116.807ZM411.598 123.137C409.923 123.137 408.911 122.282 408.768 121.011L408.761 120.949H409.95L409.964 121.018C410.107 121.729 410.634 122.146 411.604 122.146C412.568 122.146 413.143 121.742 413.143 121.1V121.093C413.143 120.58 412.876 120.293 412.069 120.095L410.941 119.821C409.602 119.5 408.952 118.878 408.952 117.853V117.846C408.952 116.622 410.025 115.754 411.563 115.754C413.122 115.754 414.113 116.663 414.202 117.853L414.209 117.941H413.074L413.067 117.894C412.972 117.203 412.445 116.745 411.563 116.745C410.702 116.745 410.169 117.162 410.169 117.791V117.798C410.169 118.283 410.49 118.618 411.276 118.81L412.404 119.083C413.84 119.432 414.359 119.999 414.359 121.011V121.018C414.359 122.262 413.184 123.137 411.598 123.137ZM418.522 123.137C416.479 123.137 415.248 121.708 415.248 119.473V119.466C415.248 117.265 416.506 115.754 418.447 115.754C420.389 115.754 421.571 117.196 421.571 119.329V119.767H416.451C416.479 121.229 417.285 122.084 418.55 122.084C419.452 122.084 420.088 121.633 420.293 121.024L420.313 120.963H421.482L421.469 121.031C421.236 122.207 420.074 123.137 418.522 123.137ZM418.44 116.807C417.408 116.807 416.602 117.511 416.472 118.837H420.361C420.245 117.456 419.479 116.807 418.44 116.807ZM425.085 123.137C423.779 123.137 423.137 122.549 423.137 121.188V116.875H422.098V115.891H423.137V113.97H424.367V115.891H425.721V116.875H424.367V121.182C424.367 121.94 424.702 122.152 425.338 122.152C425.481 122.152 425.618 122.132 425.721 122.125V123.089C425.57 123.109 425.317 123.137 425.085 123.137ZM430.554 125.393C430.321 125.393 430.068 125.365 429.918 125.338V124.367C430.021 124.388 430.157 124.408 430.301 124.408C431.053 124.408 431.47 124.217 431.757 123.41L431.9 123.007L429.262 115.891H430.533L432.495 121.811H432.522L434.491 115.891H435.742L432.967 123.444C432.461 124.805 431.839 125.393 430.554 125.393ZM439.352 123.137C437.376 123.137 436.057 121.708 436.057 119.445V119.432C436.057 117.169 437.383 115.754 439.345 115.754C441.307 115.754 442.64 117.162 442.64 119.432V119.445C442.64 121.715 441.313 123.137 439.352 123.137ZM439.358 122.084C440.609 122.084 441.423 121.113 441.423 119.445V119.432C441.423 117.764 440.603 116.807 439.345 116.807C438.107 116.807 437.273 117.771 437.273 119.432V119.445C437.273 121.12 438.101 122.084 439.358 122.084ZM446.27 123.137C444.711 123.137 443.809 122.125 443.809 120.505V115.891H444.998V120.293C444.998 121.448 445.538 122.084 446.632 122.084C447.753 122.084 448.484 121.284 448.484 120.074V115.891H449.674V123H448.484V121.988H448.457C448.074 122.651 447.35 123.137 446.27 123.137ZM451.226 123V115.891H452.415V117.094H452.442C452.682 116.273 453.297 115.754 454.097 115.754C454.302 115.754 454.479 115.788 454.575 115.802V116.957C454.479 116.923 454.227 116.889 453.939 116.889C453.017 116.889 452.415 117.531 452.415 118.611V123H451.226ZM458.417 125.393V115.891H459.606V117.094H459.634C460.078 116.267 460.871 115.754 461.89 115.754C463.708 115.754 464.911 117.203 464.911 119.445V119.452C464.911 121.694 463.694 123.137 461.91 123.137C460.905 123.137 460.078 122.631 459.634 121.811H459.606V125.393H458.417ZM461.657 122.084C462.915 122.084 463.694 121.072 463.694 119.452V119.445C463.694 117.812 462.915 116.807 461.657 116.807C460.454 116.807 459.6 117.853 459.6 119.445V119.452C459.6 121.038 460.461 122.084 461.657 122.084ZM468.192 123.137C466.777 123.137 465.827 122.282 465.827 120.99V120.977C465.827 119.767 466.771 119.008 468.404 118.912L470.441 118.796V118.201C470.441 117.333 469.874 116.807 468.883 116.807C467.967 116.807 467.393 117.244 467.256 117.88L467.242 117.941H466.094L466.101 117.866C466.203 116.697 467.222 115.754 468.896 115.754C470.578 115.754 471.631 116.663 471.631 118.085V123H470.441V121.845H470.414C469.997 122.624 469.143 123.137 468.192 123.137ZM467.044 120.99C467.044 121.674 467.604 122.104 468.459 122.104C469.58 122.104 470.441 121.332 470.441 120.3V119.719L468.541 119.835C467.591 119.89 467.044 120.313 467.044 120.977V120.99ZM475.664 123.137C473.989 123.137 472.978 122.282 472.834 121.011L472.827 120.949H474.017L474.03 121.018C474.174 121.729 474.7 122.146 475.671 122.146C476.635 122.146 477.209 121.742 477.209 121.1V121.093C477.209 120.58 476.942 120.293 476.136 120.095L475.008 119.821C473.668 119.5 473.019 118.878 473.019 117.853V117.846C473.019 116.622 474.092 115.754 475.63 115.754C477.188 115.754 478.18 116.663 478.269 117.853L478.275 117.941H477.141L477.134 117.894C477.038 117.203 476.512 116.745 475.63 116.745C474.769 116.745 474.235 117.162 474.235 117.791V117.798C474.235 118.283 474.557 118.618 475.343 118.81L476.471 119.083C477.906 119.432 478.426 119.999 478.426 121.011V121.018C478.426 122.262 477.25 123.137 475.664 123.137ZM482.186 123.137C480.511 123.137 479.499 122.282 479.355 121.011L479.349 120.949H480.538L480.552 121.018C480.695 121.729 481.222 122.146 482.192 122.146C483.156 122.146 483.73 121.742 483.73 121.1V121.093C483.73 120.58 483.464 120.293 482.657 120.095L481.529 119.821C480.189 119.5 479.54 118.878 479.54 117.853V117.846C479.54 116.622 480.613 115.754 482.151 115.754C483.71 115.754 484.701 116.663 484.79 117.853L484.797 117.941H483.662L483.655 117.894C483.56 117.203 483.033 116.745 482.151 116.745C481.29 116.745 480.757 117.162 480.757 117.791V117.798C480.757 118.283 481.078 118.618 481.864 118.81L482.992 119.083C484.428 119.432 484.947 119.999 484.947 121.011V121.018C484.947 122.262 483.771 123.137 482.186 123.137ZM487.593 123L485.604 115.891H486.786L488.208 121.674H488.235L489.842 115.891H490.99L492.604 121.674H492.631L494.053 115.891H495.229L493.246 123H492.036L490.43 117.497H490.402L488.803 123H487.593ZM499.152 123.137C497.177 123.137 495.857 121.708 495.857 119.445V119.432C495.857 117.169 497.184 115.754 499.146 115.754C501.107 115.754 502.44 117.162 502.44 119.432V119.445C502.44 121.715 501.114 123.137 499.152 123.137ZM499.159 122.084C500.41 122.084 501.224 121.113 501.224 119.445V119.432C501.224 117.764 500.403 116.807 499.146 116.807C497.908 116.807 497.074 117.771 497.074 119.432V119.445C497.074 121.12 497.901 122.084 499.159 122.084ZM503.644 123V115.891H504.833V117.094H504.86C505.1 116.273 505.715 115.754 506.515 115.754C506.72 115.754 506.897 115.788 506.993 115.802V116.957C506.897 116.923 506.645 116.889 506.357 116.889C505.435 116.889 504.833 117.531 504.833 118.611V123H503.644ZM510.295 123.137C508.477 123.137 507.273 121.688 507.273 119.445V119.438C507.273 117.196 508.49 115.754 510.274 115.754C511.279 115.754 512.106 116.26 512.551 117.08H512.578V113.136H513.768V123H512.578V121.797H512.551C512.106 122.624 511.313 123.137 510.295 123.137ZM510.527 122.084C511.73 122.084 512.585 121.038 512.585 119.445V119.438C512.585 117.853 511.724 116.807 510.527 116.807C509.27 116.807 508.49 117.818 508.49 119.438V119.445C508.49 121.079 509.27 122.084 510.527 122.084ZM516.105 123.096C515.668 123.096 515.326 122.754 515.326 122.316C515.326 121.879 515.668 121.537 516.105 121.537C516.543 121.537 516.885 121.879 516.885 122.316C516.885 122.754 516.543 123.096 516.105 123.096Z" fill="#262D34"/>
<path d="M193.856 626.003H309.806H435.283C481.051 626.003 507.565 574.253 480.771 537.217C464.587 514.848 467.14 484.046 486.786 464.634L495.475 456.049C532.034 419.926 518.69 358.139 470.468 340.257L300.21 277.122C273.293 267.141 244.18 285.214 241.249 313.725C238.841 337.139 218.332 354.472 194.797 352.982L183.198 352.248C150.948 350.206 123.668 375.762 123.668 408.015V430.718C123.668 448.492 117.383 465.892 106.13 479.666C78.2185 513.835 83.0332 564.636 117.371 592.367L131.939 604.132C149.46 618.283 171.317 626.003 193.856 626.003Z" fill="#E4F1EF"/>
<path d="M460.648 278.685C460.648 277.489 461.609 276.519 462.795 276.519H523.637C524.823 276.519 525.784 277.489 525.784 278.685V320.665C525.784 321.861 524.823 322.831 523.637 322.831H462.795C461.609 322.831 460.648 321.861 460.648 320.665V278.685Z" fill="white"/>
<path fill-rule="evenodd" clip-rule="evenodd" d="M459.932 278.685C459.932 277.09 461.214 275.797 462.795 275.797H523.637C525.218 275.797 526.5 277.09 526.5 278.685V320.665C526.5 322.26 525.218 323.553 523.637 323.553H462.795C461.214 323.553 459.932 322.26 459.932 320.665V278.685ZM462.795 277.241C462.005 277.241 461.364 277.888 461.364 278.685V320.665C461.364 321.462 462.005 322.109 462.795 322.109H523.637C524.428 322.109 525.068 321.462 525.068 320.665V278.685C525.068 277.888 524.428 277.241 523.637 277.241H462.795Z" fill="#396961"/>
<path d="M462.715 322.831H523.717C524.397 322.831 524.694 321.965 524.16 321.541L494.544 298.036C493.765 297.418 492.667 297.418 491.888 298.036L462.272 321.541C461.738 321.965 462.035 322.831 462.715 322.831Z" fill="white"/>
<path fill-rule="evenodd" clip-rule="evenodd" d="M494.101 298.604C493.582 298.192 492.85 298.192 492.331 298.604L462.715 322.109H523.717L494.101 298.604ZM491.445 297.469C492.484 296.645 493.948 296.645 494.987 297.469L524.602 320.974C525.67 321.822 525.076 323.553 523.717 323.553H462.715C461.356 323.553 460.762 321.822 461.83 320.974L491.445 297.469Z" fill="#396961"/>
<path d="M523.841 276.519H462.591C461.925 276.519 461.62 277.355 462.126 277.791L491.823 303.324C492.626 304.014 493.806 304.014 494.609 303.324L524.306 277.791C524.812 277.355 524.507 276.519 523.841 276.519Z" fill="#396961"/>
<path fill-rule="evenodd" clip-rule="evenodd" d="M461.662 278.34C460.649 277.469 461.26 275.797 462.591 275.797H523.841C525.172 275.797 525.783 277.469 524.77 278.34L495.073 303.873C494.003 304.793 492.429 304.793 491.359 303.873L461.662 278.34ZM523.841 277.241L462.591 277.241L492.287 302.774C492.822 303.234 493.61 303.234 494.145 302.774L523.841 277.241Z" fill="#396961"/>
<path d="M454.657 392.133C454.657 391.3 455.347 390.624 456.197 390.624H499.845C500.696 390.624 501.385 391.3 501.385 392.133V421.392C501.385 422.226 500.696 422.901 499.845 422.901H456.197C455.347 422.901 454.657 422.226 454.657 421.392V392.133Z" fill="white"/>
<path fill-rule="evenodd" clip-rule="evenodd" d="M454.143 392.133C454.143 391.022 455.063 390.121 456.197 390.121H499.845C500.979 390.121 501.899 391.022 501.899 392.133V421.392C501.899 422.504 500.979 423.405 499.845 423.405H456.197C455.063 423.405 454.143 422.504 454.143 421.392V392.133ZM456.197 391.127C455.63 391.127 455.17 391.578 455.17 392.133V421.392C455.17 421.948 455.63 422.398 456.197 422.398H499.845C500.412 422.398 500.872 421.948 500.872 421.392V392.133C500.872 391.578 500.412 391.127 499.845 391.127H456.197Z" fill="#396961"/>
<path d="M456.14 422.901H499.902C500.39 422.901 500.603 422.298 500.22 422.003L478.974 405.621C478.415 405.19 477.627 405.19 477.069 405.621L455.822 422.003C455.439 422.298 455.652 422.901 456.14 422.901Z" fill="white"/>
<path fill-rule="evenodd" clip-rule="evenodd" d="M478.656 406.016C478.284 405.729 477.759 405.729 477.386 406.016L456.14 422.398H499.902L478.656 406.016ZM476.751 405.225C477.496 404.65 478.546 404.65 479.291 405.225L500.537 421.607C501.304 422.198 500.877 423.405 499.902 423.405H456.14C455.165 423.405 454.739 422.198 455.505 421.607L476.751 405.225Z" fill="#396961"/>
<path d="M499.991 390.624H456.051C455.573 390.624 455.354 391.206 455.718 391.51L477.022 409.306C477.598 409.787 478.445 409.787 479.021 409.306L500.324 391.51C500.688 391.206 500.469 390.624 499.991 390.624Z" fill="#396961"/>
<path fill-rule="evenodd" clip-rule="evenodd" d="M455.385 391.893C454.658 391.286 455.096 390.121 456.051 390.121H499.991C500.946 390.121 501.384 391.286 500.658 391.893L479.354 409.689C478.586 410.33 477.456 410.33 476.689 409.689L455.385 391.893ZM499.991 391.127L456.051 391.127L477.355 408.923C477.739 409.243 478.303 409.243 478.687 408.923L499.991 391.127Z" fill="#396961"/>
<path d="M186.424 222.254C186.424 212.663 194.199 204.888 203.79 204.888H401.353C410.943 204.888 418.718 212.663 418.718 222.254V608.555C418.718 618.145 410.943 625.92 401.353 625.92H203.79C194.199 625.92 186.424 618.145 186.424 608.555V222.254Z" fill="white"/>
<path fill-rule="evenodd" clip-rule="evenodd" d="M184.977 222.254C184.977 211.864 193.4 203.441 203.79 203.441H401.353C411.743 203.441 420.165 211.864 420.165 222.254V608.555C420.165 618.945 411.743 627.367 401.353 627.367H203.79C193.4 627.367 184.977 618.945 184.977 608.555V222.254ZM203.79 206.335C194.999 206.335 187.872 213.462 187.872 222.254V608.555C187.872 617.346 194.999 624.473 203.79 624.473H401.353C410.144 624.473 417.271 617.346 417.271 608.555V222.254C417.271 213.462 410.144 206.335 401.353 206.335H203.79Z" fill="#396961"/>
<path d="M256.381 219.004L248.853 204.887H356.289L347.438 219.639C344.822 223.998 340.112 226.665 335.029 226.665H269.15C263.806 226.665 258.897 223.719 256.381 219.004Z" fill="#396961"/>
<path d="M415.87 213.598H187.793C195.342 206.049 202.553 204.645 205.215 204.887H398.448C407.739 204.887 413.934 210.695 415.87 213.598Z" fill="#396961"/>
<path d="M415.759 617.664H189.384C197.229 625.336 201.764 626.762 204.53 626.516H400.613C410.269 626.516 413.747 620.615 415.759 617.664Z" fill="#396961"/>
<path d="M212.473 295.149C212.473 292.751 214.417 290.808 216.814 290.808H370.21H377.578C381.874 290.808 383.56 296.379 379.986 298.761L372.143 303.99C370.935 304.795 370.21 306.151 370.21 307.602V319.75V344.351C370.21 346.749 368.266 348.693 365.869 348.693H216.814C214.417 348.693 212.473 346.749 212.473 344.351V295.149Z" fill="#E4F1EF"/>
<path d="M229.838 310.344C229.838 309.145 230.81 308.173 232.009 308.173H350.674C351.873 308.173 352.844 309.145 352.844 310.344C352.844 311.543 351.873 312.515 350.674 312.515H232.009C230.81 312.515 229.838 311.543 229.838 310.344Z" fill="white"/>
<path d="M229.838 329.157C229.838 327.958 230.81 326.986 232.009 326.986H288.447C289.646 326.986 290.618 327.958 290.618 329.157C290.618 330.355 289.646 331.327 288.447 331.327H232.009C230.81 331.327 229.838 330.355 229.838 329.157Z" fill="white"/>
<path d="M232.733 371.847H389.023C391.42 371.847 393.364 373.791 393.364 376.188V425.391C393.364 427.788 391.42 429.732 389.023 429.732H237.074C234.676 429.732 232.733 427.788 232.733 425.391V388.552C232.733 387.15 232.056 385.835 230.915 385.02L223.497 379.721C220.06 377.266 221.797 371.847 226.02 371.847H232.733Z" fill="#E4F1EF"/>
<path d="M252.992 392.83C252.992 391.631 253.964 390.66 255.163 390.66H373.828C375.027 390.66 375.999 391.631 375.999 392.83C375.999 394.029 375.027 395.001 373.828 395.001H255.163C253.964 395.001 252.992 394.029 252.992 392.83Z" fill="white"/>
<path d="M212.473 457.228C212.473 454.83 214.417 452.886 216.814 452.886H370.21H377.578C381.874 452.886 383.56 458.457 379.986 460.84L372.143 466.069C370.935 466.874 370.21 468.229 370.21 469.681V481.829V506.43C370.21 508.828 368.266 510.771 365.869 510.771H216.814C214.417 510.771 212.473 508.828 212.473 506.43V457.228Z" fill="#E4F1EF"/>
<path d="M232.733 473.87C232.733 472.671 233.704 471.699 234.903 471.699H353.568C354.767 471.699 355.739 472.671 355.739 473.87C355.739 475.068 354.767 476.04 353.568 476.04H234.903C233.704 476.04 232.733 475.068 232.733 473.87Z" fill="white"/>
<path d="M252.992 411.643C252.992 410.444 253.964 409.472 255.163 409.472H311.601C312.8 409.472 313.772 410.444 313.772 411.643C313.772 412.842 312.8 413.814 311.601 413.814H255.163C253.964 413.814 252.992 412.842 252.992 411.643Z" fill="white"/>
<path d="M232.733 533.925H389.023C391.42 533.925 393.364 535.869 393.364 538.267V587.469C393.364 589.867 391.42 591.811 389.023 591.811H237.074C234.676 591.811 232.733 589.867 232.733 587.469V550.534C232.733 549.187 232.107 547.915 231.038 547.093L224.037 541.708C220.751 539.18 222.539 533.925 226.684 533.925H232.733Z" fill="#E4F1EF"/>
<path d="M251.545 553.462C251.545 552.263 252.517 551.291 253.716 551.291H372.381C373.58 551.291 374.551 552.263 374.551 553.462C374.551 554.661 373.58 555.632 372.381 555.632H253.716C252.517 555.632 251.545 554.661 251.545 553.462Z" fill="white"/>
<path d="M232.733 492.682C232.733 491.483 233.704 490.512 234.903 490.512H323.178C324.377 490.512 325.349 491.483 325.349 492.682C325.349 493.881 324.377 494.853 323.178 494.853H234.903C233.704 494.853 232.733 493.881 232.733 492.682Z" fill="white"/>
<path d="M213.057 262.468C213.057 260.071 215.001 258.127 217.398 258.127H291.572C293.97 258.127 295.913 260.071 295.913 262.468V262.663C295.913 265.061 293.97 267.004 291.572 267.004H217.398C215.001 267.004 213.057 265.061 213.057 262.663V262.468Z" fill="#396961"/>
<path fill-rule="evenodd" clip-rule="evenodd" d="M402.41 225.576V237.413H399.516V225.576H402.41Z" fill="#396961"/>
<path fill-rule="evenodd" clip-rule="evenodd" d="M395.012 227.056V237.413H392.118V227.056H395.012Z" fill="#396961"/>
<path fill-rule="evenodd" clip-rule="evenodd" d="M387.615 230.015V237.413H384.72V230.015H387.615Z" fill="#396961"/>
<path fill-rule="evenodd" clip-rule="evenodd" d="M380.217 232.974V237.413H377.322V232.974H380.217Z" fill="#396961"/>
<path d="M251.545 572.274C251.545 571.076 252.517 570.104 253.716 570.104H266.74C267.939 570.104 268.911 571.076 268.911 572.274C268.911 573.473 267.939 574.445 266.74 574.445H253.716C252.517 574.445 251.545 573.473 251.545 572.274Z" fill="white"/>
<path d="M119.495 253.016L120.233 264.596C120.278 265.3 119.926 265.973 119.32 266.34L111.618 271.003C109.961 272.006 110.691 274.548 112.624 274.507L121.774 274.311C122.442 274.296 123.066 274.635 123.416 275.203L128.646 283.68C129.629 285.274 132.089 284.607 132.146 282.731L132.457 272.351C132.475 271.741 132.787 271.177 133.293 270.834L140.209 266.163C141.767 265.111 141.015 262.685 139.138 262.71L130.993 262.821C130.339 262.829 129.728 262.5 129.378 261.949L122.98 251.87C121.933 250.221 119.371 251.064 119.495 253.016Z" fill="#E4F1EF"/>
<path d="M109.406 326.584L105.353 329.832C105.107 330.03 104.77 330.074 104.48 329.946L100.79 328.324C99.9967 327.975 99.2531 328.896 99.7655 329.594L102.191 332.896C102.368 333.137 102.404 333.453 102.286 333.727L100.526 337.823C100.195 338.593 101.072 339.323 101.774 338.861L105.657 336.305C105.885 336.155 106.171 336.124 106.427 336.221L109.917 337.553C110.703 337.854 111.399 336.954 110.907 336.273L108.771 333.317C108.6 333.08 108.563 332.772 108.675 332.502L110.722 327.565C111.057 326.758 110.089 326.036 109.406 326.584Z" fill="#E4F1EF"/>
<path fill-rule="evenodd" clip-rule="evenodd" d="M347.549 326.273C345.637 328.169 343.832 330.138 342.132 332.169L339.019 329.563C340.797 327.437 342.687 325.376 344.689 323.391L347.549 326.273ZM337.281 338.539C335.751 340.751 334.334 343.018 333.03 345.327L329.495 343.33C330.859 340.915 332.341 338.544 333.941 336.23L337.281 338.539ZM359.899 316.111C357.663 317.627 355.526 319.228 353.487 320.905L350.908 317.77C353.043 316.013 355.28 314.337 357.621 312.75L359.899 316.111ZM329.409 352.473C328.303 354.926 327.315 357.412 326.446 359.918L322.61 358.588C323.519 355.967 324.551 353.368 325.709 350.803L329.409 352.473ZM373.915 308.369C371.429 309.464 369.034 310.652 366.728 311.924L364.766 308.37C367.178 307.039 369.681 305.797 372.277 304.653L373.915 308.369ZM324.17 367.599C323.523 370.213 323.003 372.835 322.609 375.451L318.594 374.847C319.007 372.106 319.551 369.36 320.228 366.624L324.17 367.599ZM389.073 303.181C386.43 303.848 383.865 304.609 381.38 305.457L380.068 301.615C382.659 300.73 385.33 299.938 388.08 299.244L389.073 303.181ZM321.799 383.406C321.728 384.744 321.691 386.075 321.688 387.399C321.684 388.939 321.713 390.413 321.773 391.822L317.716 391.994C317.654 390.521 317.623 388.986 317.627 387.389C317.631 385.996 317.67 384.597 317.744 383.192L321.799 383.406ZM400.929 300.914C399.583 301.093 398.254 301.296 396.942 301.52L396.257 297.518C397.618 297.285 398.997 297.075 400.393 296.889L400.929 300.914ZM322.63 400.507C323.165 403.753 323.901 406.505 324.775 408.827L320.975 410.256C319.995 407.651 319.195 404.637 318.624 401.167L322.63 400.507ZM325.995 416.718C324.205 417.884 322.404 419.383 320.656 421.28L317.671 418.528C319.639 416.392 321.697 414.672 323.779 413.316L325.995 416.718ZM316.369 426.991C315.76 427.979 315.166 429.033 314.591 430.154C314.065 431.179 313.594 432.214 313.174 433.257L309.408 431.74C309.873 430.584 310.395 429.437 310.978 428.301C311.6 427.088 312.246 425.942 312.913 424.86L316.369 426.991ZM311.198 439.783C310.723 442.042 310.446 444.318 310.337 446.586L306.281 446.39C306.4 443.924 306.702 441.433 307.225 438.948L311.198 439.783ZM338.96 413.28C337.013 413.05 334.719 413.18 332.26 413.857L331.183 409.942C334.131 409.131 336.953 408.954 339.437 409.248L338.96 413.28ZM328.836 415.961C330.892 418.327 333.139 419.567 335.251 420.087L334.28 424.03C331.32 423.3 328.353 421.595 325.772 418.625L328.836 415.961ZM310.493 453.485C310.704 455.82 311.064 458.116 311.537 460.346L307.565 461.188C307.061 458.815 306.676 456.359 306.45 453.85L310.493 453.485ZM344.694 417.029C344.866 416.618 344.85 416.174 344.363 415.582L347.499 413.003C348.76 414.537 349.294 416.552 348.44 418.595C347.716 420.327 346.232 421.752 344.483 422.74L342.485 419.205C343.701 418.518 344.415 417.696 344.694 417.029ZM313.344 467.078C314.098 469.399 314.943 471.59 315.827 473.608L312.107 475.236C311.173 473.102 310.279 470.787 309.482 468.332L313.344 467.078ZM318.944 479.834C319.571 480.93 320.182 481.911 320.755 482.762L317.388 485.031C316.755 484.091 316.092 483.026 315.42 481.851L318.944 479.834Z" fill="#396961"/>
<path fill-rule="evenodd" clip-rule="evenodd" d="M423.161 281.514L437.052 294.249L427.163 306.935L423.961 304.438L430.159 296.488C427.751 296.514 425.391 296.608 423.079 296.767L422.801 292.716C424.858 292.575 426.949 292.484 429.075 292.444L420.417 284.507L423.161 281.514Z" fill="#396961"/>
<path d="M151.844 378.022C132.312 391.9 140.521 416.574 144.201 426.135L142.589 445.644C144.258 451.786 150.315 464.07 161.186 464.07C172.056 464.07 177.038 453.584 178.17 448.341L176.472 433.537C189.21 428.91 190.059 410.405 189.21 395.601C188.202 378.022 169.048 365.797 151.844 378.022Z" fill="white"/>
<path fill-rule="evenodd" clip-rule="evenodd" d="M176.015 376.756C169.376 373.255 160.793 373.213 152.571 379.056C143.232 385.692 140.51 394.879 140.578 403.687C140.647 412.546 143.547 420.926 145.376 425.678L145.481 425.949L143.863 445.523C144.693 448.461 146.537 452.777 149.418 456.365C152.366 460.037 156.273 462.803 161.186 462.803C166.163 462.803 169.797 460.42 172.365 457.356C174.887 454.347 176.329 450.73 176.894 448.273L175.105 432.686L176.043 432.346C181.836 430.242 185.057 424.958 186.711 418.088C188.364 411.222 188.375 403.048 187.952 395.674C187.473 387.331 182.691 380.277 176.015 376.756ZM141.333 445.527L142.921 426.319C141.062 421.457 138.129 412.872 138.057 403.707C137.984 394.319 140.923 384.23 151.116 376.988C160.099 370.605 169.695 370.563 177.186 374.513C184.64 378.444 189.939 386.292 190.468 395.529C190.895 402.958 190.905 411.44 189.161 418.683C187.498 425.592 184.17 431.627 177.835 434.357L179.446 448.404L179.402 448.609C178.801 451.394 177.195 455.525 174.294 458.987C171.37 462.476 167.079 465.336 161.186 465.336C155.228 465.336 150.671 461.96 147.456 457.955C144.377 454.12 142.412 449.576 141.487 446.386L141.248 446.361L141.333 445.527Z" fill="#396961"/>
<path d="M160.15 457.079C172.905 457.079 178.891 449.21 180.29 445.276C204.624 445.276 224.764 462.138 233.994 473.941C243.225 485.745 277.629 548.135 269.238 573.428C262.525 593.663 246.302 596.754 237.351 595.349L238.807 621.691C238.928 623.869 237.203 625.701 235.032 625.701H112.32C99.4531 626.544 71.37 626.881 61.9717 621.485C50.2238 614.74 39.3151 580.173 61.9717 511.881C80.097 457.248 122.669 444.714 141.689 445.276C142.529 449.21 147.395 457.079 160.15 457.079Z" fill="white"/>
<path fill-rule="evenodd" clip-rule="evenodd" d="M60.7759 511.481C79.1014 456.244 122.231 443.434 141.726 444.01L142.715 444.039L142.922 445.01C143.645 448.4 148.029 455.813 160.15 455.813C172.314 455.813 177.862 448.338 179.103 444.85L179.401 444.009H180.29C205.175 444.009 225.64 461.209 234.985 473.159C239.694 479.18 250.653 497.837 259.381 518.124C263.751 528.28 267.585 538.896 269.798 548.589C272 558.237 272.645 567.164 270.434 573.829C266.978 584.244 261.032 590.343 254.713 593.628C249.087 596.553 243.231 597.214 238.693 596.791L240.066 621.621C240.226 624.524 237.926 626.967 235.032 626.967H112.361C105.888 627.39 95.6242 627.684 85.7831 627.197C80.8526 626.954 76.0046 626.513 71.7816 625.787C67.5885 625.067 63.8929 624.047 61.3463 622.585C58.0951 620.718 55.0619 617.032 52.6773 611.631C50.2849 606.213 48.5031 598.977 47.8132 589.859C46.4334 571.623 49.4118 545.735 60.7759 511.481ZM140.72 446.525C121.735 446.407 80.7984 459.138 63.1674 512.282C51.8749 546.319 48.9794 571.861 50.3268 589.667C51.0005 598.571 52.7325 605.51 54.9816 610.604C57.2385 615.716 59.9743 618.88 62.597 620.386C64.7496 621.622 68.0888 622.583 72.2066 623.291C76.2945 623.993 81.0337 624.427 85.907 624.668C95.653 625.15 105.841 624.856 112.238 624.437L112.279 624.434H235.032C236.479 624.434 237.629 623.213 237.549 621.761L236.006 593.856L237.545 594.098C241.794 594.765 247.811 594.365 253.554 591.379C259.263 588.411 264.784 582.847 268.042 573.028C270.027 567.046 269.517 558.688 267.341 549.156C265.174 539.668 261.404 529.207 257.067 519.129C248.384 498.946 237.525 480.507 233.003 474.724C223.995 463.205 204.542 446.934 181.134 446.549C179.105 451.065 172.678 458.346 160.15 458.346C147.691 458.346 142.193 451.135 140.72 446.525Z" fill="#396961"/>
<path d="M99.0422 625.75C78.8122 600.978 57.4232 592.138 49.2574 590.815C49.2574 598.755 53.2086 613.84 60.3207 620.986C66.0104 626.703 88.5057 626.544 99.0422 625.75Z" fill="#396961"/>
<path d="M255.509 592.403C268.785 587.322 271.05 569.113 270.523 560.644C258.512 566.361 242.338 585.787 235.753 594.785C236.807 596.108 242.233 597.484 255.509 592.403Z" fill="#396961"/>
<path d="M158.473 534.645C152.599 537.174 108.964 557.69 88.8247 567.526C91.3421 563.311 101.412 556.566 103.929 554.037C106.447 551.507 115.677 521.999 115.677 526.214C115.677 530.43 110.642 549.821 113.16 549.821C115.677 549.821 150.921 534.645 158.473 534.645Z" fill="#396961"/>
<path d="M176.095 559.095C140.515 606.984 111.481 624.015 101.412 626.544H119.034C149.242 602.937 169.661 571.742 176.095 559.095Z" fill="#396961"/>
<path d="M219.729 550.664C221.072 566.852 232.596 587.199 238.19 595.349V602.937C225.435 588.773 220.568 562.187 219.729 550.664Z" fill="#396961"/>
<path d="M235.673 527.9C240.372 530.598 248.819 536.894 252.455 539.704L239.029 523.685C238.358 526.383 236.512 527.619 235.673 527.9Z" fill="#396961"/>
<path d="M186.055 496.92L179.621 559.952C179.535 560.79 180.272 561.476 181.097 561.328L211.285 555.884C211.818 555.788 212.23 555.361 212.31 554.823L221.176 494.895C221.294 494.093 220.644 493.388 219.839 493.445L187.219 495.786C186.609 495.83 186.118 496.309 186.055 496.92Z" fill="white"/>
<path fill-rule="evenodd" clip-rule="evenodd" d="M219.75 492.182C221.358 492.067 222.66 493.478 222.423 495.081L213.556 555.009C213.397 556.085 212.573 556.938 211.508 557.13L181.32 562.574C179.67 562.872 178.196 561.498 178.367 559.823L184.801 496.791C184.926 495.567 185.908 494.611 187.129 494.523L219.75 492.182ZM219.929 494.709L187.309 497.05L180.875 560.081L211.063 554.637L219.929 494.709Z" fill="#396961"/>
<path d="M229.799 527.9L219.729 543.076C206.303 543.919 203.786 536.331 206.303 524.528C208.317 515.085 215.813 514.973 218.89 516.097L220.568 509.352C229.799 516.94 229.799 524.247 229.799 527.9Z" fill="white"/>
<path fill-rule="evenodd" clip-rule="evenodd" d="M219.828 507.107L221.367 508.372C226.145 512.3 228.595 516.21 229.832 519.674C231.059 523.113 231.059 526.033 231.059 527.88V528.284L220.432 544.301L219.808 544.34C212.896 544.774 208.313 543.059 205.963 539.206C203.698 535.494 203.802 530.214 205.071 524.263C206.154 519.184 208.777 516.43 211.707 515.184C213.925 514.24 216.224 514.201 217.978 514.541L219.828 507.107ZM221.294 511.66L219.774 517.767L218.459 517.287C217.175 516.818 214.865 516.59 212.69 517.516C210.599 518.405 208.466 520.429 207.536 524.793C206.288 530.646 206.391 535.062 208.112 537.883C209.695 540.478 212.92 542.114 219.031 541.846L228.538 527.518C228.533 525.74 228.46 523.334 227.459 520.529C226.518 517.894 224.732 514.843 221.294 511.66Z" fill="#396961"/>
<path d="M144.814 421.297L143.122 438.074C142.558 436.831 141.261 433.227 140.584 428.754C139.738 423.162 126.201 401.725 130.431 385.881C133.815 373.205 143.122 373.765 147.352 375.629C149.891 370.969 165.12 355.124 187.117 356.988C209.115 358.852 211.653 390.541 193.886 395.201C179.672 398.929 163.71 396.754 157.505 395.201C156.941 396.444 155.305 400.607 153.275 407.317C150.737 415.705 150.737 417.569 149.891 411.977C149.045 406.385 145.66 396.133 141.43 406.385C138.046 414.587 142.276 419.744 144.814 421.297Z" fill="#396961"/>
<path d="M157.104 433.199C162.926 436.644 171.928 434.635 175.701 433.199L176.509 439.227C168.101 441.293 160.069 436.07 157.104 433.199Z" fill="#396961"/>
<path d="M171.059 526.214C169.045 531.61 165.185 535.207 163.507 536.331L174.415 553.194C177.772 549.821 181.968 549.821 191.198 545.606C200.428 541.39 202.946 526.214 200.428 517.783C198.415 511.038 186.723 516.097 181.968 519.469L182.807 510.195C176.933 512.724 173.576 519.469 171.059 526.214Z" fill="white"/>
<path fill-rule="evenodd" clip-rule="evenodd" d="M184.253 508.194L183.454 517.032C185.88 515.641 188.999 514.257 191.952 513.596C193.927 513.154 195.966 513.004 197.713 513.51C199.545 514.041 201 515.288 201.636 517.419C202.973 521.897 202.955 528.044 201.434 533.61C199.918 539.158 196.82 544.429 191.72 546.758C187.963 548.474 185.009 549.509 182.654 550.333C182.078 550.535 181.538 550.724 181.031 550.907C178.439 551.845 176.777 552.612 175.307 554.089L174.206 555.194L161.771 535.972L162.807 535.278C164.305 534.275 167.973 530.876 169.879 525.769C171.149 522.366 172.657 518.887 174.625 515.921C176.595 512.953 179.073 510.425 182.31 509.031L184.253 508.194ZM176.723 517.326C174.915 520.051 173.486 523.317 172.239 526.659C170.443 531.47 167.266 534.927 165.204 536.632L174.678 551.276C176.272 550.036 178.052 549.293 180.177 548.524C180.711 548.331 181.269 548.136 181.857 547.93C184.207 547.107 187.034 546.116 190.676 544.453C194.806 542.567 197.582 538.142 199.003 532.94C200.42 527.756 200.402 522.1 199.221 518.147C198.85 516.905 198.089 516.255 197.014 515.943C195.853 515.607 194.294 515.667 192.5 516.068C188.926 516.868 184.965 518.893 182.694 520.504L180.465 522.085L181.338 512.44C179.573 513.637 178.058 515.314 176.723 517.326Z" fill="#396961"/>
<path d="M463.718 557.277C444.283 555.176 419.507 603.677 409.877 627.533H424.322C445.334 605.428 483.154 559.378 463.718 557.277Z" fill="#396961"/>
<path d="M460.435 485.707C422.09 488.859 398.933 580.696 392.149 626.22H417.1C447.522 578.069 498.781 482.555 460.435 485.707Z" fill="white"/>
<path fill-rule="evenodd" clip-rule="evenodd" d="M469.765 489.844C467.953 487.872 465.063 486.779 460.554 487.149C451.552 487.889 443.243 493.855 435.681 503.484C428.135 513.091 421.494 526.143 415.803 540.604C404.7 568.817 397.324 602.094 393.832 624.773H416.301C431.446 600.736 451.545 565.298 463.212 536.187C469.118 521.451 472.78 508.533 472.672 499.579C472.619 495.107 471.626 491.87 469.765 489.844ZM465.899 537.263C454.027 566.886 433.553 602.887 418.323 626.993L417.897 627.667H390.47L390.717 626.007C394.12 603.176 401.627 568.721 413.11 539.544C418.85 524.96 425.612 511.617 433.405 501.696C441.18 491.796 450.146 485.101 460.317 484.265C465.394 483.847 469.291 485.05 471.896 487.886C474.452 490.668 475.509 494.752 475.566 499.544C475.682 509.117 471.817 522.496 465.899 537.263Z" fill="#396961"/>
<path fill-rule="evenodd" clip-rule="evenodd" d="M450.949 520.984C454.436 512.846 457.671 505.276 460.453 498.75L457.791 497.615C454.628 505.034 450.88 513.802 446.841 523.22C443.806 530.296 440.607 537.739 437.369 545.252L430.223 530.386L427.614 531.64L435.851 548.773C431.612 558.6 427.339 568.465 423.312 577.71C421.153 582.666 419.065 587.443 417.09 591.94L412.568 577.846L409.812 578.73L415.332 595.936C411.623 604.353 408.396 611.583 405.966 616.877C404.726 619.578 403.698 621.767 402.921 623.349C402.532 624.142 402.212 624.771 401.962 625.233C401.837 625.464 401.735 625.644 401.655 625.775C401.589 625.884 401.553 625.935 401.543 625.949C401.54 625.953 401.54 625.954 401.543 625.95L403.766 627.803C403.996 627.527 404.256 627.074 404.508 626.61C404.783 626.1 405.123 625.432 405.519 624.625C406.313 623.009 407.353 620.794 408.597 618.085C411.084 612.665 414.398 605.235 418.202 596.6C420.549 591.271 423.083 585.48 425.726 579.416L441.922 573.069L440.866 570.375L427.358 575.668C431.056 567.167 434.929 558.218 438.769 549.314C442.356 540.999 445.914 532.722 449.276 524.884L463.646 518.548L462.478 515.9L450.949 520.984Z" fill="#396961"/>
</g>
<defs>
<filter id="filter0_d_8290_61755" x="0.5" y="0" width="572" height="704" filterUnits="userSpaceOnUse" color-interpolation-filters="sRGB">
<feFlood flood-opacity="0" result="BackgroundImageFix"/>
<feColorMatrix in="SourceAlpha" type="matrix" values="0 0 0 0 0 0 0 0 0 0 0 0 0 0 0 0 0 0 127 0" result="hardAlpha"/>
<feOffset dy="2"/>
<feGaussianBlur stdDeviation="5"/>
<feComposite in2="hardAlpha" operator="out"/>
<feColorMatrix type="matrix" values="0 0 0 0 0 0 0 0 0 0 0 0 0 0 0 0 0 0 0.2 0"/>
<feBlend mode="normal" in2="BackgroundImageFix" result="effect1_dropShadow_8290_61755"/>
<feBlend mode="normal" in="SourceGraphic" in2="effect1_dropShadow_8290_61755" result="shape"/>
</filter>
</defs>
</svg>
