<svg width="22" height="22" viewBox="0 0 22 22" fill="none" xmlns="http://www.w3.org/2000/svg">
<path d="M8.29235 4V7.0625M8.29235 14.9375V18M15.4977 4H6.49325C3.04452 4 2.08104 4.805 2 7.9375C3.73787 7.9375 5.14257 9.31125 5.14257 11C5.14257 12.6887 3.73787 14.0538 2 14.0625C2.08104 17.195 3.04452 18 6.49325 18H15.4977C19.0995 18 20 17.125 20 13.625V8.375C20 4.875 19.0995 4 15.4977 4Z" stroke="#2E2C34" stroke-width="1.5" stroke-linecap="round" stroke-linejoin="round"/>
<path d="M13.7729 8.55297L14.3413 9.6988C14.3963 9.8088 14.5063 9.8913 14.6254 9.90964L15.8904 10.093C16.2021 10.1388 16.3304 10.5238 16.1013 10.7438L15.1846 11.633C15.0929 11.7155 15.0563 11.8438 15.0746 11.9721L15.2946 13.228C15.3496 13.5396 15.0196 13.778 14.7446 13.6313L13.6171 13.0355C13.5614 13.0083 13.5003 12.9942 13.4383 12.9942C13.3764 12.9942 13.3153 13.0083 13.2596 13.0355L12.1321 13.6313C11.8479 13.778 11.5271 13.5396 11.5821 13.228L11.8021 11.9721C11.8123 11.9109 11.8076 11.8482 11.7885 11.7891C11.7693 11.7301 11.7363 11.6765 11.6921 11.633L10.7846 10.7438C10.7335 10.6942 10.6974 10.6313 10.6802 10.5622C10.6631 10.4931 10.6656 10.4205 10.6876 10.3528C10.7095 10.2851 10.75 10.2248 10.8044 10.1789C10.8588 10.133 10.925 10.1032 10.9954 10.093L12.2604 9.90964C12.3888 9.8913 12.4896 9.81797 12.5446 9.6988L13.1038 8.55297C13.2321 8.2688 13.6354 8.2688 13.7729 8.55297Z" stroke="#2E2C34" stroke-linecap="round" stroke-linejoin="round"/>
</svg>
