<svg width="162" height="19" viewBox="0 0 162 19" fill="none" xmlns="http://www.w3.org/2000/svg">
<path d="M5.664 18V3.84H0.096V1.2H14.352V3.84H8.784V18H5.664ZM16.6935 18V1.2H19.8135V18H16.6935ZM32.1336 18.24C30.8536 18.24 29.6616 18.032 28.5576 17.616C27.4696 17.184 26.5176 16.584 25.7016 15.816C24.9016 15.032 24.2776 14.112 23.8296 13.056C23.3816 12 23.1576 10.848 23.1576 9.6C23.1576 8.352 23.3816 7.2 23.8296 6.144C24.2776 5.088 24.9096 4.176 25.7256 3.408C26.5416 2.624 27.4936 2.024 28.5816 1.608C29.6696 1.176 30.8616 0.959999 32.1576 0.959999C33.5336 0.959999 34.7896 1.2 35.9256 1.68C37.0616 2.144 38.0216 2.84 38.8056 3.768L36.7896 5.664C36.1816 5.008 35.5016 4.52 34.7496 4.2C33.9976 3.864 33.1816 3.696 32.3016 3.696C31.4216 3.696 30.6136 3.84 29.8776 4.128C29.1576 4.416 28.5256 4.824 27.9816 5.352C27.4536 5.88 27.0376 6.504 26.7336 7.224C26.4456 7.944 26.3016 8.736 26.3016 9.6C26.3016 10.464 26.4456 11.256 26.7336 11.976C27.0376 12.696 27.4536 13.32 27.9816 13.848C28.5256 14.376 29.1576 14.784 29.8776 15.072C30.6136 15.36 31.4216 15.504 32.3016 15.504C33.1816 15.504 33.9976 15.344 34.7496 15.024C35.5016 14.688 36.1816 14.184 36.7896 13.512L38.8056 15.432C38.0216 16.344 37.0616 17.04 35.9256 17.52C34.7896 18 33.5256 18.24 32.1336 18.24ZM44.5791 14.04L44.4111 10.344L53.2191 1.2H56.7231L49.4031 8.976L47.6751 10.872L44.5791 14.04ZM41.7951 18V1.2H44.9151V18H41.7951ZM53.5071 18L47.0751 10.344L49.1391 8.064L57.1551 18H53.5071ZM62.1594 8.184H70.5114V10.752H62.1594V8.184ZM62.3994 15.384H71.8794V18H59.2794V1.2H71.5434V3.816H62.3994V15.384ZM78.7656 18V3.84H73.1976V1.2H87.4536V3.84H81.8856V18H78.7656ZM96.4279 18V1.2H99.5479V15.36H108.332V18H96.4279ZM113.675 8.184H122.027V10.752H113.675V8.184ZM113.915 15.384H123.395V18H110.795V1.2H123.059V3.816H113.915V15.384ZM124.497 18L132.057 1.2H135.129L142.713 18H139.449L132.945 2.856H134.193L127.713 18H124.497ZM127.977 14.112L128.817 11.664H137.889L138.729 14.112H127.977ZM144.85 18V1.2H152.194C154.018 1.2 155.618 1.552 156.994 2.256C158.37 2.96 159.442 3.936 160.21 5.184C160.978 6.432 161.362 7.904 161.362 9.6C161.362 11.28 160.978 12.752 160.21 14.016C159.442 15.264 158.37 16.24 156.994 16.944C155.618 17.648 154.018 18 152.194 18H144.85ZM147.97 15.36H152.05C153.314 15.36 154.402 15.12 155.314 14.64C156.242 14.16 156.954 13.488 157.45 12.624C157.962 11.76 158.218 10.752 158.218 9.6C158.218 8.432 157.962 7.424 157.45 6.576C156.954 5.712 156.242 5.04 155.314 4.56C154.402 4.08 153.314 3.84 152.05 3.84H147.97V15.36Z" fill="#2E2C34"/>
</svg>
