<svg width="513" height="512" viewBox="0 0 513 512" fill="none" xmlns="http://www.w3.org/2000/svg">
<path d="M448.987 329.916C467.458 357.659 472.697 382.871 471.321 403.718C468.835 441.385 427.732 456.994 389.851 456.994H136.638C115.342 456.994 96.6144 440.944 88.5555 421.301C70.6435 377.641 38.8734 321.992 59.5304 268.73C86.3894 199.475 126.007 212.25 176.367 152.409C226.728 92.5679 287.832 91.2232 362.366 139.634C436.9 188.045 397.955 253.265 448.987 329.916Z" fill="#E4F1EF"/>
<path d="M489.955 400.085C490.301 426.38 472.368 448.58 463.26 456.355H449.302C459.679 421.273 476.834 403.828 486.447 398.023C488.047 397.056 489.93 398.216 489.955 400.085Z" fill="#4caf50"/>
<path d="M491.43 313.815C505.729 367.58 469.686 431.255 454.187 454.959H422.782C436.272 353.517 458.888 328.863 487.479 312.203C489.014 311.309 490.973 312.098 491.43 313.815Z" fill="white"/>
<path fill-rule="evenodd" clip-rule="evenodd" d="M488.182 313.409C488.936 312.97 489.865 313.364 490.081 314.174C497.125 340.661 491.788 369.703 482.669 395.19C473.718 420.205 461.184 441.63 453.431 453.564H424.377C431.091 403.83 440.015 372.931 450.705 352.433C461.47 331.793 474.056 321.64 488.182 313.409ZM492.779 313.456C492.081 310.832 489.092 309.648 486.777 310.997C472.31 319.427 459.293 329.93 448.23 351.142C437.205 372.281 428.151 403.993 421.398 454.775L421.188 456.355H454.942L455.356 455.723C463.139 443.819 476.086 421.872 485.297 396.13C494.499 370.412 500.033 340.734 492.779 313.456Z" fill="#396961"/>
<path d="M440.792 346.892C453.143 391.947 439.004 438.769 429.761 456.355H406.73C401.55 401.444 422.605 361.514 436.448 345.816C437.814 344.268 440.246 344.9 440.792 346.892Z" fill="#4caf50"/>
<path fill-rule="evenodd" clip-rule="evenodd" d="M471.88 352.072L479.393 330.964L482.023 331.9L464.814 380.248L476.119 376.854L476.922 379.528L463.652 383.512L448.001 427.484L462.088 422.246L463.061 424.862L446.779 430.916L438.055 455.427L435.425 454.491L453.144 404.711L446.592 386.336L449.221 385.399L454.624 400.552L470.297 356.518L465.413 340.207L468.087 339.406L471.88 352.072Z" fill="#396961"/>
<path fill-rule="evenodd" clip-rule="evenodd" d="M429.015 382.869L432.575 363.285L435.322 363.785L428.094 403.536L437.486 398.59L438.786 401.061L427.46 407.025L421.261 441.119L429.026 435.019L430.751 437.214L420.508 445.261L418.572 455.907L415.826 455.408L420.791 428.1L412.602 417.425L414.817 415.726L421.465 424.392L428.39 386.304L421.758 379.139L423.807 377.243L429.015 382.869Z" fill="white"/>
<path d="M334.085 73.5825L335.623 66.1191C335.897 64.7899 337.715 64.5939 338.266 65.8341L341.287 72.6348C341.47 73.0462 341.84 73.3443 342.281 73.4351L350.257 75.0788C351.542 75.3436 351.785 77.0733 350.623 77.6822L343.333 81.5038C342.978 81.6896 342.721 82.0187 342.625 82.4073L340.469 91.1898C340.149 92.4941 338.352 92.6379 337.828 91.4011L334.524 83.5929C334.363 83.2126 334.041 82.9231 333.646 82.8022L324.826 80.1043C323.529 79.7074 323.503 77.8802 324.788 77.4468L333.164 74.6235C333.634 74.4649 333.985 74.0686 334.085 73.5825Z" fill="#396961"/>
<path d="M409.156 130.223L410.64 128.26C411.458 127.177 413.184 127.781 413.148 129.138L413.086 131.526C413.075 131.976 413.281 132.404 413.64 132.675L416.02 134.475C417.067 135.266 416.543 136.932 415.233 136.983L412.163 137.102C411.763 137.118 411.389 137.304 411.136 137.614L408.962 140.275C408.113 141.316 406.428 140.673 406.487 139.332L406.622 136.244C406.64 135.831 406.474 135.432 406.169 135.153L403.602 132.805C402.601 131.889 403.363 130.228 404.71 130.389L407.876 130.767C408.369 130.826 408.856 130.619 409.156 130.223Z" fill="#396961"/>
<path d="M178.339 213.789L174.655 218.617C174.431 218.911 174.065 219.053 173.707 218.984L169.154 218.111C168.175 217.923 167.584 219.183 168.34 219.848L171.918 222.993C172.179 223.223 172.303 223.577 172.243 223.924L171.345 229.111C171.176 230.086 172.349 230.69 173.013 229.969L176.689 225.983C176.905 225.749 177.218 225.636 177.529 225.68L181.783 226.272C182.742 226.406 183.284 225.184 182.556 224.533L179.392 221.707C179.138 221.48 179.016 221.135 179.071 220.794L180.069 214.564C180.232 213.544 178.96 212.975 178.339 213.789Z" fill="white"/>
<path fill-rule="evenodd" clip-rule="evenodd" d="M283.097 142.941C238.769 142.941 202.834 178.592 202.834 222.57V283.262C202.834 286.323 205.323 288.804 208.394 288.804H221.278C224.349 288.804 226.838 286.323 226.838 283.262V221.082C226.838 190.256 252.026 165.267 283.097 165.267C314.168 165.267 339.356 190.256 339.356 221.082V277.719C339.356 280.78 341.845 283.261 344.916 283.261H357.8C360.871 283.261 363.36 280.78 363.36 277.719V222.57C363.36 178.592 327.425 142.941 283.097 142.941Z" fill="#396961"/>
<path d="M172.829 276.486C172.829 273.425 175.318 270.944 178.389 270.944H387.805C390.875 270.944 393.364 273.425 393.364 276.486V451.452C393.364 454.513 390.875 456.994 387.805 456.994H178.389C175.318 456.994 172.829 454.513 172.829 451.452V276.486Z" fill="white"/>
<path fill-rule="evenodd" clip-rule="evenodd" d="M170.976 276.486C170.976 272.405 174.294 269.096 178.389 269.096H387.805C391.899 269.096 395.217 272.405 395.217 276.486V451.452C395.217 455.533 391.899 458.841 387.805 458.841H178.389C174.294 458.841 170.976 455.533 170.976 451.452V276.486ZM178.389 272.791C176.342 272.791 174.682 274.445 174.682 276.486V451.452C174.682 453.493 176.342 455.147 178.389 455.147H387.805C389.852 455.147 391.511 453.493 391.511 451.452V276.486C391.511 274.445 389.852 272.791 387.805 272.791H178.389Z" fill="#396961"/>
<path fill-rule="evenodd" clip-rule="evenodd" d="M295.785 369.212C300.398 365.529 303.35 359.881 303.35 353.55C303.35 342.452 294.282 333.456 283.097 333.456C271.911 333.456 262.843 342.452 262.843 353.55C262.843 360.447 266.346 366.532 271.683 370.151L267.164 388.981C266.49 391.787 268.635 394.481 271.542 394.481H296.151C299.059 394.481 301.203 391.787 300.53 388.981L295.785 369.212Z" fill="#E4F1EF"/>
<path d="M491.07 216.918C491.07 243.127 469.823 264.375 443.613 264.375C434.561 264.375 426.101 261.84 418.904 257.443L405.687 262.13C402.931 263.108 400.175 260.673 400.805 257.818L404.046 243.13C399.06 235.62 396.156 226.608 396.156 216.918C396.156 190.708 417.403 169.461 443.613 169.461C469.823 169.461 491.07 190.708 491.07 216.918Z" fill="white"/>
<path fill-rule="evenodd" clip-rule="evenodd" d="M443.613 170.702C469.137 170.702 489.828 191.393 489.828 216.918C489.828 242.442 469.137 263.133 443.613 263.133C434.796 263.133 426.559 260.665 419.551 256.383L419.046 256.075L405.272 260.96C403.435 261.612 401.598 259.989 402.018 258.085L405.372 242.883L405.08 242.444C400.225 235.13 397.397 226.356 397.397 216.918C397.397 191.393 418.089 170.702 443.613 170.702ZM492.311 216.918C492.311 190.022 470.508 168.219 443.613 168.219C416.718 168.219 394.915 190.022 394.915 216.918C394.915 226.67 397.782 235.756 402.721 243.374L399.593 257.55C398.753 261.358 402.427 264.603 406.102 263.3L418.766 258.809C426.041 263.133 434.539 265.616 443.613 265.616C470.508 265.616 492.311 243.813 492.311 216.918Z" fill="#396961"/>
<path fill-rule="evenodd" clip-rule="evenodd" d="M473.201 206.655L434.7 239.809L416.048 214.163L425.176 207.525L436.62 223.261L465.837 198.103L473.201 206.655Z" fill="#4caf50"/>
<path fill-rule="evenodd" clip-rule="evenodd" d="M139.367 166.341V176.5C139.367 178.872 136.482 180.112 134.692 178.509L108.131 154.721C106.925 153.64 106.925 151.782 108.131 150.702L134.692 126.913C136.482 125.31 139.367 126.55 139.367 128.922V139.081H200.745V166.341H139.367Z" fill="#396961"/>
<path d="M105.228 261.364L101.985 273.881C100.364 280.14 105.575 287.441 119.775 287.25C131.136 287.098 132.699 276.493 132.06 271.21L129.032 257.075C131.834 254.203 134.083 252.472 133.902 238.866C133.676 221.859 124.504 215.745 113.712 215.89C102.92 216.035 93.9521 225.217 94.1707 241.667C94.3591 255.839 101.994 260.273 105.228 261.364Z" fill="white"/>
<path fill-rule="evenodd" clip-rule="evenodd" d="M100.78 223.456C97.4413 227.55 95.314 233.652 95.4203 241.65C95.5114 248.501 97.3957 252.879 99.5444 255.653C101.704 258.441 104.198 259.695 105.626 260.177L106.73 260.549L103.195 274.196C102.506 276.858 103.244 279.771 105.782 282.052C108.348 284.358 112.854 286.091 119.759 285.998C124.956 285.929 127.78 283.518 129.309 280.576C130.878 277.557 131.115 273.891 130.826 271.416L127.669 256.681L128.138 256.2C128.245 256.091 128.35 255.984 128.453 255.879C129.718 254.59 130.683 253.607 131.409 251.574C132.221 249.299 132.743 245.649 132.652 238.883C132.542 230.596 130.259 225.173 126.89 221.836C123.522 218.499 118.891 217.073 113.729 217.142C108.702 217.209 104.11 219.373 100.78 223.456ZM98.8444 221.872C102.642 217.215 107.93 214.715 113.695 214.638C119.325 214.562 124.676 216.121 128.648 220.056C132.62 223.991 135.036 230.129 135.152 238.849C135.243 245.689 134.73 249.707 133.762 252.417C132.88 254.889 131.629 256.216 130.395 257.472L133.294 271.002L133.301 271.059C133.64 273.866 133.407 278.112 131.526 281.732C129.593 285.452 125.954 288.42 119.792 288.502C112.496 288.6 107.297 286.778 104.113 283.916C100.9 281.029 99.8443 277.163 100.776 273.567L103.74 262.123C101.967 261.335 99.6258 259.843 97.5697 257.189C95.0455 253.93 93.0183 249.006 92.921 241.684C92.8087 233.232 95.056 226.518 98.8444 221.872Z" fill="#396961"/>
<path d="M71.3857 285.544C67.1166 274.545 68.6372 258.258 77.1583 249.02C87.8096 237.473 76.2406 222.803 89.1967 213.506C93.6968 209.796 97.4803 209.213 98.8095 209.386C100.829 204.417 108.316 197.284 116.314 200.027C120.893 202.247 123.228 206.777 127.224 207.864C131.219 208.951 137.524 209.644 140.968 215.092C145.616 222.443 139.437 228.228 144.138 239.569C148.838 250.91 163.118 255.665 161.655 273.931C157.033 272.115 145.16 270.459 134.576 270.534C134.382 271.727 133.031 273.704 132.38 274.543L131.582 270.605C131.593 271.501 126.042 247.224 126.042 247.224C126.042 247.224 132.587 243.373 131.598 237.456C130.363 230.06 125.253 230.699 122.501 237.578C121.943 238.346 120.245 238.977 117.922 235.359C115.018 230.836 111.888 219.466 102.798 220.158C98.9902 222.957 95.3578 227.814 94.8369 240.186C95.58 253.291 99.3077 258.402 105.403 261.339L103.468 270.295L101.883 275.155C100.616 273.689 99.7287 271.647 99.4437 270.809C91.0244 272.519 79.1862 278.251 71.3857 285.544Z" fill="#396961"/>
<path d="M117.725 259.8C112.963 262.612 106.556 262 105.404 261.34L103.439 268.235C110.766 269.219 116.244 262.976 117.725 259.8Z" fill="#4caf50"/>
<path d="M116.526 281.267C127.26 281.267 132.994 274.952 134.213 270.878C151.291 270.878 180.567 275.156 195.815 289.211C217.546 309.242 241.558 372.318 239.729 397.372C238.265 417.415 225.294 443.61 218.991 454.203H16.5C27.0718 430.778 40.6526 382.584 42.1164 377.206C43.9461 370.484 51.875 321.598 60.4138 300.821C67.2449 284.2 88.4699 272.711 99.4483 270.878C101.075 274.952 105.791 281.267 116.526 281.267Z" fill="white"/>
<path fill-rule="evenodd" clip-rule="evenodd" d="M100.235 269.477L100.609 270.413C102.09 274.124 106.414 280.014 116.526 280.014C126.753 280.014 131.968 274.021 133.017 270.518L133.284 269.626H134.214C142.841 269.626 154.532 270.705 166.002 273.559C177.448 276.406 188.814 281.056 196.661 288.289C207.745 298.506 219.265 319.509 227.768 340.945C232.032 351.694 235.561 362.61 237.91 372.427C240.254 382.219 241.447 391.007 240.975 397.463C240.229 407.679 236.564 419.381 232.332 429.803C228.094 440.243 223.247 449.496 220.065 454.844L219.702 455.455H14.5635L15.3614 453.687C25.8849 430.369 39.4414 382.275 40.9108 376.877C41.3523 375.255 42.1788 371.007 43.3198 365.118L43.3851 364.781C44.5084 358.983 45.9162 351.717 47.5262 344.027C50.8012 328.384 54.9382 310.856 59.2583 300.344C62.8007 291.725 70.0265 284.526 77.6688 279.272C85.3084 274.019 93.5284 270.597 99.243 269.643L100.235 269.477ZM135.091 272.134C133.215 276.69 127.062 282.519 116.526 282.519C105.953 282.519 100.794 276.678 98.7035 272.292C93.4691 273.378 86.0737 276.53 79.083 281.337C71.6604 286.44 64.8582 293.296 61.5695 301.298C57.3508 311.563 53.254 328.867 49.9724 344.541C48.3664 352.213 46.9617 359.463 45.838 365.262L45.7734 365.596C44.6463 371.413 43.7956 375.797 43.3222 377.536C41.8996 382.762 28.9165 428.853 18.4223 452.95H218.279C221.4 447.625 225.987 438.787 230.017 428.86C234.213 418.526 237.765 407.109 238.482 397.281C238.926 391.21 237.803 382.718 235.48 373.011C233.162 363.328 229.673 352.526 225.446 341.87C216.967 320.497 205.616 299.946 194.969 290.132C187.568 283.31 176.672 278.794 165.399 275.989C154.534 273.286 143.449 272.205 135.091 272.134Z" fill="#396961"/>
<path d="M68.3438 322.82L51.8761 454.202H44.5571L68.3438 322.82Z" fill="#396961"/>
<path d="M189.106 399.816C189.106 403.238 180.567 437.5 176.298 454.202H169.589L185.447 399.816C182.519 390.528 170.199 361.929 167.759 347.263C169.589 358.263 189.106 395.539 189.106 399.816Z" fill="#396961"/>
<path d="M233.627 422.426C226.308 399.45 232.204 378.225 236.067 370.484C237.49 374.762 240.215 386.128 239.727 397.372C239.239 408.616 235.457 418.76 233.627 422.426Z" fill="#396961"/>
</svg>
