<svg width="394" height="308" viewBox="0 0 394 308" fill="none" xmlns="http://www.w3.org/2000/svg">
<path d="M136.833 39.027C123.939 49.951 98.8125 48.1304 87.8608 45.8545C74.8428 44.2585 89.7206 34.6823 116.996 25.9927C144.272 17.3032 156.051 4.88955 157.91 12.9584C159.77 21.0273 152.951 25.372 136.833 39.027Z" fill="#E4F1EF"/>
<path d="M309.607 101.696C315.038 150.578 322.882 157.217 354.861 194.633C380.225 224.309 355.495 276.769 339.585 300.222H104.721C90.973 300.222 46.1481 259.865 37.21 249.406C34.1647 245.842 30.6513 242.071 26.6163 238.084C-22.8619 189.202 5.49753 90.8331 40.4942 71.5215C75.491 52.2099 115.315 89.0226 178.068 32.2947C240.82 -24.4331 304.579 56.4342 309.607 101.696Z" fill="#E4F1EF"/>
<path d="M333.512 119.601L331.235 126.06C331.097 126.453 330.758 126.726 330.356 126.767L325.251 127.295C324.153 127.409 323.95 128.974 324.972 129.453L329.808 131.717C330.161 131.883 330.41 132.228 330.463 132.626L331.252 138.569C331.4 139.687 332.842 139.963 333.303 138.962L335.853 133.425C336.002 133.1 336.295 132.875 336.639 132.821L341.334 132.084C342.392 131.919 342.556 130.41 341.568 129.938L337.277 127.887C336.933 127.722 336.689 127.386 336.633 126.997L335.6 119.884C335.431 118.72 333.895 118.513 333.512 119.601Z" fill="#E4F1EF"/>
<path d="M38.6375 154.745L36.5037 157.378C36.3738 157.538 36.1621 157.615 35.9547 157.577L33.3174 157.101C32.7499 156.999 32.4076 157.686 32.8455 158.048L34.9183 159.763C35.0697 159.889 35.1411 160.081 35.1063 160.271L34.5863 163.099C34.4886 163.63 35.168 163.959 35.5527 163.567L37.682 161.393C37.807 161.266 37.9882 161.204 38.1687 161.228L40.6328 161.551C41.1879 161.624 41.5023 160.957 41.0802 160.603L39.2477 159.062C39.1005 158.938 39.0302 158.75 39.0618 158.564L39.6396 155.168C39.7341 154.612 38.9972 154.301 38.6375 154.745Z" fill="white"/>
<path d="M110.274 49.7436C110.274 75.8878 89.0797 97.0819 62.9355 97.0819C36.7913 97.0819 15.5973 75.8878 15.5973 49.7436C15.5973 23.5994 36.7913 2.4054 62.9355 2.4054C89.0797 2.4054 110.274 23.5994 110.274 49.7436Z" fill="white"/>
<path fill-rule="evenodd" clip-rule="evenodd" d="M62.9356 3.87234C37.6015 3.87234 17.0643 24.4096 17.0643 49.7436C17.0643 75.0776 37.6015 95.6149 62.9356 95.6149C88.2696 95.6149 108.807 75.0776 108.807 49.7436C108.807 24.4096 88.2696 3.87234 62.9356 3.87234ZM14.1304 49.7436C14.1304 22.7893 35.9812 0.938446 62.9356 0.938446C89.8899 0.938446 111.741 22.7893 111.741 49.7436C111.741 76.698 89.8899 98.5488 62.9356 98.5488C35.9812 98.5488 14.1304 76.698 14.1304 49.7436Z" fill="#396961"/>
<path d="M73.024 49.7436C73.024 55.3153 68.5072 59.8321 62.9355 59.8321C57.3638 59.8321 52.847 55.3153 52.847 49.7436C52.847 44.1719 57.3638 39.6552 62.9355 39.6552C68.5072 39.6552 73.024 44.1719 73.024 49.7436Z" fill="#E4F1EF"/>
<path fill-rule="evenodd" clip-rule="evenodd" d="M61.7583 10.0359L65.2263 49.0739L47.767 70.0822L45.5106 68.2069L62.1969 48.1288L58.8359 10.2956L61.7583 10.0359Z" fill="#396961"/>
<path d="M107.911 175.216C110.399 235.867 91.2898 281.347 79.6394 299.369C78.5786 301.01 76.7397 301.929 74.7776 301.929H70.9889C67.6382 301.929 64.9223 299.177 64.9758 295.847C66.2816 214.56 86.7061 180.94 101.127 171.126C104.207 169.03 107.759 171.508 107.911 175.216Z" fill="white"/>
<path fill-rule="evenodd" clip-rule="evenodd" d="M104.94 172.047C105.864 172.634 106.596 173.793 106.656 175.267C109.133 235.652 90.0985 280.88 78.5824 298.694C77.7716 299.948 76.3479 300.68 74.7776 300.68H70.9889C68.3421 300.68 66.1896 298.502 66.232 295.867C66.8834 255.318 72.3031 226.733 79.3171 207.102C86.3383 187.451 94.9238 176.861 101.836 172.157C102.944 171.403 104.056 171.485 104.94 172.047ZM106.294 169.942C104.594 168.862 102.389 168.753 100.417 170.096C92.909 175.205 84.0719 186.331 76.9492 206.266C69.8194 226.221 64.3739 255.09 63.7195 295.827C63.6548 299.853 66.9343 303.178 70.9889 303.178H74.7776C77.1313 303.178 79.3856 302.072 80.6963 300.044C92.481 281.815 111.665 236.082 109.167 175.165C109.075 172.931 107.955 170.998 106.294 169.942Z" fill="#396961"/>
<path d="M20.9389 207.31C53.5706 229.34 68.8776 271.211 73.6641 295.69C74.362 299.259 71.5386 302.445 67.8812 302.445H63.0116C61.5572 302.445 60.1455 301.929 59.0668 300.959C31.0494 275.769 17.7424 236.587 13.0664 212.59C12.1559 207.918 16.9783 204.637 20.9389 207.31Z" fill="#396961"/>
<path fill-rule="evenodd" clip-rule="evenodd" d="M97.4961 184.278C94.1087 194.54 91.0444 204.605 88.2888 214.288C86.0574 222.13 84.0282 229.722 82.1936 236.968L78.547 228.103L76.2212 229.049L81.1664 241.07C77.9425 254.088 75.3658 265.884 73.3894 275.859C71.1015 287.407 69.6162 296.525 68.863 302.285L71.3548 302.607C72.0866 297.011 73.5248 288.157 75.7404 276.921L86.8132 271.002L85.6231 268.802L76.3745 273.746C78.29 264.274 80.7209 253.293 83.704 241.273C85.7309 233.106 88.0126 224.46 90.5606 215.483L101.875 209.534L100.701 207.326L91.5126 212.156C94.0477 203.372 96.8345 194.294 99.8836 185.057L97.4961 184.278Z" fill="#396961"/>
<path fill-rule="evenodd" clip-rule="evenodd" d="M30.4213 234.209C27.019 228.743 23.7535 223.89 20.7848 220.037L22.7796 218.518C26.319 223.111 30.2356 229.047 34.2701 235.678C38.0566 241.902 41.9581 248.757 45.7624 255.723L46.5118 245.531L49.0178 245.714L47.9809 259.817C52.4257 268.082 56.6802 276.367 60.3941 283.81C63.8967 290.831 66.9201 297.107 69.1705 301.919L66.892 302.972C64.6965 298.278 61.7586 292.176 58.3543 285.344L47.2916 280.873L48.238 278.559L56.6613 281.963C53.2749 275.234 49.5056 267.942 45.5936 260.676C41.2497 252.607 36.7332 244.576 32.3717 237.385L24.0252 234.939L24.7357 232.543L30.4213 234.209Z" fill="white"/>
<path d="M246.984 17.4028C246.984 14.1553 249.617 11.5227 252.864 11.5227H386.319C389.566 11.5227 392.199 14.1553 392.199 17.4028V76.9909C392.199 80.2385 389.566 82.8711 386.319 82.8711H252.864C249.617 82.8711 246.984 80.2385 246.984 76.9909V17.4028Z" fill="white"/>
<path fill-rule="evenodd" clip-rule="evenodd" d="M245.808 17.4028C245.808 13.5058 248.967 10.3467 252.864 10.3467H386.319C390.216 10.3467 393.375 13.5058 393.375 17.4029V76.9909C393.375 80.888 390.216 84.0471 386.319 84.0471H252.864C248.967 84.0471 245.808 80.888 245.808 76.9909V17.4028ZM252.864 12.6987C250.266 12.6987 248.16 14.8048 248.16 17.4028V76.9909C248.16 79.589 250.266 81.6951 252.864 81.6951H386.319C388.917 81.6951 391.023 79.589 391.023 76.9909V17.4029C391.023 14.8048 388.917 12.6987 386.319 12.6987H252.864Z" fill="#396961"/>
<path fill-rule="evenodd" clip-rule="evenodd" d="M368.695 38.7201H320.849V36.3681H368.695V38.7201ZM344.337 61.3837H320.849V59.0317H344.337V61.3837Z" fill="#396961"/>
<path fill-rule="evenodd" clip-rule="evenodd" d="M285.995 29.6159C276.598 29.6159 268.981 37.2334 268.981 46.6301C268.981 56.0268 276.598 63.6443 285.995 63.6443C295.392 63.6443 303.009 56.0268 303.009 46.6301C303.009 37.2334 295.392 29.6159 285.995 29.6159ZM266.629 46.6301C266.629 35.9344 275.299 27.2638 285.995 27.2638C296.691 27.2638 305.361 35.9344 305.361 46.6301C305.361 57.3258 296.691 65.9964 285.995 65.9964C275.299 65.9964 266.629 57.3258 266.629 46.6301Z" fill="#396961"/>
<path d="M293.113 39.8287C293.113 43.6725 289.997 46.7884 286.153 46.7884C282.309 46.7884 279.193 43.6725 279.193 39.8287C279.193 35.9849 282.309 32.869 286.153 32.869C289.997 32.869 293.113 35.9849 293.113 39.8287Z" fill="#396961"/>
<path d="M301.712 55.8043C297.941 51.4447 292.369 48.6864 286.153 48.6864C279.793 48.6864 274.107 51.5738 270.335 56.1093C272.023 59.013 277.548 64.8203 286.153 64.8203C294.758 64.8203 300.111 58.8096 301.712 55.8043Z" fill="#396961"/>
<path d="M168.953 94.6803L166.868 112.765L167.563 126.676L193.281 129.458L204.402 115.547L202.317 94.6803C206.555 92.2569 209.738 85.6119 210.489 75.2049C211.935 74.7412 214.828 72.5618 214.828 67.5538C214.828 62.5459 211.658 60.8302 210.072 60.5983C207.816 43.7147 199.063 37.6452 184.245 37.6452C170.038 37.6452 162.336 46.9433 159.998 60.5983C158.349 60.3665 155.051 61.433 155.051 67.5538C155.051 73.6747 158.014 75.2049 159.495 75.2049C160.854 86.9968 166.901 93.038 168.953 94.6803Z" fill="white"/>
<path fill-rule="evenodd" clip-rule="evenodd" d="M168.57 44.8935C164.814 48.6849 162.387 54.1526 161.247 60.8124L161.039 62.0248L159.822 61.8537C159.34 61.786 158.508 61.903 157.789 62.6027C157.081 63.2924 156.318 64.7119 156.318 67.5538C156.318 70.4169 157.01 72.019 157.703 72.8785C158.402 73.7443 159.158 73.9372 159.495 73.9372H160.624L160.753 75.0597C162.066 86.4489 167.892 92.208 169.744 93.6904L170.292 94.1287L168.138 112.806L168.774 125.532L192.726 128.123L203.09 115.159L200.974 93.9878L201.688 93.5797C203.495 92.5468 205.198 90.539 206.549 87.4308C207.896 84.3311 208.857 80.2166 209.225 75.1136L209.287 74.2591L210.102 73.9977C211.033 73.6994 213.561 72.0019 213.561 67.5538C213.561 63.2369 210.915 62.0027 209.889 61.8527L208.943 61.7144L208.817 60.7664C207.713 52.507 205.05 47.1148 201.055 43.7617C197.051 40.4012 191.5 38.9128 184.245 38.9128C177.442 38.9128 172.301 41.1278 168.57 44.8935ZM166.771 43.1086C171.028 38.8116 176.841 36.3775 184.245 36.3775C191.807 36.3775 198.042 37.9239 202.683 41.8191C207.179 45.5924 209.985 51.4056 211.208 59.5821C213.341 60.3234 216.095 62.6335 216.095 67.5538C216.095 72.4015 213.626 75.0458 211.692 76.064C211.271 81.0272 210.291 85.1786 208.872 88.4422C207.532 91.5251 205.77 93.8812 203.655 95.3346L205.714 115.935L193.836 130.793L166.351 127.82L165.597 112.723L167.617 95.2105C165.107 92.9924 159.849 87.0187 158.357 76.2991C157.472 76.0354 156.527 75.4572 155.732 74.4709C154.574 73.0351 153.784 70.8116 153.784 67.5538C153.784 64.2749 154.671 62.1008 156.023 60.785C156.938 59.8952 157.991 59.4723 158.939 59.345C160.209 52.7939 162.75 47.167 166.771 43.1086Z" fill="#396961"/>
<path fill-rule="evenodd" clip-rule="evenodd" d="M164.781 107.201C158.064 107.388 140.439 109.71 124.828 116.999C114.819 120.826 104.025 127.349 96.6694 137.948C86.6581 152.374 82.1838 165.184 79.2591 174.117C78.2074 176.965 77.1059 180.064 76.0138 183.343C65.5018 214.904 55.8653 263.081 99.9693 263.081L100.13 262.562C100.3 278.509 100.849 291.786 101.668 299.459C118.204 304.041 170.879 310.866 252.722 303.059C253.636 302.98 254.591 302.888 255.581 302.781C257.902 302.552 260.246 302.311 262.613 302.058C262.624 301.99 262.635 301.923 262.646 301.855C275.671 299.852 291.128 295.864 296.827 289.715C304.903 268.874 312.374 245.234 312.735 236.573C313.43 219.88 291.882 146.151 255.738 123.894C255.685 123.864 255.632 123.835 255.579 123.806C255.554 123.603 255.529 123.4 255.505 123.199C238.018 110.66 219.132 106.942 207.876 107.201C207.876 111.838 203.566 121.112 186.328 121.112C169.09 121.112 165.244 111.838 164.781 107.201Z" fill="white"/>
<path fill-rule="evenodd" clip-rule="evenodd" d="M165.924 105.901L166.041 107.075C166.249 109.152 167.221 112.314 170.118 114.959C173.002 117.593 177.94 119.845 186.328 119.845C194.72 119.845 199.777 117.591 202.721 114.951C205.681 112.298 206.609 109.165 206.609 107.201V105.962L207.847 105.934C219.357 105.669 238.517 109.458 256.243 122.168L256.694 122.492L256.761 123.037C275.021 134.48 289.447 158.637 299.218 181.828C304.152 193.536 307.929 205.071 310.431 214.736C312.922 224.357 314.182 232.251 314 236.626C313.812 241.142 311.802 249.368 308.886 258.946C305.953 268.578 302.056 279.728 298.008 290.173L297.92 290.399L297.755 290.577C294.67 293.906 289.108 296.521 282.875 298.546C276.875 300.495 270.054 301.96 263.748 302.965L263.707 303.216L262.748 303.318C260.379 303.572 258.034 303.813 255.711 304.042C254.716 304.149 253.756 304.242 252.835 304.321C170.911 312.136 118.069 305.319 101.33 300.681L100.5 300.451L100.409 299.594C99.6134 292.144 99.0748 279.51 98.8839 264.339C88.1915 264.146 80.513 261.096 75.2573 255.968C69.842 250.684 67.166 243.357 66.2516 235.188C64.5635 220.108 68.8303 201.703 73.6481 186.52L72.9954 185.605C73.5516 185.208 74.1534 184.371 74.8329 182.879C75.9203 179.617 77.0162 176.534 78.0626 173.7C81.0007 164.728 85.5214 151.79 95.6289 137.225C103.166 126.365 114.188 119.717 124.334 115.831C140.128 108.466 157.907 106.124 164.746 105.934L165.924 105.901ZM99.9693 262.34L101.397 262.548C101.561 277.903 102.076 290.738 102.839 298.462C120.07 302.983 172.185 309.468 252.602 301.797L252.614 301.796C253.518 301.718 254.464 301.626 255.445 301.521L255.456 301.52C257.46 301.322 259.48 301.115 261.517 300.9L261.543 300.742L262.454 300.602C268.924 299.607 275.973 298.122 282.093 296.134C288.144 294.168 293.08 291.772 295.735 289.025C299.732 278.696 303.572 267.699 306.462 258.207C309.391 248.59 311.296 240.665 311.469 236.52C311.634 232.548 310.462 224.966 307.979 215.372C305.507 205.823 301.768 194.405 296.884 182.813C287.088 159.563 272.8 135.902 255.097 124.987C255.055 124.964 255.014 124.942 254.973 124.919L254.401 124.607L254.315 123.908C237.786 112.216 220.077 108.475 209.059 108.456C208.73 110.99 207.398 114.162 204.412 116.84C200.891 119.996 195.175 122.38 186.328 122.38C177.479 122.38 171.874 119.995 168.41 116.832C165.46 114.138 164.167 110.976 163.694 108.515C156.407 108.905 139.975 111.325 125.364 118.148L125.323 118.167L125.281 118.183C115.419 121.954 104.874 128.349 97.7099 138.672C87.8033 152.947 83.3745 165.619 80.4629 174.512L80.4555 174.534L80.4473 174.557C79.3995 177.394 78.3026 180.48 77.2156 183.744C71.9647 199.509 67.0129 219.214 68.7695 234.906C69.645 242.727 72.1723 249.417 77.026 254.152C81.863 258.872 89.1777 261.813 99.9693 261.813V262.34Z" fill="#396961"/>
<path d="M155.748 48.7744C154.636 55.4517 155.748 64.7721 158.528 68.2499L164.089 56.4254C165.757 57.5383 173.588 57.8166 176.6 57.8166C188.278 57.2601 196.758 50.6292 199.538 47.3833C200.094 52.3913 207.647 65.6995 210.659 71.7276C214.366 66.1632 216.776 51.5566 213.44 37.6456C210.103 23.7346 200.928 23.039 195.368 24.4302C180.076 12.6058 162.699 13.9969 154.358 25.8213C147.685 35.2808 151.577 45.0648 155.748 48.7744Z" fill="#396961"/>
<path d="M306.484 263.004C295.362 241.303 300.923 211.301 305.094 199.013C307.179 206.896 311.627 224.61 312.739 232.4C313.852 240.19 309.032 256.048 306.484 263.004Z" fill="#396961"/>
<path d="M255.74 244.919C255.183 234.347 248.557 208.982 245.313 197.621C250.179 210.141 262.69 231.008 262.69 244.919C262.69 254.512 255.115 284.091 249.759 303.357H248.769C251.897 283.887 256.22 254.048 255.74 244.919Z" fill="#396961"/>
<path d="M184.877 100.388C175.98 100.388 170.512 96.6789 168.89 94.8241L168.195 101.78C183.765 110.683 197.852 105.489 202.949 101.78L202.254 94.8241C200.169 96.6789 193.774 100.388 184.877 100.388Z" fill="#396961"/>
<path d="M174.973 169.732C173.444 165.318 168.665 163.077 164.297 164.725L118.772 181.908C114.404 183.556 112.103 188.471 113.631 192.884L137 260.358C138.529 264.772 143.308 267.013 147.676 265.365L193.201 248.182C197.569 246.534 199.87 241.62 198.341 237.206L174.973 169.732Z" fill="white"/>
<path fill-rule="evenodd" clip-rule="evenodd" d="M176.158 169.285C174.401 164.21 168.905 161.632 163.883 163.528L118.357 180.71C113.335 182.606 110.689 188.256 112.446 193.331L135.815 260.806C137.572 265.881 143.068 268.458 148.09 266.563L193.616 249.38C198.638 247.484 201.284 241.834 199.527 236.759L176.158 169.285ZM164.712 165.923C168.425 164.522 172.488 166.427 173.788 170.179L197.156 237.654C198.456 241.406 196.499 245.583 192.786 246.984L147.261 264.167C143.548 265.568 139.485 263.663 138.185 259.911L114.817 192.437C113.517 188.685 115.474 184.507 119.187 183.106L164.712 165.923Z" fill="#396961"/>
<path d="M187.904 201.853C185.73 202.317 177.924 208.861 174.292 212.076C172.494 219.487 171.571 234.09 182.262 233.215C195.627 232.121 206.386 230.705 203.827 215.732C201.78 203.754 194.378 204.181 190.932 205.892C190.829 204.352 190.078 201.389 187.904 201.853Z" fill="white"/>
<path fill-rule="evenodd" clip-rule="evenodd" d="M175.367 232.228C177.052 233.881 179.377 234.723 182.366 234.478C185.704 234.205 188.94 233.908 191.858 233.375C194.77 232.842 197.452 232.061 199.655 230.773C201.887 229.468 203.625 227.642 204.601 225.078C205.565 222.542 205.739 219.399 205.076 215.519C204.011 209.287 201.485 205.942 198.437 204.528C196.153 203.47 193.788 203.596 191.927 204.148C191.787 203.601 191.587 203.034 191.309 202.519C191.01 201.966 190.578 201.39 189.952 200.998C189.29 200.583 188.499 200.43 187.64 200.613C187.188 200.709 186.701 200.932 186.246 201.176C185.768 201.432 185.234 201.762 184.668 202.139C183.535 202.893 182.214 203.878 180.864 204.934C178.161 207.051 175.281 209.508 173.453 211.126L173.155 211.39L173.061 211.777C172.141 215.567 171.419 221.274 172.351 225.998C172.817 228.365 173.725 230.619 175.367 232.228ZM175.432 212.76C174.602 216.364 174.035 221.442 174.836 225.507C175.25 227.607 176.004 229.303 177.14 230.418C178.232 231.488 179.802 232.144 182.159 231.951C185.503 231.678 188.624 231.388 191.402 230.88C194.186 230.372 196.54 229.658 198.377 228.584C200.186 227.526 201.493 226.122 202.233 224.176C202.984 222.201 203.195 219.552 202.579 215.946C201.596 210.199 199.398 207.769 197.371 206.829C195.284 205.861 192.988 206.286 191.495 207.027L189.796 207.871L189.668 205.977C189.623 205.31 189.435 204.382 189.08 203.724C188.906 203.401 188.737 203.227 188.607 203.147C188.513 203.088 188.395 203.044 188.168 203.093C188.075 203.113 187.843 203.196 187.441 203.411C187.061 203.615 186.601 203.897 186.072 204.249C185.017 204.952 183.752 205.892 182.425 206.931C179.916 208.895 177.24 211.169 175.432 212.76Z" fill="#396961"/>
<path d="M180.829 231.523L176.425 213.49C175.443 209.467 171.697 206.75 167.561 206.889C152.706 207.386 132.131 206.759 116.261 207.595L130.453 257.826C144.282 254.408 163.837 246.997 171.886 243.719L176.844 240.856C180.097 238.977 181.721 235.174 180.829 231.523Z" fill="white"/>
<path fill-rule="evenodd" clip-rule="evenodd" d="M142.29 205.847C133.308 205.857 124.166 205.909 116.194 206.329L116.328 208.861C124.225 208.445 133.306 208.392 142.293 208.383C143.463 208.381 144.631 208.381 145.795 208.38C153.557 208.377 161.121 208.373 167.603 208.156C171.168 208.037 174.361 210.378 175.195 213.791L179.598 231.824C180.356 234.928 178.976 238.161 176.211 239.758L171.328 242.578C163.241 245.868 143.839 253.212 130.149 256.595L130.757 259.057C144.678 255.616 164.303 248.176 172.363 244.894L172.444 244.861L177.477 241.954C181.218 239.793 183.085 235.421 182.06 231.222L177.656 213.189C176.524 208.557 172.226 205.464 167.519 205.622C161.082 205.838 153.565 205.841 145.797 205.845C144.633 205.845 143.463 205.846 142.29 205.847Z" fill="#396961"/>
<path d="M99.9716 263.081C110.878 262.561 128.319 258.534 135.676 256.585L136.975 259.833C132.301 263.99 110.791 271.526 100.621 274.774L99.9716 263.081Z" fill="#396961"/>
<path d="M98.0237 207.214H118.148L114.253 191.623L112.306 202.017L98.0237 207.214Z" fill="#396961"/>
<path d="M96.2787 262.473C85.1308 234.077 72.2093 224.866 67.1421 223.809C67.1421 229.725 68.4089 243.711 73.4761 252.332C78.5434 260.952 90.7892 262.684 96.2787 262.473Z" fill="#396961"/>
</svg>