<svg width="395" height="343" viewBox="0 0 395 343" fill="none" xmlns="http://www.w3.org/2000/svg">
<path d="M175.264 341.317H233.295H312.96C319.411 341.317 325.778 339.858 331.585 337.049C357.877 324.331 363.967 289.589 343.568 268.689L337.457 262.427C320.148 244.693 325.196 215.233 347.422 204.272C359.439 198.346 367.236 186.308 367.73 172.921L369.289 130.664C371.259 77.2725 314.657 41.7913 267.449 66.8255C246.217 78.0852 220.668 77.5556 199.921 65.4256L170.017 47.9427C149.897 36.1799 124.783 37.1413 105.622 50.4078C85.0192 64.6724 75.4636 90.2444 81.6642 114.522L81.8717 115.334C86.0013 131.503 83.3516 148.655 74.4893 162.796C72.2725 166.333 69.9913 169.969 67.7012 173.613C49.6216 202.388 47.6819 239.217 64.696 268.634C68.1291 274.57 71.7073 280.664 75.3687 286.787C96.2454 321.699 134.581 341.317 175.264 341.317Z" fill="#E4F1EF"/>
<path fill-rule="evenodd" clip-rule="evenodd" d="M159.695 175.085C160.49 175.955 161.854 175.968 162.689 175.137C216.342 121.75 308.768 127.506 362.719 176.896C363.594 177.697 364.962 177.611 365.714 176.693L383.481 155.011C384.165 154.175 384.088 152.948 383.295 152.216C318.888 92.7326 208.221 84.9048 141.384 152.135C140.617 152.906 140.592 154.154 141.325 154.958L159.695 175.085ZM332.21 222.08C331.502 222.946 330.227 223.076 329.341 222.394C286.396 189.284 233.302 189.718 192.82 222.276C191.908 223.009 190.564 222.858 189.861 221.922L174.637 201.65C173.979 200.773 174.129 199.524 174.979 198.833C227.015 156.557 294.653 157.025 348.528 198.789C349.434 199.491 349.581 200.812 348.855 201.7L332.21 222.08ZM220.15 267.186C220.868 268.109 222.206 268.24 223.121 267.514C243.753 251.141 273.396 251.798 295.563 268.083C296.474 268.752 297.758 268.598 298.453 267.705L314.741 246.797C315.438 245.902 315.279 244.605 314.373 243.925C282.087 219.704 237.454 216.871 204.544 243.909C203.696 244.606 203.567 245.858 204.241 246.725L220.15 267.186ZM257.365 306.038C265.804 306.038 272.645 299.18 272.645 290.721C272.645 282.261 265.804 275.403 257.365 275.403C248.926 275.403 242.085 282.261 242.085 290.721C242.085 299.18 248.926 306.038 257.365 306.038Z" fill="#396961"/>
<path fill-rule="evenodd" clip-rule="evenodd" d="M244.861 4.66271C244.788 4.78346 244.831 4.94355 244.953 5.01471C252.809 9.58683 255.175 20.5852 251.297 28.4758C251.234 28.6038 251.288 28.7611 251.418 28.8198L254.476 30.2059C254.594 30.2593 254.732 30.2111 254.79 30.0949C259.479 20.6583 256.753 7.45936 246.884 1.78695C246.771 1.72186 246.628 1.75873 246.56 1.87023L244.861 4.66271ZM245.136 26.3497C245.013 26.2945 244.957 26.1495 245.006 26.024C247.384 19.9412 245.597 13.7427 240.553 10.0462C240.439 9.96302 240.412 9.80094 240.496 9.68877L242.315 7.2597C242.393 7.15466 242.541 7.13237 242.648 7.20976C249.181 11.9476 251.34 19.8767 248.331 27.5148C248.28 27.6433 248.134 27.7027 248.009 27.6462L245.136 26.3497ZM236.315 14.6789C236.233 14.7924 236.262 14.9532 236.375 15.037C238.921 16.9281 239.816 20.4174 238.68 23.5314C238.634 23.6594 238.693 23.8047 238.818 23.8575L241.74 25.0953C241.865 25.1483 242.008 25.0883 242.056 24.9605C243.767 20.409 242.631 15.0961 238.464 12.1092C238.357 12.0323 238.21 12.0572 238.133 12.1638L236.315 14.6789ZM233.094 20.2746C233.37 21.262 234.377 21.8434 235.344 21.5731C236.31 21.3028 236.87 20.2832 236.594 19.2958C236.318 18.3084 235.311 17.7271 234.344 17.9974C233.377 18.2677 232.818 19.2872 233.094 20.2746Z" fill="#396961"/>
<path d="M94.0569 167.716L92.356 184.171C94.0563 186.819 99.3837 192.115 107.091 192.115C114.798 192.115 121.259 186.819 123.526 184.171L120.126 163.176C124.093 161.474 125.793 147.856 120.126 137.074C112.526 122.617 101.989 116.078 88.9548 122.889C79.1808 127.996 76.4874 140.479 78.7546 148.99C81.3488 158.729 89.5231 166.959 94.0569 167.716Z" fill="white"/>
<path fill-rule="evenodd" clip-rule="evenodd" d="M106.109 122.953C101.239 120.533 95.7043 120.554 89.443 123.825C84.8479 126.226 81.8847 130.376 80.3401 134.998C78.792 139.631 78.6956 144.668 79.7744 148.718C81.0225 153.404 83.6246 157.755 86.4738 161.027C87.8963 162.66 89.3641 164.005 90.7303 164.979C92.1138 165.966 93.322 166.522 94.2304 166.673L95.2088 166.836L93.4451 183.9C95.2242 186.448 100.148 191.058 107.091 191.058C110.705 191.058 114.065 189.815 116.821 188.221C119.323 186.774 121.274 185.069 122.404 183.844L118.952 162.53L119.71 162.205C120.292 161.955 121.006 161.136 121.607 159.526C122.187 157.972 122.581 155.888 122.684 153.485C122.89 148.677 121.926 142.768 119.192 137.567C115.442 130.434 111.041 125.404 106.109 122.953ZM107.047 121.06C112.541 123.79 117.209 129.258 121.059 136.582C123.993 142.162 125.012 148.452 124.793 153.575C124.683 156.137 124.262 158.451 123.585 160.266C123.051 161.696 122.299 162.97 121.283 163.719L124.646 184.486L124.327 184.859C123.116 186.273 120.842 188.336 117.876 190.051C114.908 191.768 111.184 193.172 107.091 193.172C98.9017 193.172 93.2853 187.572 91.4682 184.743L91.2681 184.431L92.913 168.517C91.8217 168.162 90.6612 167.525 89.5057 166.701C87.9831 165.615 86.3951 164.152 84.883 162.416C81.8631 158.948 79.0809 154.316 77.7349 149.263C76.5464 144.801 76.6631 139.341 78.3384 134.328C80.0172 129.304 83.2877 124.658 88.4665 121.952C95.2392 118.413 101.49 118.298 107.047 121.06Z" fill="#396961"/>
<path d="M209.881 73.9391L209.35 86.6824L228.494 88.2752C228.494 79.7797 231.152 80.8417 229.557 59.072C228.281 41.6562 218.745 38.0102 214.136 38.3642L216.795 64.3817L208.287 64.9126L206.691 51.6384C205.628 53.2313 203.181 57.4791 201.905 61.7268C200.629 65.9746 206.691 71.6382 209.881 73.9391Z" fill="white"/>
<path fill-rule="evenodd" clip-rule="evenodd" d="M215.305 39.4184L217.957 65.3679L207.358 66.0294L206.013 54.8414C204.944 56.8042 203.699 59.4252 202.916 62.0312C202.684 62.8005 202.764 63.7027 203.152 64.7304C203.539 65.7589 204.209 66.842 205.048 67.9099C206.726 70.0466 208.959 71.9719 210.498 73.0816L210.96 73.4144L210.446 85.7132L227.455 87.1285C227.528 84.7451 227.822 83.0667 228.13 81.3137C228.285 80.432 228.443 79.5314 228.577 78.5127C229.03 75.0933 229.299 69.9951 228.505 59.1493C227.88 50.6271 225.249 45.6305 222.36 42.8112C219.939 40.4486 217.282 39.5586 215.305 39.4184ZM223.833 41.2976C227.183 44.5667 229.958 50.1011 230.61 58.9946C231.41 69.9186 231.148 75.1743 230.67 78.7902C230.514 79.9668 230.344 80.9352 230.183 81.844C229.842 83.7789 229.549 85.4442 229.549 88.2752V89.4234L208.253 87.6515L208.803 74.4558C207.188 73.2345 205.056 71.3395 203.388 69.2162C202.472 68.0496 201.667 66.7765 201.177 65.4765C200.687 64.1757 200.487 62.777 200.894 61.4224C202.211 57.0407 204.715 52.6963 205.814 51.051L207.399 48.6781L209.215 63.7959L215.633 63.3954L212.976 37.3934L214.055 37.3105C216.659 37.1105 220.494 38.0395 223.833 41.2976Z" fill="#396961"/>
<path d="M202.975 21.1565L207.646 64.5104C207.709 65.0973 208.24 65.5185 208.825 65.4458L215.423 64.6257C215.999 64.554 216.41 64.0289 216.341 63.4512L211.152 20.1112C211.082 19.5266 210.549 19.112 209.966 19.1893L203.886 19.9955C203.318 20.0708 202.914 20.5861 202.975 21.1565Z" fill="white"/>
<path fill-rule="evenodd" clip-rule="evenodd" d="M209.827 18.1417C210.993 17.9872 212.06 18.8163 212.2 19.9854L217.389 63.3255C217.527 64.4809 216.706 65.531 215.553 65.6743L208.955 66.4945C207.785 66.6399 206.723 65.7975 206.597 64.6238L201.926 21.2698C201.803 20.1291 202.611 19.0986 203.747 18.9479L209.827 18.1417ZM210.104 20.2369L204.024 21.0431L204.024 21.0431L208.695 64.3971L215.293 63.577L210.104 20.2369Z" fill="#396961"/>
<path d="M106.523 185.873C114.511 185.873 121.34 180.437 123.929 177.546C124.038 177.424 124.158 177.334 124.308 177.271C138.132 171.455 179.644 149.537 182.463 145.586C185.296 141.614 199.464 87.1404 202.865 83.1684C206.265 79.1964 232.334 80.8987 234.601 87.1404C236.867 93.3821 231.767 158.069 222.7 177.362C215.532 192.613 184.164 217.984 168.84 229.168C168.502 229.415 168.349 229.814 168.437 230.223C174.882 260.164 185.93 321.105 179.629 330.568C173.282 340.1 135.425 341.727 117.29 341.349H17.1079C16.6873 341.349 16.3106 341.108 16.1445 340.721C11.1523 329.092 1.6804 304.504 1.6804 294.252C1.6804 281.201 23.7823 229.565 38.5169 206.301C50.1034 188.007 77.2396 179.544 90.0028 177.464C90.4072 177.398 90.7971 177.581 91.043 177.909C93.2607 180.868 98.8588 185.873 106.523 185.873Z" fill="white"/>
<path fill-rule="evenodd" clip-rule="evenodd" d="M233.318 84.1403C234.347 84.8392 235.203 85.706 235.592 86.7793C235.781 87.2981 235.903 88.0252 235.99 88.8614C236.079 89.7201 236.137 90.7742 236.167 91.9915C236.228 94.4276 236.178 97.5673 236.027 101.202C235.725 108.473 235.014 117.771 233.95 127.472C232.885 137.173 231.464 147.293 229.739 156.204C228.019 165.09 225.981 172.861 223.654 177.812C221.797 181.763 218.412 186.299 214.202 191.021C209.981 195.757 204.88 200.735 199.536 205.574C188.854 215.247 177.157 224.405 169.472 230.015C172.697 245.001 177.074 267.741 179.858 287.93C181.25 298.025 182.247 307.506 182.5 315.072C182.626 318.853 182.567 322.182 182.271 324.882C181.979 327.54 181.444 329.746 180.507 331.154C179.589 332.533 178.151 333.701 176.394 334.702C174.63 335.707 172.484 336.578 170.078 337.335C165.266 338.85 159.301 339.944 153.01 340.724C140.426 342.282 126.381 342.595 117.279 342.405H17.1079C16.2791 342.405 15.5129 341.926 15.1749 341.138C12.6703 335.304 9.04336 326.223 6.04031 317.308C4.53884 312.851 3.18908 308.423 2.21358 304.455C1.24237 300.506 0.625 296.946 0.625 294.252C0.625 290.798 2.06307 284.973 4.36106 277.947C6.67523 270.871 9.91003 262.437 13.6011 253.695C20.9789 236.222 30.214 217.437 37.6256 205.735C43.5703 196.349 53.4527 189.55 63.3667 184.847C73.2935 180.138 83.3649 177.475 89.8333 176.421C90.6732 176.284 91.4363 176.673 91.8872 177.275C93.9953 180.088 99.3163 184.816 106.523 184.816C110.28 184.816 113.805 183.536 116.73 181.874C119.656 180.212 121.922 178.204 123.143 176.84C123.344 176.616 123.589 176.427 123.899 176.297C130.762 173.409 144.559 166.496 157.013 159.798C163.235 156.452 169.104 153.168 173.589 150.479C175.832 149.133 177.717 147.943 179.122 146.973C179.826 146.487 180.397 146.065 180.828 145.711C181.278 145.342 181.514 145.098 181.604 144.971C181.706 144.828 181.889 144.48 182.149 143.863C182.398 143.272 182.689 142.502 183.019 141.573C183.677 139.715 184.471 137.262 185.36 134.402C186.876 129.522 188.657 123.494 190.49 117.288C190.805 116.221 191.122 115.149 191.439 114.077C193.599 106.773 195.781 99.455 197.637 93.7129C198.564 90.8431 199.414 88.3532 200.142 86.4498C200.506 85.4989 200.845 84.681 201.152 84.0294C201.446 83.4043 201.751 82.8455 202.063 82.4807C202.688 81.7511 203.706 81.2703 204.801 80.9327C205.933 80.5838 207.313 80.3391 208.832 80.1843C211.874 79.8743 215.594 79.9126 219.261 80.2725C222.924 80.6321 226.589 81.318 229.509 82.3293C230.967 82.8345 232.278 83.4339 233.318 84.1403ZM205.422 82.9526C204.432 83.2577 203.891 83.5927 203.666 83.8561C203.553 83.9878 203.349 84.32 203.061 84.9312C202.785 85.5158 202.468 86.2794 202.113 87.2059C201.405 89.0573 200.568 91.5058 199.645 94.3635C197.799 100.076 195.624 107.37 193.463 114.677C193.147 115.747 192.83 116.818 192.515 117.884C190.683 124.089 188.897 130.134 187.376 135.03C186.484 137.897 185.68 140.382 185.008 142.279C184.672 143.227 184.365 144.039 184.094 144.684C183.833 145.304 183.573 145.847 183.322 146.2C183.06 146.567 182.64 146.957 182.166 147.346C181.673 147.751 181.05 148.21 180.321 148.713C178.862 149.72 176.934 150.936 174.673 152.292C170.149 155.005 164.248 158.306 158.012 161.66C145.553 168.361 131.686 175.312 124.723 178.242C124.721 178.244 124.718 178.247 124.715 178.251C123.347 179.778 120.904 181.934 117.771 183.713C114.638 185.492 110.753 186.93 106.523 186.93C98.4013 186.93 92.5262 181.649 90.1988 178.544C90.1834 178.523 90.1695 178.513 90.1625 178.509C83.8672 179.536 73.9941 182.144 64.2705 186.757C54.5289 191.379 45.05 197.959 39.4082 206.866C32.0852 218.429 22.9021 237.094 15.5453 254.518C11.869 263.225 8.65745 271.601 6.36705 278.604C4.06048 285.657 2.73581 291.18 2.73581 294.252C2.73581 296.684 3.30242 300.043 4.26319 303.95C5.21967 307.84 6.54988 312.208 8.04041 316.633C11.0193 325.476 14.6216 334.497 17.1091 340.292H117.301L117.312 340.292C126.346 340.481 140.291 340.169 152.751 338.626C158.984 337.854 164.807 336.779 169.445 335.319C171.763 334.589 173.758 333.772 175.35 332.865C176.949 331.954 178.082 330.985 178.751 329.981C179.389 329.023 179.887 327.255 180.172 324.652C180.453 322.091 180.514 318.873 180.39 315.142C180.141 307.684 179.155 298.285 177.767 288.219C174.992 268.093 170.624 245.4 167.405 230.446C167.228 229.625 167.545 228.806 168.218 228.314C175.857 222.739 187.5 213.623 198.12 204.006C203.431 199.198 208.473 194.274 212.628 189.614C216.794 184.94 220.018 180.585 221.745 176.912C223.952 172.216 225.951 164.666 227.667 155.802C229.378 146.964 230.791 136.904 231.851 127.242C232.912 117.579 233.618 108.33 233.918 101.114C234.068 97.5044 234.116 94.4157 234.057 92.0441C234.027 90.8577 233.971 89.8632 233.89 89.0791C233.807 88.2726 233.704 87.7628 233.609 87.5015C233.432 87.0144 232.977 86.4626 232.133 85.8892C231.3 85.3233 230.176 84.7967 228.819 84.3266C226.107 83.3874 222.617 82.7256 219.055 82.3759C215.496 82.0266 211.919 81.994 209.046 82.2869C207.607 82.4335 206.375 82.6587 205.422 82.9526Z" fill="#396961"/>
<path d="M48.717 298.224C48.2636 305.487 53.4396 330 56.0843 341.349H62.319C59.1076 329.811 52.7982 305.374 53.2515 299.926C53.7049 294.479 62.8857 270.042 67.4194 258.504C61.3742 268.718 49.1703 290.961 48.717 298.224Z" fill="#396961"/>
<path d="M206.832 197.222C207.738 175.886 222.7 157.691 230.067 151.26C228.745 156.934 225.42 170.099 222.7 177.362C219.979 184.625 210.987 193.628 206.832 197.222Z" fill="#396961"/>
<path d="M12.4488 294.252C13.3556 283.357 10.9376 271.177 9.61524 266.448C7.15947 272.312 2.02125 286.081 1.1145 294.252C0.207759 302.423 4.13699 312.41 6.21495 316.382C7.91509 313.545 11.5421 305.147 12.4488 294.252Z" fill="#396961"/>
<path d="M95.1887 155.799C94.9998 160.338 94.5086 169.758 94.0553 171.12C89.5216 169.607 78.7542 164.424 71.9536 155.799C65.153 147.174 70.2537 139.722 73.6541 137.074C72.5207 136.506 72.0673 131.173 79.3213 114.377C88.3887 93.3819 111.624 101.326 112.191 114.377C112.644 124.817 99.1563 131.589 92.3557 133.669C92.9225 138.209 101.423 151.827 95.1887 147.855C88.9548 143.883 84.4211 144.45 86.1212 151.827C87.4813 157.728 92.7329 156.934 95.1887 155.799Z" fill="#396961"/>
<path d="M107.656 166.581C115.364 166.127 119.179 164.122 120.124 163.176L121.257 169.418C115.817 170.326 109.923 167.905 107.656 166.581Z" fill="#396961"/>
<path d="M307.134 302.198C305.327 318.29 310.296 334.747 313.235 340.934H322.77C322.433 321.428 315.499 307.604 310.406 301.174C309.316 299.797 307.331 300.453 307.134 302.198Z" fill="#396961"/>
<path d="M335.451 239.673C312.369 267.724 313.304 317.943 316.75 339.93H340.334C358.13 278.592 347.266 248.443 338.396 239.461C337.559 238.613 336.208 238.753 335.451 239.673Z" fill="white"/>
<path fill-rule="evenodd" clip-rule="evenodd" d="M337.586 240.261C337.28 239.951 336.711 239.933 336.33 240.396C324.99 254.177 319.493 273.491 317.283 292.209C315.139 310.366 316.105 327.816 317.728 338.792H339.478C348.14 308.639 349.801 286.178 348.232 270.173C346.647 253.995 341.773 244.5 337.586 240.261ZM334.573 238.95C335.705 237.573 337.837 237.276 339.205 238.661C343.889 243.404 348.882 253.474 350.497 269.951C352.115 286.456 350.355 309.476 341.427 340.247L341.189 341.068H315.776L315.625 340.107C313.888 329.021 312.788 310.865 315.022 291.942C317.254 273.04 322.831 253.219 334.573 238.95Z" fill="#396961"/>
<path d="M362.057 279.959C343.073 296.585 335.982 327.465 334.813 340.934H350.735C365.77 318.468 366.968 293.495 365.407 281.218C365.197 279.569 363.308 278.864 362.057 279.959Z" fill="#396961"/>
<path fill-rule="evenodd" clip-rule="evenodd" d="M336.315 269.791L337.951 254.243L335.688 254.005L331.957 289.449L325.229 279.095L323.321 280.335L331.578 293.044L328.444 322.823L321.638 314.616L319.886 316.069L328.111 325.987L326.656 339.811L328.919 340.05L331.877 311.947L341.007 305.219L339.657 303.387L332.2 308.882L335.996 272.817L344.005 267.093L342.681 265.241L336.315 269.791Z" fill="#396961"/>
<path fill-rule="evenodd" clip-rule="evenodd" d="M357.052 302.21L360.971 291.652L358.837 290.86L350.274 313.933L348.438 308.457L346.28 309.181L349.013 317.33L340.772 339.534L342.906 340.326L346.936 329.467L354.374 325.903L353.39 323.85L348.076 326.397L355.959 305.156L361.356 302.84L360.459 300.748L357.052 302.21Z" fill="white"/>
<path d="M393.315 175.168C393.315 200.351 372.9 220.766 347.717 220.766C322.534 220.766 302.119 200.351 302.119 175.168C302.119 149.985 322.534 129.57 347.717 129.57C372.9 129.57 393.315 149.985 393.315 175.168Z" fill="white"/>
<path fill-rule="evenodd" clip-rule="evenodd" d="M347.717 130.631C323.119 130.631 303.179 150.571 303.179 175.168C303.179 199.765 323.119 219.705 347.717 219.705C372.314 219.705 392.254 199.765 392.254 175.168C392.254 150.571 372.314 130.631 347.717 130.631ZM301.059 175.168C301.059 149.399 321.948 128.51 347.717 128.51C373.485 128.51 394.375 149.399 394.375 175.168C394.375 200.937 373.485 221.826 347.717 221.826C321.948 221.826 301.059 200.937 301.059 175.168Z" fill="#396961"/>
<path fill-rule="evenodd" clip-rule="evenodd" d="M333.99 175.531C334.404 175.945 334.404 176.617 333.989 177.031L321.403 189.618C320.988 190.032 320.988 190.703 321.403 191.117L333.99 203.705C334.404 204.119 335.076 204.119 335.49 203.705L348.077 191.118C348.491 190.704 349.162 190.704 349.576 191.118L362.163 203.705C362.577 204.119 363.249 204.119 363.663 203.705L376.25 191.117C376.664 190.703 376.664 190.032 376.25 189.618L363.663 177.031C363.249 176.617 363.249 175.945 363.663 175.531L376.251 162.943C376.666 162.529 376.666 161.858 376.251 161.443L363.664 148.856C363.25 148.442 362.578 148.442 362.164 148.856L349.576 161.444C349.162 161.858 348.491 161.858 348.077 161.444L335.489 148.856C335.075 148.442 334.403 148.442 333.989 148.856L321.402 161.444C320.987 161.858 320.987 162.529 321.402 162.943L333.99 175.531Z" fill="#396961"/>
</svg>