<svg width="24" height="24" viewBox="0 0 24 24" fill="none" xmlns="http://www.w3.org/2000/svg">
<path d="M19.5 2.99951H17.25V2.24951C17.25 2.0506 17.171 1.85983 17.0303 1.71918C16.8897 1.57853 16.6989 1.49951 16.5 1.49951C16.3011 1.49951 16.1103 1.57853 15.9697 1.71918C15.829 1.85983 15.75 2.0506 15.75 2.24951V2.99951H8.25V2.24951C8.25 2.0506 8.17098 1.85983 8.03033 1.71918C7.88968 1.57853 7.69891 1.49951 7.5 1.49951C7.30109 1.49951 7.11032 1.57853 6.96967 1.71918C6.82902 1.85983 6.75 2.0506 6.75 2.24951V2.99951H4.5C4.1023 2.9999 3.72099 3.15807 3.43977 3.43929C3.15855 3.7205 3.00039 4.10181 3 4.49951V19.4995C3.00039 19.8972 3.15855 20.2785 3.43977 20.5597C3.72099 20.841 4.1023 20.9991 4.5 20.9995H19.5C19.8977 20.9991 20.279 20.841 20.5602 20.5597C20.8414 20.2785 20.9996 19.8972 21 19.4995V4.49951C20.9996 4.10181 20.8414 3.7205 20.5602 3.43929C20.279 3.15807 19.8977 2.9999 19.5 2.99951ZM9.75055 17.6245C9.45518 17.6253 9.16258 17.5676 8.88967 17.4546C8.61675 17.3417 8.36892 17.1757 8.16051 16.9664C8.01977 16.8259 7.94064 16.6351 7.94053 16.4362C7.94041 16.2373 8.01932 16.0465 8.15989 15.9058C8.30046 15.765 8.49118 15.6859 8.69009 15.6858C8.889 15.6857 9.07982 15.7646 9.22055 15.9052C9.3078 15.9923 9.4152 16.0566 9.53322 16.0923C9.65125 16.1281 9.77627 16.1341 9.89721 16.11C10.0181 16.0859 10.1313 16.0323 10.2266 15.9541C10.3219 15.8758 10.3964 15.7752 10.4435 15.6613C10.4907 15.5474 10.509 15.4235 10.4969 15.3008C10.4848 15.1781 10.4426 15.0603 10.3741 14.9577C10.3056 14.8552 10.2128 14.7712 10.104 14.713C9.99528 14.6549 9.87387 14.6245 9.75055 14.6245H9.75009C9.72675 14.6245 9.7034 14.6231 9.6801 14.6209C9.67264 14.6203 9.66536 14.6191 9.65799 14.6182C9.64238 14.6163 9.62682 14.614 9.6113 14.6111C9.60265 14.6095 9.59409 14.6076 9.58553 14.6057C9.57143 14.6025 9.55738 14.5989 9.54342 14.5949C9.5349 14.5924 9.52639 14.59 9.51801 14.5873C9.50391 14.5827 9.48995 14.5774 9.47608 14.572C9.46853 14.569 9.46088 14.5663 9.45346 14.5631C9.43731 14.5561 9.42142 14.5482 9.40558 14.54C9.40101 14.5376 9.3962 14.5356 9.39167 14.5331C9.37189 14.5223 9.35248 14.5105 9.33344 14.4978C9.32703 14.4935 9.32108 14.4886 9.31481 14.4841C9.30382 14.4763 9.2927 14.4687 9.28203 14.4602C9.28066 14.4591 9.27947 14.4578 9.2781 14.4567C9.26679 14.4475 9.25617 14.4376 9.24541 14.4277C9.23758 14.4206 9.22934 14.4137 9.22188 14.4063C9.21465 14.3991 9.2081 14.3913 9.20114 14.3838C9.11039 14.2859 9.04728 14.1656 9.01827 14.0353C9.01776 14.0329 9.01694 14.0306 9.01644 14.0282C9.01383 14.0156 9.01227 14.0026 9.0103 13.9897C9.00852 13.9781 9.00623 13.9665 9.00499 13.9548C9.00394 13.9452 9.0038 13.9353 9.00312 13.9256C9.00206 13.9102 9.00092 13.8949 9.00083 13.8795C9.00078 13.8778 9.00055 13.8762 9.00055 13.8745C9.00055 13.8667 9.00147 13.8592 9.00174 13.8514C9.0022 13.8359 9.00265 13.8204 9.00407 13.8049C9.00503 13.7944 9.00668 13.7841 9.00811 13.7738C9.00998 13.7598 9.01181 13.7459 9.01447 13.732C9.01662 13.7209 9.01941 13.71 9.02202 13.6991C9.02509 13.6863 9.02811 13.6735 9.03186 13.6608C9.03525 13.6495 9.03924 13.6384 9.04313 13.6273C9.04729 13.6154 9.05137 13.6035 9.05613 13.5918C9.0608 13.5803 9.06611 13.5692 9.07132 13.558C9.07645 13.5471 9.08139 13.5361 9.08707 13.5254C9.09321 13.5137 9.10007 13.5024 9.1068 13.4911C9.11262 13.4814 9.1182 13.4716 9.12447 13.462C9.13244 13.45 9.14109 13.4386 9.14969 13.427C9.15491 13.4201 9.1594 13.4128 9.16489 13.4059L9.69008 12.7495H8.62555C8.42664 12.7495 8.23587 12.6705 8.09522 12.5298C7.95457 12.3892 7.87555 12.1984 7.87555 11.9995C7.87555 11.8006 7.95457 11.6098 8.09522 11.4692C8.23587 11.3285 8.42664 11.2495 8.62555 11.2495H11.2505C11.3918 11.2495 11.5302 11.2894 11.6498 11.3646C11.7694 11.4398 11.8653 11.5473 11.9265 11.6746C11.9877 11.802 12.0117 11.944 11.9958 12.0844C11.9798 12.2247 11.9245 12.3578 11.8362 12.4681L11.0047 13.5074C11.4051 13.7762 11.7086 14.1665 11.8703 14.6208C12.032 15.0751 12.0435 15.5693 11.9029 16.0306C11.7624 16.4919 11.4774 16.8958 11.0898 17.1828C10.7023 17.4698 10.2328 17.6246 9.75055 17.6245ZM15.7505 16.8745C15.7505 17.0734 15.6715 17.2642 15.5309 17.4048C15.3902 17.5455 15.1995 17.6245 15.0005 17.6245C14.8016 17.6245 14.6109 17.5455 14.4702 17.4048C14.3296 17.2642 14.2505 17.0734 14.2505 16.8745V13.4995L13.9505 13.7245C13.7914 13.8439 13.5914 13.8951 13.3944 13.867C13.1975 13.8388 13.0199 13.7336 12.9005 13.5745C12.7812 13.4154 12.7299 13.2153 12.7581 13.0184C12.7862 12.8215 12.8914 12.6438 13.0506 12.5245L14.5506 11.3995C14.662 11.3159 14.7945 11.265 14.9332 11.2525C15.0719 11.24 15.2114 11.2664 15.336 11.3287C15.4605 11.391 15.5653 11.4868 15.6385 11.6052C15.7118 11.7237 15.7505 11.8602 15.7505 11.9995V16.8745ZM19.5 7.49951H4.5V4.49951H6.75V5.24951C6.75 5.44842 6.82902 5.63919 6.96967 5.77984C7.11032 5.92049 7.30109 5.99951 7.5 5.99951C7.69891 5.99951 7.88968 5.92049 8.03033 5.77984C8.17098 5.63919 8.25 5.44842 8.25 5.24951V4.49951H15.75V5.24951C15.75 5.44842 15.829 5.63919 15.9697 5.77984C16.1103 5.92049 16.3011 5.99951 16.5 5.99951C16.6989 5.99951 16.8897 5.92049 17.0303 5.77984C17.171 5.63919 17.25 5.44842 17.25 5.24951V4.49951H19.5V7.49951Z" fill="#000"/>
</svg>
