<svg width="24" height="24" viewBox="0 0 24 24" fill="none" xmlns="http://www.w3.org/2000/svg">
<path d="M12 9.75V13.5" stroke="#FF4C4C" stroke-width="2" stroke-linecap="round" stroke-linejoin="round"/>
<path d="M10.7025 3.74857L2.45472 17.9978C2.32275 18.2258 2.25315 18.4846 2.25293 18.748C2.25271 19.0115 2.32188 19.2703 2.45348 19.4986C2.58508 19.7268 2.77446 19.9163 3.00257 20.0481C3.23069 20.1799 3.48949 20.2493 3.75293 20.2493H20.2485C20.5119 20.2493 20.7707 20.1799 20.9988 20.0481C21.227 19.9163 21.4163 19.7268 21.5479 19.4986C21.6795 19.2703 21.7487 19.0115 21.7485 18.748C21.7483 18.4846 21.6787 18.2258 21.5467 17.9978L13.2989 3.74857C13.1672 3.52093 12.9778 3.33193 12.75 3.20055C12.5221 3.06916 12.2637 3 12.0007 3C11.7377 3 11.4793 3.06916 11.2514 3.20055C11.0236 3.33193 10.8343 3.52093 10.7025 3.74857V3.74857Z" stroke="#FF4C4C" stroke-width="2" stroke-linecap="round" stroke-linejoin="round"/>
<path d="M12 18C12.6213 18 13.125 17.4963 13.125 16.875C13.125 16.2537 12.6213 15.75 12 15.75C11.3787 15.75 10.875 16.2537 10.875 16.875C10.875 17.4963 11.3787 18 12 18Z" fill="#FF4C4C"/>
</svg>
