<?xml version="1.0" encoding="UTF-8"?>
<svg xmlns="http://www.w3.org/2000/svg" xmlns:xlink="http://www.w3.org/1999/xlink" width="250" height="300" viewBox="0 0 2500 2500">
<path fill-rule="nonzero" fill="rgb(72.851562%, 0%, 0%)" fill-opacity="1" d="M 1482.671875 754.351562 L 1900.089844 1477.339844 C 1924.75 1520.058594 1937.078125 1565.859375 1937.078125 1611.65625 C 1937.078125 1657.574219 1924.75 1703.441406 1900.089844 1746.15625 C 1875.550781 1788.664062 1842.011719 1822.199219 1802.171875 1845.199219 C 1762.128906 1868.320312 1716.261719 1880.660156 1667.261719 1880.660156 L 832.421875 1880.660156 C 783.421875 1880.660156 737.550781 1868.320312 697.507812 1845.199219 C 657.667969 1822.199219 624.132812 1788.664062 599.589844 1746.15625 C 574.925781 1703.441406 562.59375 1657.574219 562.59375 1611.65625 C 562.59375 1565.859375 574.925781 1520.058594 599.589844 1477.339844 L 599.589844 1477.160156 L 808.300781 1115.660156 L 808.378906 1115.710938 L 1017.011719 754.351562 L 1017.011719 754.160156 C 1041.550781 711.648438 1075.089844 678.121094 1114.929688 655.121094 C 1154.96875 632 1200.839844 619.660156 1249.839844 619.660156 C 1298.839844 619.660156 1344.710938 632 1384.75 655.121094 C 1424.589844 678.121094 1458.128906 711.648438 1482.671875 754.160156 Z M 1608.511719 1163.46875 L 1399.878906 802.121094 L 1399.800781 802.160156 C 1383.761719 774.390625 1362.179688 752.671875 1336.75 738 C 1311.53125 723.429688 1281.988281 715.660156 1249.839844 715.660156 C 1217.691406 715.660156 1188.148438 723.429688 1162.929688 738 C 1137.5 752.671875 1115.921875 774.390625 1099.878906 802.160156 L 1099.800781 802.121094 L 891.171875 1163.46875 L 891.171875 1163.660156 L 682.464844 1525.15625 L 682.382812 1525.109375 C 666.523438 1552.628906 658.59375 1582.140625 658.59375 1611.65625 C 658.59375 1641.101562 666.550781 1670.597656 682.464844 1698.15625 C 698.496094 1725.925781 720.082031 1747.644531 745.507812 1762.324219 C 770.730469 1776.886719 800.269531 1784.660156 832.421875 1784.660156 L 1667.261719 1784.660156 C 1699.410156 1784.660156 1728.949219 1776.886719 1754.171875 1762.324219 C 1779.601562 1747.644531 1801.179688 1725.925781 1817.21875 1698.15625 C 1833.128906 1670.597656 1841.078125 1641.101562 1841.078125 1611.65625 C 1841.078125 1582.089844 1833.128906 1552.527344 1817.21875 1524.96875 L 1608.511719 1163.46875 "/>
<path fill-rule="evenodd" fill="rgb(72.851562%, 0%, 0%)" fill-opacity="1" d="M 1167.21875 1010.320312 C 1140.238281 1112.878906 1207.300781 1281.480469 1206.761719 1463.601562 C 1206.691406 1485.160156 1292.988281 1485.160156 1292.921875 1463.601562 C 1292.371094 1278.351562 1361.761719 1107.089844 1330.988281 1005.089844 C 1299.878906 901.980469 1194.300781 907.359375 1167.21875 1010.320312 "/>
<path fill-rule="evenodd" fill="rgb(72.851562%, 0%, 0%)" fill-opacity="1" d="M 1249.839844 1513.433594 C 1206.738281 1513.433594 1171.808594 1548.371094 1171.808594 1591.46875 C 1171.808594 1634.5625 1206.738281 1669.5 1249.839844 1669.5 C 1292.941406 1669.5 1327.871094 1634.5625 1327.871094 1591.46875 C 1327.871094 1548.371094 1292.941406 1513.433594 1249.839844 1513.433594 "/>
</svg>
