<svg width="46" height="42" viewBox="0 0 46 42" fill="none" xmlns="http://www.w3.org/2000/svg">
<path d="M45.0885 34.1811L27.2199 3.30615C26.7912 2.56673 26.1758 1.95295 25.4352 1.52627C24.6946 1.09959 23.8549 0.875 23.0003 0.875C22.1456 0.875 21.3059 1.09959 20.5653 1.52627C19.8248 1.95295 19.2093 2.56673 18.7807 3.30615V3.30774L0.912006 34.1811C0.482995 34.9221 0.25669 35.7629 0.255862 36.6191C0.255033 37.4752 0.47971 38.3165 0.907286 39.0582C1.33486 39.8 1.95026 40.416 2.69154 40.8444C3.43283 41.2728 4.27387 41.4983 5.13002 41.4984H40.8705C41.7267 41.4983 42.5677 41.2728 43.309 40.8444C44.0503 40.416 44.6657 39.8 45.0932 39.0582C45.5208 38.3165 45.7455 37.4752 45.7447 36.6191C45.7438 35.7629 45.5175 34.9221 45.0885 34.1811ZM21.3737 17.125C21.3737 16.694 21.5449 16.2807 21.8496 15.9759C22.1544 15.6712 22.5677 15.5 22.9987 15.5C23.4297 15.5 23.843 15.6712 24.1477 15.9759C24.4525 16.2807 24.6237 16.694 24.6237 17.125V25.25C24.6237 25.681 24.4525 26.0943 24.1477 26.399C23.843 26.7038 23.4297 26.875 22.9987 26.875C22.5677 26.875 22.1544 26.7038 21.8496 26.399C21.5449 26.0943 21.3737 25.681 21.3737 25.25V17.125ZM22.9999 35.0006C22.5178 35.0006 22.0465 34.8576 21.6457 34.5898C21.2448 34.322 20.9324 33.9413 20.7479 33.4959C20.5634 33.0505 20.5152 32.5604 20.6092 32.0876C20.7033 31.6147 20.9354 31.1804 21.2763 30.8395C21.6172 30.4986 22.0515 30.2665 22.5243 30.1724C22.9972 30.0784 23.4873 30.1266 23.9327 30.3111C24.378 30.4956 24.7587 30.808 25.0266 31.2089C25.2944 31.6097 25.4374 32.081 25.4374 32.5631C25.4373 33.2095 25.1805 33.8295 24.7234 34.2866C24.2663 34.7437 23.6463 35.0005 22.9999 35.0006Z" fill="#FF4C4C"/>
</svg>