<svg width="100" height="80" viewBox="0 0 1641 906" fill="none" xmlns="http://www.w3.org/2000/svg">
<g opacity="0.7" filter="url(#filter0_bd_9244_130696)">
<path d="M49 40H1581.71C1587.57 40 1592.32 44.7502 1592.32 50.6098V838.39C1592.32 844.25 1587.57 849 1581.71 849H49V40Z" fill="#396961"/>
</g>
<mask id="path-2-inside-1_9244_130696" fill="white">
<path d="M114.895 103.659H507.458C513.318 103.659 518.068 108.409 518.068 114.269V225.672C518.068 231.532 513.318 236.282 507.458 236.282H114.895V103.659Z"/>
</mask>
<path d="M114.895 103.659H518.068H114.895ZM518.068 236.282H114.895H518.068ZM88.2059 236.282V103.659H141.583V236.282H88.2059ZM518.068 103.659V236.282V103.659Z" fill="#0D9D68" mask="url(#path-2-inside-1_9244_130696)"/>
<mask id="mask0_9244_130696" style="mask-type:luminance" maskUnits="userSpaceOnUse" x="221" y="116" width="218" height="108">
<path d="M438.494 116.593H221.649V223.348H438.494V116.593Z" fill="white"/>
</mask>
<g mask="url(#mask0_9244_130696)">
</g>
<g clip-path="url(#clip0_9244_130696)">
<path fill-rule="evenodd" clip-rule="evenodd" d="M251.263 206.905H221.649L234.652 150.486C237.043 140.251 246.146 132.994 256.675 132.994H286.289L273.285 189.413C270.894 199.648 261.792 206.905 251.263 206.905ZM233.814 188.448L240.484 159.589C241.574 154.849 245.769 151.493 250.635 151.451H277.061C275.971 156.275 271.692 159.673 266.742 159.673H248.663L247.237 165.839H268.84C267.749 170.663 263.47 174.06 258.521 174.06H245.349L243.881 180.436C242.791 185.134 238.638 188.448 233.814 188.448Z" fill="white"/>
<path fill-rule="evenodd" clip-rule="evenodd" d="M344.051 116.593H314.394C303.866 116.593 294.763 123.85 292.372 134.085L271.776 223.348H301.433C311.961 223.348 321.106 216.091 323.455 205.856L344.051 116.593ZM322.406 151.493C326.349 151.493 329.285 155.184 328.404 159.043L326.726 166.216C325.678 170.788 321.567 174.06 316.869 174.06H298.916L297.447 180.394C296.357 185.134 292.162 188.448 287.338 188.448L295.853 151.493H322.406ZM300.761 165.881H318.547L319.973 159.714H302.187L300.761 165.881Z" fill="white"/>
<path fill-rule="evenodd" clip-rule="evenodd" d="M359.068 206.905H329.453L342.457 150.486C344.848 140.251 353.95 132.994 364.479 132.994H394.093L381.09 189.413C378.699 199.648 369.596 206.905 359.068 206.905ZM347.992 151.493H375.887C379.83 151.493 382.724 155.142 381.801 159.001L381.634 159.715H368.043L363.177 180.73C362.128 185.26 358.102 188.448 353.487 188.448H353.068L359.695 159.715H353.823C349.88 159.715 346.944 156.023 347.825 152.164L347.992 151.493Z" fill="white"/>
<path d="M392.037 194.572C388.639 194.572 385.87 197.341 385.87 200.738C385.87 204.136 388.639 206.905 392.037 206.905C395.434 206.905 398.203 204.136 398.203 200.738C398.203 197.341 395.476 194.572 392.037 194.572ZM392.037 205.353C389.478 205.353 387.422 203.297 387.422 200.738C387.422 198.18 389.478 196.124 392.037 196.124C394.595 196.124 396.651 198.18 396.651 200.738C396.693 203.297 394.595 205.353 392.037 205.353Z" fill="white"/>
<path d="M392.289 201.577H391.283V203.843H390.024V197.676H392.331C393.044 197.676 393.632 197.844 394.009 198.18C394.387 198.515 394.596 198.977 394.596 199.564C394.596 199.983 394.512 200.319 394.345 200.613C394.177 200.906 393.883 201.116 393.506 201.284L394.848 203.801V203.843H393.506L392.289 201.577ZM391.283 200.529H392.289C392.625 200.529 392.835 200.445 393.044 200.277C393.212 200.109 393.296 199.9 393.296 199.606C393.296 199.312 393.212 199.103 393.044 198.935C392.877 198.767 392.625 198.683 392.289 198.683H391.283V200.529Z" fill="white"/>
<path d="M413.053 188.112V160.134H417.416V188.112H413.053Z" fill="white"/>
<path d="M433.859 186.309C432.139 187.819 429.832 188.532 426.938 188.532C424.127 188.532 421.82 188.029 419.974 187.064L421.484 183.289C423.12 184.169 424.882 184.631 426.77 184.631C428.322 184.631 429.58 184.253 430.503 183.498C431.468 182.743 431.929 181.737 431.929 180.436C431.929 178.674 430.419 177.164 427.441 175.822C425.218 174.815 423.624 173.851 422.617 172.886C421.065 171.46 420.268 169.656 420.268 167.559C420.268 165.168 421.065 163.238 422.701 161.812C424.295 160.386 426.434 159.673 429.119 159.673C431.678 159.673 433.775 160.176 435.411 161.141L434.027 164.706C432.516 163.867 430.922 163.448 429.287 163.448C427.902 163.448 426.77 163.783 425.931 164.496C425.092 165.21 424.672 166.132 424.672 167.349C424.672 169.069 426.224 170.621 429.37 172.047C431.552 173.054 433.146 174.018 434.068 174.899C435.621 176.325 436.376 178.129 436.376 180.226C436.418 182.785 435.579 184.799 433.859 186.309Z" fill="white"/>
</g>
<path d="M178.405 680.125L116.489 495.146H159.305L201.608 640.514H202.377L244.551 495.146H287.495L225.579 680.125H178.405ZM347.873 682.945C305.826 682.945 280.316 655.64 280.316 611.671V611.543C280.316 567.83 306.083 539.885 346.334 539.885C386.586 539.885 411.839 567.189 411.839 608.723V620.26H317.235C317.62 642.18 329.541 654.999 348.642 654.999C364.024 654.999 373.382 646.539 376.074 638.847L376.331 638.078H410.686L410.301 639.488C406.071 659.742 387.099 682.945 347.873 682.945ZM346.975 567.83C331.592 567.83 320.055 578.085 317.62 596.673H375.946C373.639 577.701 362.486 567.83 346.975 567.83ZM431.196 680.125V542.705H468.628V566.676H469.397C473.499 549.755 484.651 539.885 500.675 539.885C504.777 539.885 508.623 540.526 511.443 541.295V574.24C508.366 572.958 503.239 572.188 497.855 572.188C479.396 572.188 468.628 583.213 468.628 603.21V680.125H431.196ZM581.435 682.945C550.926 682.945 536.568 671.151 536.568 641.667V570.907H517.468V542.705H536.568V509.119H574.384V542.705H599.51V570.907H574.384V637.565C574.384 650.384 580.153 654.743 591.434 654.743C594.767 654.743 597.202 654.358 599.51 654.102V681.535C595.279 682.176 589.254 682.945 581.435 682.945ZM619.379 680.125V654.871L713.471 527.835V527.066H621.558V495.146H759.619V520.272L665.912 647.436V648.205H762.183V680.125H619.379ZM854.223 527.322H829.098L852.429 483.481H885.63L854.223 527.322ZM845.763 682.945C803.716 682.945 778.207 655.64 778.207 611.671V611.543C778.207 567.83 803.973 539.885 844.224 539.885C884.476 539.885 909.73 567.189 909.73 608.723V620.26H815.125C815.51 642.18 827.432 654.999 846.532 654.999C861.915 654.999 871.273 646.539 873.965 638.847L874.221 638.078H908.576L908.191 639.488C903.961 659.742 884.989 682.945 845.763 682.945ZM844.865 567.83C829.483 567.83 817.945 578.085 815.51 596.673H873.836C871.529 577.701 860.376 567.83 844.865 567.83ZM929.086 680.125V542.705H966.518V566.676H967.287C971.389 549.755 982.541 539.885 998.565 539.885C1002.67 539.885 1006.51 540.526 1009.33 541.295V574.24C1006.26 572.958 1001.13 572.188 995.745 572.188C977.286 572.188 966.518 583.213 966.518 603.21V680.125H929.086ZM1083.17 682.945C1041.38 682.945 1015.1 656.153 1015.1 611.415V611.158C1015.1 566.933 1042.02 539.885 1083.04 539.885C1124.19 539.885 1151.24 566.676 1151.24 611.158V611.415C1151.24 656.281 1124.7 682.945 1083.17 682.945ZM1083.3 653.589C1101.5 653.589 1113.17 638.206 1113.17 611.415V611.158C1113.17 584.623 1101.25 569.24 1083.04 569.24C1064.97 569.24 1053.17 584.623 1053.17 611.158V611.415C1053.17 638.335 1064.84 653.589 1083.3 653.589Z" fill="white"/>
<path d="M1338.35 218.982L1361.24 185.774V185.268H1339.6C1337.18 185.268 1335.93 183.709 1335.93 181.833C1335.93 179.957 1337.18 178.392 1339.6 178.392H1365.85C1368.85 178.392 1370.45 180.045 1370.45 182.427C1370.45 184.074 1369.82 185.315 1368.48 187.133L1345.58 220.453V220.864H1367.75C1370.17 220.864 1371.47 222.423 1371.47 224.299C1371.47 226.176 1370.17 227.781 1367.75 227.781H1340.98C1337.98 227.781 1336.38 226.087 1336.38 223.705C1336.38 222.053 1337.01 220.864 1338.35 219" fill="white"/>
<path d="M1379.87 199.188C1379.87 186.749 1388.05 178.066 1399.86 178.066C1411.28 178.066 1419.29 186.433 1419.29 198.225C1419.29 203.441 1418.38 204.902 1415.01 204.902H1387.81V207.413C1387.86 215.738 1392.82 220.948 1401.01 220.948C1405.06 220.948 1408.2 219.71 1410.75 217.246C1413.21 214.958 1413.75 214.594 1415.07 214.594C1416.83 214.594 1418.12 216.008 1418.12 217.933C1418.12 219.347 1417.26 221.083 1415.9 222.503C1412.89 225.747 1407.06 227.783 1400.64 227.783C1387.79 227.783 1379.89 219.781 1379.89 206.797L1379.87 199.188ZM1411.51 198.501V198.366C1411.51 190.088 1407 184.831 1399.94 184.831C1392.7 184.831 1387.79 190.317 1387.79 198.366V198.501H1411.51ZM1398.72 168.421L1403.18 161.152C1403.46 160.65 1403.87 160.236 1404.37 159.953C1404.86 159.671 1405.43 159.531 1406 159.55C1406.86 159.553 1407.68 159.896 1408.28 160.504C1408.89 161.111 1409.23 161.935 1409.23 162.794C1409.24 163.575 1408.98 164.335 1408.5 164.948L1402.81 171.665C1402.48 172.111 1402.02 172.439 1401.49 172.601C1400.96 172.764 1400.4 172.753 1399.87 172.569C1399.35 172.386 1398.9 172.04 1398.59 171.582C1398.28 171.124 1398.12 170.577 1398.14 170.023C1398.2 169.455 1398.39 168.908 1398.69 168.421" fill="white"/>
<path d="M1435.45 227.13C1433.01 227.13 1431.57 225.478 1431.57 222.734V182.472C1431.57 179.775 1433.1 178.076 1435.49 178.076C1437.88 178.076 1439.28 179.727 1439.28 182.384V184.212H1439.5C1441.98 179.91 1445.63 177.747 1449.96 177.747C1451.13 177.695 1452.29 177.98 1453.3 178.57C1453.78 178.868 1454.18 179.293 1454.45 179.8C1454.72 180.308 1454.85 180.879 1454.83 181.455C1454.83 182.872 1454.33 183.836 1453.3 184.43C1452.23 184.927 1451.05 185.147 1449.87 185.07C1442.93 185.117 1439.32 188.92 1439.32 196.825V222.687C1439.32 225.431 1437.93 227.083 1435.45 227.083" fill="white"/>
<path d="M1502.01 199.056V206.417C1502.01 220.005 1493.2 227.78 1481.36 227.78C1469.52 227.78 1460.65 219.999 1460.65 206.417V199.056C1460.65 185.521 1469.47 177.741 1481.36 177.741C1493.24 177.741 1502.01 185.521 1502.01 199.056ZM1468.62 199.747V205.732C1468.62 215.072 1473.57 220.921 1481.36 220.921C1489.15 220.921 1494 215.072 1494 205.732V199.741C1494 190.626 1489.15 184.641 1481.36 184.641C1473.57 184.641 1468.62 190.626 1468.62 199.741" fill="white"/>
<path d="M1203.86 120.48C1199.52 116.074 1194.08 112.912 1188.11 111.322C1182.14 109.732 1175.85 109.772 1169.9 111.437C1163.95 113.102 1158.55 116.332 1154.27 120.792C1149.98 125.253 1146.96 130.782 1145.51 136.808C1144.07 142.833 1144.26 149.136 1146.06 155.065C1147.86 160.993 1151.2 166.332 1155.75 170.527C1160.29 174.723 1165.88 177.624 1171.91 178.93C1177.95 180.235 1184.23 179.898 1190.1 177.954C1194.34 176.545 1198.89 176.351 1203.23 177.395C1207.58 178.438 1211.55 180.678 1214.69 183.861L1222.72 190.94C1228.03 196.32 1230.13 200.012 1229 207.49C1228.39 211.497 1229.06 215.593 1230.9 219.201C1232.74 222.808 1235.66 225.745 1239.25 227.596C1242.85 229.447 1246.93 230.119 1250.92 229.517C1254.92 228.915 1258.62 227.07 1261.52 224.241C1264.41 221.413 1266.34 217.744 1267.05 213.753C1267.75 209.763 1267.18 205.652 1265.43 202.001C1263.68 198.35 1260.82 195.343 1257.28 193.406C1253.73 191.469 1249.66 190.699 1245.66 191.204C1238.13 192.153 1231.13 193.583 1225.79 188.174L1217.65 180.978C1214.5 177.772 1212.31 173.749 1211.32 169.361C1210.33 164.972 1210.58 160.394 1212.04 156.141C1214.12 150.022 1214.45 143.443 1213.01 137.144C1211.56 130.845 1208.4 125.074 1203.86 120.48Z" fill="white"/>
<path d="M1312.3 170.123C1314.94 166.552 1316.57 162.337 1317.05 157.916C1317.52 153.495 1316.8 149.028 1314.98 144.976C1313.16 140.925 1310.29 137.436 1306.67 134.872C1303.06 132.307 1298.83 130.76 1294.42 130.39C1290.01 130.019 1285.58 130.84 1281.59 132.766C1277.6 134.692 1274.19 137.654 1271.73 141.345C1269.26 145.036 1267.82 149.323 1267.55 153.761C1267.29 158.2 1268.21 162.629 1270.22 166.59C1271.67 169.455 1272.31 172.671 1272.04 175.877C1271.78 179.084 1270.63 182.153 1268.73 184.739L1262.6 193.571C1261.03 195.736 1258.97 197.502 1256.6 198.729C1254.23 199.956 1251.6 200.609 1248.94 200.638C1246.04 200.64 1243.21 201.558 1240.86 203.261C1238.51 204.965 1236.75 207.368 1235.83 210.131C1234.91 212.894 1234.88 215.877 1235.74 218.659C1236.6 221.441 1238.31 223.881 1240.62 225.634C1242.94 227.387 1245.74 228.364 1248.64 228.428C1251.54 228.492 1254.39 227.639 1256.78 225.99C1259.17 224.34 1260.98 221.978 1261.96 219.237C1262.94 216.495 1263.04 213.514 1262.25 210.713C1261.49 208.134 1261.33 205.414 1261.79 202.766C1262.25 200.117 1263.31 197.609 1264.89 195.438L1271.11 186.47C1273.03 183.886 1275.63 181.892 1278.61 180.71C1281.6 179.528 1284.85 179.207 1288.01 179.781C1292.56 180.591 1297.24 180.111 1301.53 178.396C1305.82 176.681 1309.55 173.798 1312.3 170.07" fill="white"/>
<defs>
<filter id="filter0_bd_9244_130696" x="-57.6658" y="-66.6658" width="1756.65" height="1022.33" filterUnits="userSpaceOnUse" color-interpolation-filters="sRGB">
<feFlood flood-opacity="0" result="BackgroundImageFix"/>
<feGaussianBlur in="BackgroundImageFix" stdDeviation="53.3329"/>
<feComposite in2="SourceAlpha" operator="in" result="effect1_backgroundBlur_9244_130696"/>
<feColorMatrix in="SourceAlpha" type="matrix" values="0 0 0 0 0 0 0 0 0 0 0 0 0 0 0 0 0 0 127 0" result="hardAlpha"/>
<feMorphology radius="2.09149" operator="erode" in="SourceAlpha" result="effect2_dropShadow_9244_130696"/>
<feOffset dy="8.36595"/>
<feGaussianBlur stdDeviation="25.0978"/>
<feColorMatrix type="matrix" values="0 0 0 0 1 0 0 0 0 1 0 0 0 0 1 0 0 0 0.2 0"/>
<feBlend mode="normal" in2="effect1_backgroundBlur_9244_130696" result="effect2_dropShadow_9244_130696"/>
<feBlend mode="normal" in="SourceGraphic" in2="effect2_dropShadow_9244_130696" result="shape"/>
</filter>
<clipPath id="clip0_9244_130696">
<rect width="214.768" height="106.755" fill="white" transform="translate(221.649 116.593)"/>
</clipPath>
</defs>
</svg>
