<svg width="584" height="130" viewBox="0 0 584 130" fill="none" xmlns="http://www.w3.org/2000/svg">
<g clip-path="url(#clip0_9244_118347)">
<rect width="584" height="130" rx="10" fill="#588074"/>
<g filter="url(#filter0_f_9244_118347)">
<path d="M903.581 -743C1177.58 -743 1552 -510.597 1552 -250.183C1552 10.2303 1127.14 -19.8391 903.581 103.264C277 448.295 277 77.5539 277 -182.86C277 -443.273 629.584 -743 903.581 -743Z" fill="#60A99D"/>
<path d="M903.581 -743C1177.58 -743 1552 -510.597 1552 -250.183C1552 10.2303 1127.14 -19.8391 903.581 103.264C277 448.295 277 77.5539 277 -182.86C277 -443.273 629.584 -743 903.581 -743Z" fill="#E2FFF1" fill-opacity="0.2"/>
</g>
<g filter="url(#filter1_f_9244_118347)">
<path d="M-69.5589 261C132.662 261 409 432.592 409 624.865C409 817.138 95.4346 794.936 -69.5588 885.828C-532 1140.58 -532 866.845 -532 674.572C-532 482.299 -271.779 261 -69.5589 261Z" fill="#429284"/>
<path d="M-69.5589 261C132.662 261 409 432.592 409 624.865C409 817.138 95.4346 794.936 -69.5588 885.828C-532 1140.58 -532 866.845 -532 674.572C-532 482.299 -271.779 261 -69.5589 261Z" fill="#E2FFF1" fill-opacity="0.2"/>
</g>
<g filter="url(#filter2_bd_9244_118347)">
<rect x="16" y="15" width="552" height="99" rx="11.8276" fill="url(#paint0_linear_9244_118347)"/>
<rect x="16.3943" y="15.3943" width="551.211" height="98.2115" rx="11.4334" stroke="url(#paint1_linear_9244_118347)" stroke-width="0.788509"/>
</g>
<g clip-path="url(#clip1_9244_118347)">
<g opacity="0.2">
<path d="M111.688 164.994L111.909 123.024L76.1749 101.938L40.1034 122.822L39.8817 164.792L75.7314 185.879L111.688 164.994Z" stroke="#E8E9E9" stroke-miterlimit="10" stroke-dasharray="5 5"/>
<path d="M76.0739 102.184L76.4412 60.213L112.207 39.3015" stroke="#E8E9E9" stroke-miterlimit="10"/>
<path d="M40.3002 39.0776L76.1294 60.1884" stroke="#E8E9E9" stroke-miterlimit="10"/>
<path d="M111.943 81.2703L112.164 39.2999L76.4297 18.2142L40.3583 39.0986L40.1368 81.0691L75.9867 102.155L111.943 81.2703Z" stroke="#E8E9E9" stroke-miterlimit="10"/>
<path d="M183.915 165.507L184.283 123.536L220.164 102.625" stroke="#E8E9E9" stroke-miterlimit="10" stroke-dasharray="5 5"/>
<path d="M148.141 102.403L183.97 123.513" stroke="#E8E9E9" stroke-miterlimit="10" stroke-dasharray="5 5"/>
<path d="M219.9 144.603L220.122 102.633L184.272 81.5462L148.201 102.43L147.979 144.401L183.829 165.487L219.9 144.603Z" stroke="#E8E9E9" stroke-miterlimit="10" stroke-dasharray="5 5"/>
<path d="M148.061 102.485L148.428 60.5131L184.31 39.6017" stroke="#E8E9E9" stroke-miterlimit="10"/>
<path d="M112.288 39.3754L148.118 60.4859" stroke="#E8E9E9" stroke-miterlimit="10"/>
<path d="M184.044 81.5715L184.266 39.601L148.416 18.5148L112.344 39.3991L112.123 81.3696L147.973 102.456L184.044 81.5715Z" stroke="#E8E9E9" stroke-miterlimit="10"/>
<path d="M148.329 18.6375L148.696 -23.3341L184.578 -44.2456" stroke="#E8E9E9" stroke-miterlimit="10" stroke-dasharray="5 5"/>
<path d="M184.312 -2.2741L184.533 -44.2446L148.684 -65.3309L112.612 -44.4466L112.39 -2.47611L148.24 18.6101L184.312 -2.2741Z" stroke="#E8E9E9" stroke-miterlimit="10" stroke-dasharray="5 5"/>
<path d="M220.427 18.9382L220.794 -23.0332L256.56 -43.9446" stroke="#E8E9E9" stroke-miterlimit="10"/>
<path d="M256.298 -1.9724L256.52 -43.9428L220.785 -65.0287L184.714 -44.1445L184.492 -2.17409L220.342 18.9121L256.298 -1.9724Z" stroke="#E8E9E9" stroke-miterlimit="10"/>
<path d="M4.10983 59.9549L4.47723 17.9832L40.3588 -2.92853" stroke="#E8E9E9" stroke-miterlimit="10"/>
<path d="M40.0951 39.0441L40.3167 -2.92637L4.4667 -24.0125L-31.6048 -3.12805L-31.8264 38.8425L4.0236 59.9286L40.0951 39.0441Z" stroke="#E8E9E9" stroke-miterlimit="10"/>
<path d="M256.03 123.892L256.397 81.9198L292.278 61.0082" stroke="#E8E9E9" stroke-miterlimit="10" stroke-dasharray="5 5"/>
<path d="M220.374 60.7851L256.087 81.8955" stroke="#E8E9E9" stroke-miterlimit="10" stroke-dasharray="5 5"/>
<path d="M292.017 102.982L292.239 61.0113L256.389 39.9252L220.433 60.8099L220.211 102.78L255.946 123.866L292.017 102.982Z" stroke="#E8E9E9" stroke-miterlimit="10" stroke-dasharray="5 5"/>
<path d="M3.84778 143.797L4.21475 101.826L40.0961 80.9141" stroke="#E8E9E9" stroke-miterlimit="10" stroke-dasharray="5 5"/>
<path d="M39.8325 122.891L40.0541 80.9205L4.20419 59.8344L-31.8674 80.7187L-32.089 122.689L3.76095 143.775L39.8325 122.891Z" stroke="#E8E9E9" stroke-miterlimit="10" stroke-dasharray="5 5"/>
<path d="M75.5571 60.1832C75.5556 60.5554 75.8519 60.8497 76.2086 60.851C76.5654 60.8522 76.8641 60.5598 76.8656 60.1877C76.8671 59.8156 76.5708 59.5212 76.2141 59.52C75.8573 59.5188 75.5586 59.8111 75.5571 60.1832Z" fill="#E8E9E9" stroke="#E8E9E9"/>
<path d="M39.4418 80.9941C39.4403 81.3662 39.7366 81.6606 40.0933 81.6618C40.4501 81.663 40.7488 81.3707 40.7503 80.9986C40.7518 80.6264 40.4556 80.3321 40.0988 80.3309C39.742 80.3296 39.4433 80.622 39.4418 80.9941Z" fill="#E8E9E9" stroke="#E8E9E9"/>
<path d="M219.047 102.591C219.044 103.22 219.546 103.724 220.158 103.726C220.77 103.728 221.276 103.228 221.279 102.598C221.281 101.969 220.779 101.465 220.167 101.463C219.555 101.461 219.049 101.961 219.047 102.591Z" fill="#E8E9E9" stroke="#E8E9E9"/>
<path d="M147.08 60.4852C147.077 61.1146 147.579 61.6184 148.191 61.6205C148.803 61.6226 149.31 61.1221 149.312 60.4928C149.315 59.8634 148.813 59.3596 148.201 59.3575C147.589 59.3554 147.082 59.8558 147.08 60.4852Z" fill="#E8E9E9" stroke="#E8E9E9"/>
<path d="M110.964 81.2916C110.961 81.9209 111.463 82.4248 112.075 82.4269C112.687 82.4289 113.193 81.9285 113.196 81.2992C113.198 80.6698 112.696 80.1659 112.084 80.1638C111.472 80.1618 110.966 80.6622 110.964 81.2916Z" fill="#E8E9E9" stroke="#E8E9E9"/>
<path d="M75.2273 18.2624C75.2247 18.8917 75.7268 19.3956 76.3388 19.3976C76.9508 19.3997 77.457 18.8993 77.4596 18.2699C77.4622 17.6406 76.96 17.1367 76.348 17.1346C75.736 17.1326 75.2298 17.633 75.2273 18.2624Z" fill="#E8E9E9" stroke="#E8E9E9"/>
<path d="M111.094 39.3727C111.092 40.002 111.594 40.5059 112.206 40.508C112.818 40.51 113.324 40.0096 113.327 39.3803C113.329 38.7509 112.827 38.247 112.215 38.245C111.603 38.2429 111.097 38.7433 111.094 39.3727Z" fill="#E8E9E9" stroke="#E8E9E9"/>
<path d="M73.9236 101.983C73.9187 103.191 74.8841 104.166 76.07 104.17C77.2559 104.174 78.2292 103.206 78.2341 101.997C78.2391 100.789 77.2737 99.8138 76.0878 99.8098C74.9019 99.8057 73.9286 100.774 73.9236 101.983Z" fill="#E8E9E9" stroke="#E8E9E9"/>
<path d="M38.0721 39.0676C38.0671 40.2761 39.0325 41.2511 40.2184 41.2552C41.4043 41.2592 42.3776 40.2908 42.3826 39.0822C42.3875 37.8736 41.4221 36.8986 40.2362 36.8946C39.0503 36.8906 38.077 37.859 38.0721 39.0676Z" fill="#E8E9E9" stroke="#E8E9E9"/>
<path d="M143.86 19.4846C143.85 21.9805 145.845 24.0026 148.306 24.0109C150.766 24.0193 152.778 22.0109 152.788 19.5149C152.798 17.019 150.803 14.997 148.342 14.9886C145.882 14.9803 143.87 16.9887 143.86 19.4846Z" fill="#E8E9E9" stroke="#E8E9E9"/>
<path d="M145.332 102.4C145.325 103.93 146.548 105.167 148.052 105.172C149.557 105.177 150.789 103.949 150.795 102.418C150.802 100.887 149.579 99.6506 148.075 99.6455C146.571 99.6404 145.338 100.869 145.332 102.4Z" fill="#E8E9E9" stroke="#E8E9E9"/>
<path d="M181.444 82.6404C181.438 84.1711 182.661 85.4079 184.165 85.413C185.669 85.4181 186.902 84.1897 186.908 82.6589C186.915 81.1282 185.692 79.8914 184.188 79.8863C182.683 79.8812 181.451 81.1096 181.444 82.6404Z" fill="#E8E9E9" stroke="#E8E9E9"/>
<path d="M111.688 164.994L111.91 123.024L76.1758 101.938L40.1043 122.822L39.8825 164.793L75.7323 185.879L111.688 164.994Z" stroke="#E8E9E9" stroke-miterlimit="10" stroke-dasharray="5 5"/>
<path d="M76.0796 102.184L76.447 60.212L112.213 39.2999" stroke="#E8E9E9" stroke-miterlimit="10"/>
<path d="M40.3079 39.0765L76.137 60.1873" stroke="#E8E9E9" stroke-miterlimit="10"/>
<path d="M111.947 81.2691L112.169 39.2987L76.4345 18.2128L40.3631 39.0971L40.1414 81.0675L75.9912 102.154L111.947 81.2691Z" stroke="#E8E9E9" stroke-miterlimit="10"/>
<path d="M183.918 165.512L184.286 123.541L220.167 102.63" stroke="#E8E9E9" stroke-miterlimit="10" stroke-dasharray="5 5"/>
<path d="M148.144 102.407L183.973 123.518" stroke="#E8E9E9" stroke-miterlimit="10" stroke-dasharray="5 5"/>
<path d="M219.902 144.607L220.123 102.637L184.273 81.5507L148.202 102.435L147.98 144.405L183.83 165.492L219.902 144.607Z" stroke="#E8E9E9" stroke-miterlimit="10" stroke-dasharray="5 5"/>
<path d="M148.065 102.481L148.432 60.5091L184.314 39.5978" stroke="#E8E9E9" stroke-miterlimit="10"/>
<path d="M112.289 39.3712L148.119 60.4818" stroke="#E8E9E9" stroke-miterlimit="10"/>
<path d="M184.047 81.5703L184.269 39.5998L148.419 18.5136L112.347 39.3979L112.126 81.3684L147.975 102.455L184.047 81.5703Z" stroke="#E8E9E9" stroke-miterlimit="10"/>
<path d="M148.329 18.637L148.696 -23.3346L184.578 -44.2461" stroke="#E8E9E9" stroke-miterlimit="10" stroke-dasharray="5 5"/>
<path d="M184.316 -2.27244L184.537 -44.243L148.687 -65.3292L112.616 -44.445L112.394 -2.47445L148.244 18.6118L184.316 -2.27244Z" stroke="#E8E9E9" stroke-miterlimit="10" stroke-dasharray="5 5"/>
<path d="M220.429 18.9437L220.797 -23.0277L256.563 -43.9391" stroke="#E8E9E9" stroke-miterlimit="10"/>
<path d="M256.302 -1.97075L256.524 -43.9412L220.789 -65.0271L184.718 -44.1429L184.496 -2.17243L220.346 18.9138L256.302 -1.97075Z" stroke="#E8E9E9" stroke-miterlimit="10"/>
<path d="M4.11282 59.9563L4.48022 17.9847L40.3618 -2.92676" stroke="#E8E9E9" stroke-miterlimit="10"/>
<path d="M40.0979 39.0434L40.3195 -2.92716L4.46952 -24.0133L-31.602 -3.12883L-31.8236 38.8417L4.0264 59.9278L40.0979 39.0434Z" stroke="#E8E9E9" stroke-miterlimit="10"/>
<path d="M256.037 123.889L256.404 81.9177L292.285 61.0062" stroke="#E8E9E9" stroke-miterlimit="10" stroke-dasharray="5 5"/>
<path d="M220.379 60.7837L256.093 81.8941" stroke="#E8E9E9" stroke-miterlimit="10" stroke-dasharray="5 5"/>
<path d="M292.022 102.981L292.243 61.0104L256.394 39.9243L220.437 60.809L220.216 102.779L255.95 123.865L292.022 102.981Z" stroke="#E8E9E9" stroke-miterlimit="10" stroke-dasharray="5 5"/>
<path d="M3.85429 143.793L4.2214 101.821L40.1028 80.9099" stroke="#E8E9E9" stroke-miterlimit="10" stroke-dasharray="5 5"/>
<path d="M39.836 122.886L40.0577 80.9155L4.2078 59.8292L-31.8638 80.7135L-32.0855 122.684L3.76438 143.77L39.836 122.886Z" stroke="#E8E9E9" stroke-miterlimit="10" stroke-dasharray="5 5"/>
<path d="M75.5589 60.1821C75.5574 60.5543 75.8537 60.8486 76.2105 60.8499C76.5673 60.8511 76.8659 60.5587 76.8674 60.1866C76.869 59.8145 76.5727 59.5201 76.2159 59.5189C75.8591 59.5177 75.5604 59.81 75.5589 60.1821Z" fill="#E8E9E9" stroke="#E8E9E9"/>
<path d="M39.4427 80.993C39.4411 81.3651 39.7374 81.6595 40.0942 81.6607C40.451 81.6619 40.7497 81.3696 40.7512 80.9975C40.7527 80.6253 40.4564 80.331 40.0996 80.3298C39.7428 80.3285 39.4442 80.6209 39.4427 80.993Z" fill="#E8E9E9" stroke="#E8E9E9"/>
<path d="M219.048 102.589C219.046 103.219 219.548 103.723 220.16 103.725C220.772 103.727 221.278 103.226 221.281 102.597C221.283 101.968 220.781 101.464 220.169 101.462C219.557 101.46 219.051 101.96 219.048 102.589Z" fill="#E8E9E9" stroke="#E8E9E9"/>
<path d="M147.082 60.4841C147.079 61.1135 147.581 61.6173 148.193 61.6194C148.805 61.6215 149.311 61.121 149.314 60.4917C149.317 59.8623 148.814 59.3585 148.202 59.3564C147.59 59.3543 147.084 59.8547 147.082 60.4841Z" fill="#E8E9E9" stroke="#E8E9E9"/>
<path d="M110.964 81.2916C110.962 81.921 111.464 82.4248 112.076 82.4269C112.688 82.429 113.194 81.9286 113.197 81.2992C113.199 80.6698 112.697 80.166 112.085 80.1639C111.473 80.1618 110.967 80.6622 110.964 81.2916Z" fill="#E8E9E9" stroke="#E8E9E9"/>
<path d="M75.2282 18.2613C75.2256 18.8906 75.7277 19.3945 76.3397 19.3965C76.9517 19.3986 77.4579 18.8982 77.4605 18.2688C77.4631 17.6395 76.961 17.1356 76.349 17.1335C75.737 17.1315 75.2307 17.6319 75.2282 18.2613Z" fill="#E8E9E9" stroke="#E8E9E9"/>
<path d="M111.096 39.3716C111.094 40.001 111.596 40.5048 112.208 40.5069C112.82 40.5089 113.326 40.0085 113.329 39.3792C113.331 38.7498 112.829 38.2459 112.217 38.2439C111.605 38.2418 111.099 38.7422 111.096 39.3716Z" fill="#E8E9E9" stroke="#E8E9E9"/>
<path d="M73.9255 101.983C73.9206 103.191 74.886 104.166 76.0719 104.17C77.2578 104.174 78.2311 103.206 78.236 101.997C78.2409 100.789 77.2756 99.8138 76.0897 99.8098C74.9038 99.8058 73.9305 100.774 73.9255 101.983Z" fill="#E8E9E9" stroke="#E8E9E9"/>
<path d="M38.074 39.0665C38.069 40.275 39.0344 41.25 40.2203 41.2541C41.4062 41.2581 42.3795 40.2897 42.3845 39.0811C42.3894 37.8725 41.424 36.8975 40.2381 36.8935C39.0522 36.8895 38.0789 37.8579 38.074 39.0665Z" fill="#E8E9E9" stroke="#E8E9E9"/>
<path d="M143.862 19.4835C143.852 21.9794 145.847 24.0015 148.307 24.0098C150.768 24.0182 152.779 22.0098 152.79 19.5138C152.8 17.0179 150.805 14.9959 148.344 14.9875C145.883 14.9792 143.872 16.9876 143.862 19.4835Z" fill="#E8E9E9" stroke="#E8E9E9"/>
<path d="M145.333 102.398C145.327 103.929 146.55 105.166 148.054 105.171C149.558 105.176 150.791 103.948 150.797 102.417C150.804 100.886 149.581 99.6495 148.077 99.6444C146.572 99.6393 145.34 100.868 145.333 102.398Z" fill="#E8E9E9" stroke="#E8E9E9"/>
<path d="M181.446 82.6393C181.44 84.17 182.663 85.4068 184.167 85.4119C185.671 85.417 186.904 84.1886 186.91 82.6578C186.916 81.1271 185.694 79.8903 184.189 79.8852C182.685 79.8801 181.453 81.1085 181.446 82.6393Z" fill="#E8E9E9" stroke="#E8E9E9"/>
</g>
<path d="M298.135 88.6517L309.14 72.6262V72.3821H298.738C297.574 72.3821 296.972 71.63 296.972 70.7245C296.972 69.8191 297.574 69.0641 298.738 69.0641H311.357C312.799 69.0641 313.567 69.8617 313.567 71.0112C313.567 71.8059 313.266 72.4048 312.619 73.2819L301.612 89.3613V89.56H312.271C313.435 89.56 314.059 90.3121 314.059 91.2176C314.059 92.123 313.435 92.8979 312.271 92.8979H299.401C297.959 92.8979 297.19 92.0804 297.19 90.9309C297.19 90.1333 297.491 89.56 298.138 88.6602" fill="#396961"/>
<path d="M318.097 79.0993C318.097 73.097 322.029 68.9068 327.705 68.9068C333.198 68.9068 337.048 72.9441 337.048 78.6349C337.048 81.1519 336.61 81.8569 334.993 81.8569H321.914V83.0687C321.936 87.0862 324.321 89.6004 328.261 89.6004C330.207 89.6004 331.718 89.003 332.943 87.8139C334.125 86.7097 334.386 86.5341 335.021 86.5341C335.863 86.5341 336.487 87.2165 336.487 88.1451C336.487 88.8274 336.071 89.6655 335.417 90.3507C333.97 91.9163 331.17 92.8988 328.084 92.8988C321.905 92.8988 318.105 89.037 318.105 82.7714L318.097 79.0993ZM333.308 78.768V78.7029C333.308 74.708 331.139 72.1712 327.747 72.1712C324.267 72.1712 321.905 74.8184 321.905 78.7029V78.768H333.308ZM327.157 64.2522L329.303 60.7443C329.437 60.5023 329.634 60.3022 329.873 60.1658C330.113 60.0295 330.385 59.9622 330.659 59.9713C331.071 59.9728 331.465 60.1383 331.756 60.4316C332.047 60.7249 332.211 61.1222 332.212 61.537C332.217 61.9138 332.093 62.2807 331.861 62.5761L329.126 65.8179C328.967 66.0328 328.745 66.1911 328.491 66.2696C328.236 66.348 327.964 66.3426 327.713 66.2541C327.463 66.1656 327.246 65.9987 327.096 65.7776C326.946 65.5565 326.87 65.2929 326.879 65.0251C326.91 64.7512 327 64.4874 327.143 64.2522" fill="#396961"/>
<path d="M344.814 92.5835C343.644 92.5835 342.951 91.7865 342.951 90.4619V71.033C342.951 69.7311 343.688 68.9114 344.837 68.9114C345.985 68.9114 346.656 69.7085 346.656 70.9905V71.8726H346.764C347.957 69.7964 349.712 68.7526 351.793 68.7526C352.354 68.7276 352.91 68.8653 353.397 69.1497C353.631 69.2937 353.822 69.4988 353.952 69.7436C354.082 69.9885 354.145 70.2643 354.134 70.5423C354.134 71.2259 353.895 71.6911 353.397 71.9775C352.882 72.2174 352.316 72.3236 351.751 72.2867C348.413 72.3094 346.678 74.1445 346.678 77.9594V90.4392C346.678 91.7638 346.008 92.5608 344.814 92.5608" fill="#396961"/>
<path d="M376.817 79.0359V82.5881C376.817 89.1453 372.578 92.8971 366.886 92.8971C361.195 92.8971 356.933 89.1424 356.933 82.5881V79.0359C356.933 72.5044 361.172 68.7497 366.886 68.7497C372.6 68.7497 376.817 72.5044 376.817 79.0359ZM360.765 79.3694V82.2574C360.765 86.7648 363.142 89.5872 366.886 89.5872C370.631 89.5872 372.965 86.7648 372.965 82.2574V79.3666C372.965 74.9676 370.631 72.0796 366.886 72.0796C363.142 72.0796 360.765 74.9676 360.765 79.3666" fill="#396961"/>
<path d="M233.524 41.1173C231.435 38.991 228.821 37.4653 225.95 36.698C223.08 35.9308 220.058 35.9499 217.197 36.7533C214.337 37.5568 211.741 39.1154 209.68 41.268C207.618 43.4205 206.165 46.0887 205.471 48.9965C204.777 51.9043 204.867 54.9461 205.732 57.807C206.597 60.6678 208.206 63.244 210.392 65.2687C212.577 67.2935 215.26 68.6933 218.164 69.3234C221.067 69.9534 224.084 69.7908 226.904 68.8524C228.944 68.1725 231.131 68.0792 233.22 68.5828C235.309 69.0864 237.218 70.167 238.73 71.7031L242.589 75.1194C245.139 77.7156 246.153 79.4973 245.608 83.1059C245.317 85.0393 245.636 87.0161 246.52 88.757C247.405 90.498 248.81 91.9152 250.537 92.8085C252.265 93.7018 254.227 94.0261 256.148 93.7356C258.068 93.4451 259.849 92.5545 261.24 91.1895C262.631 89.8246 263.56 88.0542 263.898 86.1284C264.235 84.2026 263.964 82.2187 263.121 80.4569C262.278 78.695 260.907 77.2442 259.202 76.3094C257.496 75.3745 255.542 75.0028 253.615 75.2467C249.998 75.7049 246.63 76.3949 244.066 73.7846L240.151 70.3117C238.639 68.7648 237.585 66.8232 237.108 64.7057C236.632 62.5881 236.752 60.3787 237.455 58.3263C238.453 55.3733 238.614 52.1987 237.919 49.1588C237.225 46.119 235.703 43.3343 233.524 41.1173Z" fill="#396961"/>
<path d="M285.612 65.0738C286.88 63.3503 287.667 61.3165 287.894 59.183C288.121 57.0495 287.778 54.8937 286.901 52.9385C286.025 50.9834 284.646 49.3 282.908 48.0624C281.169 46.8248 279.135 46.0781 277.015 45.8994C274.894 45.7207 272.765 46.1166 270.848 47.046C268.93 47.9755 267.293 49.4048 266.107 51.1861C264.921 52.9674 264.228 55.036 264.1 57.1778C263.973 59.3197 264.415 61.4571 265.381 63.3688C266.082 64.7511 266.386 66.3033 266.26 67.8505C266.133 69.3978 265.581 70.8787 264.665 72.1267L261.721 76.3891C260.964 77.4339 259.976 78.2862 258.835 78.8781C257.694 79.4701 256.432 79.7855 255.15 79.7991C253.756 79.8003 252.397 80.2432 251.267 81.0653C250.136 81.8874 249.29 83.047 248.848 84.3804C248.406 85.7137 248.391 87.1533 248.805 88.4958C249.219 89.8382 250.04 91.0156 251.154 91.8615C252.267 92.7074 253.616 93.1791 255.01 93.2099C256.403 93.2407 257.771 92.8291 258.92 92.0332C260.069 91.2373 260.941 90.0973 261.413 88.7745C261.885 87.4516 261.932 86.0127 261.549 84.6611C261.185 83.4165 261.111 82.1042 261.331 80.826C261.552 79.5477 262.061 78.3378 262.82 77.2899L265.809 72.9621C266.732 71.7154 267.982 70.7529 269.417 70.1827C270.853 69.6124 272.417 69.4571 273.935 69.7341C276.121 70.1251 278.372 69.8937 280.435 69.066C282.497 68.2382 284.29 66.8469 285.612 65.0482" fill="#396961"/>
</g>
</g>
<defs>
<filter id="filter0_f_9244_118347" x="117.164" y="-902.836" width="1594.67" height="1305.67" filterUnits="userSpaceOnUse" color-interpolation-filters="sRGB">
<feFlood flood-opacity="0" result="BackgroundImageFix"/>
<feBlend mode="normal" in="SourceGraphic" in2="BackgroundImageFix" result="shape"/>
<feGaussianBlur stdDeviation="79.9179" result="effect1_foregroundBlur_9244_118347"/>
</filter>
<filter id="filter1_f_9244_118347" x="-691.836" y="101.164" width="1260.67" height="1047.67" filterUnits="userSpaceOnUse" color-interpolation-filters="sRGB">
<feFlood flood-opacity="0" result="BackgroundImageFix"/>
<feBlend mode="normal" in="SourceGraphic" in2="BackgroundImageFix" result="shape"/>
<feGaussianBlur stdDeviation="79.9179" result="effect1_foregroundBlur_9244_118347"/>
</filter>
<filter id="filter2_bd_9244_118347" x="-24.2139" y="-25.2139" width="632.428" height="179.428" filterUnits="userSpaceOnUse" color-interpolation-filters="sRGB">
<feFlood flood-opacity="0" result="BackgroundImageFix"/>
<feGaussianBlur in="BackgroundImageFix" stdDeviation="20.107"/>
<feComposite in2="SourceAlpha" operator="in" result="effect1_backgroundBlur_9244_118347"/>
<feColorMatrix in="SourceAlpha" type="matrix" values="0 0 0 0 0 0 0 0 0 0 0 0 0 0 0 0 0 0 127 0" result="hardAlpha"/>
<feMorphology radius="0.788509" operator="erode" in="SourceAlpha" result="effect2_dropShadow_9244_118347"/>
<feOffset dy="3.15403"/>
<feGaussianBlur stdDeviation="9.4621"/>
<feColorMatrix type="matrix" values="0 0 0 0 1 0 0 0 0 1 0 0 0 0 1 0 0 0 0.2 0"/>
<feBlend mode="normal" in2="effect1_backgroundBlur_9244_118347" result="effect2_dropShadow_9244_118347"/>
<feBlend mode="normal" in="SourceGraphic" in2="effect2_dropShadow_9244_118347" result="shape"/>
</filter>
<linearGradient id="paint0_linear_9244_118347" x1="16" y1="16.701" x2="40.4514" y2="188.166" gradientUnits="userSpaceOnUse">
<stop stop-color="white" stop-opacity="0"/>
<stop offset="1" stop-color="white" stop-opacity="0.19"/>
</linearGradient>
<linearGradient id="paint1_linear_9244_118347" x1="25.5907" y1="16.701" x2="49.0997" y2="183.831" gradientUnits="userSpaceOnUse">
<stop stop-color="white" stop-opacity="0.52"/>
<stop offset="0.369792" stop-color="#DDEEFF" stop-opacity="0.12"/>
<stop offset="0.677083" stop-color="#B1D9FF" stop-opacity="0.12"/>
<stop offset="1" stop-color="#513F9D" stop-opacity="0.15"/>
</linearGradient>
<clipPath id="clip0_9244_118347">
<rect width="584" height="130" rx="10" fill="white"/>
</clipPath>
<clipPath id="clip1_9244_118347">
<rect width="550" height="98" fill="white" transform="translate(16 16)"/>
</clipPath>
</defs>
</svg>
